<?xml version="1.0" encoding="UTF-8" standalone="no"?>
<!DOCTYPE svg  PUBLIC '-//W3C//DTD SVG 1.1//EN'  'http://www.w3.org/Graphics/SVG/1.1/DTD/svg11.dtd'>
<svg xmlns="http://www.w3.org/2000/svg">
<defs>
<font id="UVFDartangnonStd-Regular" horiz-adv-x="722">
<font-face underline-position="-147" font-weight="500" descent="-200" panose-1="2 0 3 6 2 0 0 2 0 2" units-per-em="1000" unicode-range="U+0020-FB02" bbox="-282 -516 1122 1163" x-height="246" underline-thickness="41" font-family="UVFDartangnonStd" ascent="800" cap-height="808"/>
<missing-glyph d="M250 290l-162 -242h323zM278 333l162 -243v485zM60 91l7 10q7 10 18 27t25.5 39t29.5 45q35 54 81 121l-161 242v-484zM250 375l161 243h-323zM12 665h475v-665h-475v665z" horiz-adv-x="500"/>
<glyph glyph-name="f_i" horiz-adv-x="502" unicode="fi" d="M539 103q-11 -13 -23.5 -31.5t-27.5 -35.5t-32 -29t-38 -12h-4q-19 1 -31 10t-19 22.5t-10 31t-3 36.5q0 34 5.5 68t9.5 58q-23 -4 -47.5 -11t-42.5 -12q-12 -3 -18 -5.5t-11.5 -5.5t-13.5 -6.5t-23 -6.5q4 -45 7 -90.5t3 -85.5v-28.5t-2 -24.5q-8 -83 -28.5 -137 t-43.5 -85.5t-44.5 -45.5t-32.5 -17q-2 -1 -6 -1q-8 0 -12.5 5.5t-4.5 12.5q0 13 13 17q4 1 21 11t37 38t38.5 77t26.5 128q1 11 1.5 24.5t0.5 28.5q0 38 -2.5 80.5t-6.5 84.5q-32 -7 -65.5 -13t-69.5 -12h-4q-8 0 -12.5 5.5t-4.5 12.5q0 6 3.5 11t11.5 7q35 6 69 12t68 14 q-3 40 -6 68l-5 45t-6 61t-5.5 72t-2.5 77q0 51 6 100.5t21 89t41 65t67 28.5h8q22 0 37 -9.5t24 -25.5t12.5 -37.5t3.5 -46.5q0 -34 -5.5 -71t-13.5 -70t-16 -59t-13 -37q-4 -11 -16 -11q-7 0 -13 5t-6 13q0 1 2 7q4 10 12 35.5t15 57.5t12.5 67.5t5.5 65.5q0 35 -9.5 58 t-32.5 23h-4q-30 -2 -50 -24t-31 -56.5t-15.5 -78t-4.5 -89.5q0 -40 2.5 -78.5t5.5 -72.5t6 -60t4 -41q1 -14 2.5 -30t3.5 -33q23 5 39.5 10.5t32 10.5t32 10.5t39.5 10.5q11 2 18.5 3.5t13.5 1.5q23 0 23 -21q0 -8 -2.5 -19.5t-4.5 -25.5q-2 -11 -6.5 -39.5t-4.5 -56.5 q0 -26 6.5 -45t23.5 -20h1q12 0 25.5 12t26.5 28t24 32t18 24q5 6 13 6t13.5 -5t5.5 -13q0 -5 -5 -12zM461 506q1 -3 1 -9q0 -10 -5 -21.5t-18 -19.5q-5 -3 -10 -3q-7 0 -12 5.5t-5 13.5q0 9 9 15l3 3q-13 4 -13 16q0 9 7 17t18 8q3 0 9 -2q7 -3 10.5 -9.5t5.5 -13.5z"/>
<glyph glyph-name="f_l" horiz-adv-x="549" unicode="fl" d="M540 754q-19 -4 -36 -33t-32 -70t-27 -89.5t-20.5 -92.5t-14 -79t-6.5 -48q36 48 62 102.5t43 113.5q2 8 7.5 29t11.5 46.5t10.5 52t4.5 46.5q0 13 -3 22zM612 48q-3 -5 -11 -14.5t-20 -18.5t-28 -16t-37 -7h-6q-38 1 -64.5 21.5t-44 54.5t-26.5 79.5t-10 97.5 q-37 -34 -81 -60t-98 -41q3 -37 5 -74t2 -70v-29t-2 -26q-8 -83 -28.5 -137t-43.5 -85.5t-44.5 -45.5t-32.5 -17q-2 -1 -6 -1q-8 0 -12.5 5.5t-4.5 12.5q0 13 13 17q4 1 21 11t37 38t38.5 77t26.5 128q1 11 1.5 22.5t0.5 24.5q0 32 -2 68.5t-5 72.5q-21 -4 -43 -6t-45 -2 q-9 0 -13.5 5.5t-4.5 12.5q0 6 4.5 11.5t13.5 5.5q44 0 85 9q-2 28 -4 53.5t-4 45.5q-2 18 -5 46t-6 62.5t-5.5 74t-2.5 80.5q0 53 6 104.5t21 93t41 68t67 29.5h5q23 0 37.5 -16t23 -41t11.5 -56.5t3 -61.5q0 -37 -3 -67t-5 -43q-3 -15 -17 -15q-7 0 -12.5 5t-5.5 13v4 q4 18 6 44.5t2 55.5q0 35 -4.5 68.5t-15.5 55.5q-10 19 -20 19h-2q-31 -2 -50.5 -25t-31 -59.5t-16 -83t-4.5 -94.5q0 -41 2.5 -81t5.5 -74.5t6 -61t4 -41.5q2 -20 4.5 -43.5t4.5 -49.5q54 17 99 46t83 69q1 56 9.5 114.5t21 113t29.5 103t36.5 84.5t40 57t41.5 22 q20 0 27.5 -18t7.5 -44t-5 -56.5t-11.5 -57t-12 -45t-6.5 -21.5q-19 -65 -53.5 -135t-88.5 -131v-8q0 -37 4.5 -79.5t16.5 -79t33.5 -61.5t56.5 -26h4q14 0 25 4.5t19.5 11t14 13t7.5 10.5q5 8 15 8q7 0 12.5 -4.5t5.5 -12.5q0 -6 -3 -10z"/>
<glyph glyph-name=".notdef" d="M250 290l-162 -242h323zM278 333l162 -243v485zM60 91l7 10q7 10 18 27t25.5 39t29.5 45q35 54 81 121l-161 242v-484zM250 375l161 243h-323zM12 665h475v-665h-475v665z" horiz-adv-x="500"/>
<glyph glyph-name=".null" horiz-adv-x="0"/>
<glyph glyph-name="nonmarkingreturn" horiz-adv-x="180"/>
<glyph glyph-name="space" horiz-adv-x="180" unicode=" "/>
<glyph glyph-name="exclam" horiz-adv-x="304" unicode="!" d="M187 13q-8 -11 -19 -11q-17 0 -19 16q-5 7 -5 15q0 7 5 12.5t16 6.5h1q12 0 19.5 -7t7.5 -17q0 -8 -6 -15zM255 795q-5 -20 -11 -68t-13 -111t-13.5 -133.5t-12 -135.5t-8.5 -118.5t-3 -81.5q0 -9 -5.5 -13.5t-12.5 -4.5t-12.5 4.5t-5.5 13.5q0 28 3 82t8.5 120t12 137.5 t13.5 135t13.5 112.5t11.5 70q3 13 16 13q8 0 13.5 -4.5t5.5 -13.5v-4z"/>
<glyph glyph-name="quotedbl" horiz-adv-x="286" unicode='&quot;' d="M106 712q1 -8 1.5 -15.5t0.5 -14.5q0 -44 -16 -78t-40 -73q-6 -9 -15 -9q-8 0 -13.5 5t-5.5 12q0 5 3 10q19 32 35.5 65t16.5 70q0 19 -6 39q-2 0 -2.5 -0.5t-2.5 -0.5q-8 0 -13 6t-5 13q0 8 7 14q9 8 20 8q16 0 24.5 -18t10.5 -33zM238 712q1 -8 1.5 -15.5t0.5 -14.5 q0 -44 -16 -78t-40 -73q-6 -9 -15 -9q-8 0 -13.5 5t-5.5 12q0 5 3 10q19 32 35.5 65t16.5 70q0 19 -6 39q-2 0 -2.5 -0.5t-2.5 -0.5q-8 0 -13 6t-5 13q0 8 7 14q9 8 20 8q16 0 24.5 -18t10.5 -33z"/>
<glyph glyph-name="numbersign" horiz-adv-x="456" unicode="#" d="M184 302q-3 -21 -6.5 -31.5l-6.5 -19.5t-6.5 -20.5t-6.5 -32.5q17 2 26 4t17 4.5t18 4t29 3.5q2 21 4 31.5t4.5 19t5 18.5t5.5 31zM306 317q-3 -19 -5.5 -28.5t-5 -18t-5 -20t-4.5 -33.5q35 2 56.5 3.5t44.5 1.5h19q9 0 13.5 -5.5t4.5 -12.5t-4.5 -12.5t-13.5 -5.5h-16 q-25 0 -47.5 -2t-59.5 -4q-2 -23 -4.5 -42t-5 -36t-4.5 -33.5t-2 -34.5v-17q0 -9 -5.5 -13.5t-12.5 -4.5t-12.5 4t-5.5 13v19q0 18 1.5 34.5t4 33t4.5 34.5t4 40q-20 -2 -30 -4t-18 -4t-17 -4t-27 -4q-9 -62 -14.5 -94t-5.5 -43v-8q0 -8 -5.5 -12.5t-12.5 -4.5q-6 0 -11 3.5 t-7 11.5q0 2 -0.5 4t-0.5 4q0 15 5.5 46.5t13.5 88.5q-39 -5 -56.5 -9t-27.5 -6h-4q-8 0 -12.5 5.5t-4.5 12.5q0 6 3.5 11t11.5 7q11 2 31.5 6t63.5 9q3 21 6 32.5t6.5 21t7 20.5t6.5 32l-103 -11h-3q-8 0 -12.5 5.5t-4.5 12.5q0 6 4.5 11.5t12.5 6.5l111 11q8 51 14.5 91 t9.5 59q2 8 7 12t11 4q7 0 12 -4.5t5 -12.5v-4q0 -1 -6 -41.5t-15 -100.5l84 12q5 35 11 69t11 66q3 15 17 15q7 0 12.5 -4.5t5.5 -12.5v-4q-2 -16 -5 -35q-2 -17 -6 -40t-8 -51l105 11h2q8 0 12.5 -5.5t4.5 -12.5q0 -6 -4 -11.5t-13 -6.5z"/>
<glyph glyph-name="dollar" horiz-adv-x="477" unicode="$" d="M338 161q-16 13 -36 24.5t-42 23.5q-4 -48 -7 -95.5t-5 -95.5q16 2 37 10t39.5 20t31 28.5t12.5 34.5q0 26 -30 50zM253 496q-24 -5 -47.5 -14.5t-42 -22t-30 -27.5t-12.5 -33v-5q0 -42 32 -72t76 -55q6 68 12.5 126.5t11.5 102.5zM425 430q-1 -24 -11.5 -46t-23 -39.5 t-25 -29.5t-17.5 -16t-11 -4q-7 0 -12 5t-5 12q0 9 8 15q4 3 14 13t20.5 24.5t18.5 31t9 33.5v4q0 18 -9 31t-22.5 21.5t-30 12t-32.5 3.5h-8q-5 -47 -11.5 -112.5t-13.5 -140.5q26 -14 52 -28.5t49 -33.5q17 -15 28.5 -32t11.5 -38q0 -5 -2 -15q-5 -24 -21.5 -45t-39 -36.5 t-48 -25t-47.5 -11.5q-1 -19 -1 -37v-36q0 -9 -6 -14t-13 -5q-6 0 -11 4t-5 12v37t1 39q-22 2 -44.5 8.5t-42 18t-33.5 27t-20 35.5q0 2 -0.5 2.5t-0.5 2.5q0 8 6 13t14 5q5 0 9 -3t6 -9q7 -26 39 -43t69 -22q2 52 5 105t8 104q-26 14 -51 30.5t-45 36t-32 43.5t-12 54v7 q1 30 18 52.5t42.5 39t55 27t55.5 15.5q6 45 6 52q1 8 6.5 12t11.5 4q7 0 12 -4t5 -12v-3q0 -2 -1.5 -13.5t-3.5 -31.5h10q22 0 43.5 -6t39 -18.5t28.5 -31.5t11 -44v-6z"/>
<glyph glyph-name="percent" horiz-adv-x="556" unicode="%" d="M420 222q-23 -10 -43 -24.5t-35 -31.5q-23 -26 -35 -53t-12 -47q0 -14 6 -23q4 -6 23 -6t46 6t52 18t43 29.5t18 41.5q0 19 -14 41.5t-49 48.5zM279 491q-8 -2 -17 -18.5t-9 -33.5q0 -9 3 -16q10 7 17 26t7 33q0 7 -1 9zM512 104q-10 -20 -28 -37.5t-41 -30.5 q-27 -16 -58 -24.5t-57 -8.5q-18 0 -32 4.5t-22 15.5t-11.5 23t-3.5 25q0 32 18.5 63.5t44.5 57.5q14 14 30 25.5t32 21.5q-10 7 -10 16q0 10 11 15q1 1 4 1q6 0 15 -4t19 -9q12 4 23.5 6.5t23.5 4.5h2q8 0 12 -5.5t4 -11.5t-3.5 -11t-11.5 -6q-4 0 -7 -0.5t-8 -1.5 q24 -20 42.5 -45.5t18.5 -53.5q0 -16 -7 -30zM503 580q-10 -40 -42.5 -73t-73.5 -57q-27 -46 -54 -95.5t-51 -98t-44.5 -92t-36 -77t-24.5 -54t-10 -21.5q-4 -10 -15 -10q-6 0 -11.5 4t-5.5 12q0 1 2 7q2 3 29 64t87 181q10 20 31 61.5t49 90.5q-11 -6 -17.5 -10.5 t-13.5 -8.5q-14 -8 -32 -12q-14 -19 -30.5 -36.5t-36.5 -28.5q-40 -23 -79 -23q-25 0 -45.5 11t-31.5 34q-9 19 -9 41q0 30 15.5 61t40 55.5t55.5 40.5t61 16q26 0 45 -11q8 -4 8 -13q0 -6 -5 -11.5t-13 -5.5q-6 0 -9 2q-10 5 -25 5q-23 0 -47.5 -13t-45 -33.5t-34 -45 t-13.5 -47.5q0 -14 6 -26q12 -26 49 -26q28 0 60 18q13 7 23 18l20 22q-2 2 -4 6q-4 9 -4 22q0 18 6.5 37.5t16 36.5t21 28t21.5 11q9 0 14 -8q4 -5 5 -12.5t1 -15.5q0 -18 -4 -37.5t-8 -30.5q5 3 8.5 5t6.5 4t6.5 4.5t6.5 4.5q9 7 19 14t24 12q15 25 31 47.5t32 39.5 t30.5 27.5t26.5 10.5h2q7 -1 12 -5.5t5 -10.5q0 -2 -0.5 -2.5t-0.5 -2.5z"/>
<glyph glyph-name="ampersand" horiz-adv-x="633" unicode="&amp;" d="M430 155q-37 41 -75 86.5t-74 93.5q-9 12 -18 24.5t-17 24.5q-72 -46 -115.5 -101.5t-45.5 -109.5v-6q0 -34 12.5 -62t33.5 -48.5t48.5 -31.5t58.5 -11h2q50 0 101 33t89 108zM619 19q8 -5 8 -14q0 -7 -5 -13t-13 -6q-5 0 -9 3q-17 11 -55.5 47t-88.5 90 q-42 -79 -97.5 -113t-112.5 -34h-3q-39 0 -74 14t-62 39t-43 58.5t-16 72.5q0 29 9.5 60t30.5 63t55 64t83 63q-24 36 -45 72.5t-36.5 72t-24.5 68.5t-9 63q0 28 8.5 51.5t28.5 41.5q25 24 59 24q23 0 46.5 -11t43.5 -29q35 -31 63.5 -79t42.5 -105q0 -2 0.5 -3t0.5 -2 q0 -8 -5.5 -12.5t-12.5 -4.5q-14 0 -17 13q-13 53 -39 97t-56 70q-35 31 -65 31q-22 0 -37 -15q-25 -25 -25 -67q0 -30 12 -68t34 -80.5t51.5 -89.5t65.5 -95q33 -45 67.5 -86t67.5 -79q13 33 22.5 73.5t14.5 88.5q-18 2 -35 3t-32 1h-15q-11 0 -14 -1q-6 -6 -13 -6 t-12.5 5.5t-5.5 13.5q0 7 6.5 13.5t23.5 8.5q6 1 13.5 1h16.5q16 0 36.5 -1.5t42.5 -3.5q3 1 8 1q7 0 10 -2q8 0 16.5 -0.5t17.5 -0.5q11 0 21 1t19 3q6 7 13 7t12.5 -6t5.5 -14q0 -7 -6 -13t-20 -9q-10 -2 -21.5 -3t-25.5 -1q-6 0 -12.5 0.5t-13.5 0.5q-6 -58 -17.5 -105 t-27.5 -85q52 -57 91.5 -95t54.5 -47z"/>
<glyph glyph-name="quotesingle" horiz-adv-x="151" unicode="&apos;" d="M116 712q1 -8 1.5 -15.5t0.5 -14.5q0 -44 -16 -78t-40 -73q-6 -9 -15 -9q-8 0 -13.5 5t-5.5 12q0 5 3 10q19 32 35.5 65t16.5 70q0 19 -6 39q-2 0 -2.5 -0.5t-2.5 -0.5q-8 0 -13 6t-5 13q0 8 7 14q9 8 20 8q16 0 24.5 -18t10.5 -33z"/>
<glyph glyph-name="parenleft" horiz-adv-x="313" unicode="(" d="M273 -235q4 -4 4 -10q0 -8 -6 -13.5t-14 -5.5t-14 7q-52 71 -90 137t-62.5 135t-36.5 146t-12 171q0 78 12.5 143t36 124.5t56.5 115.5t74 116q11 16 15 25q6 10 15 10q8 0 13.5 -5t5.5 -13q0 -6 -2 -9q-9 -17 -20.5 -33t-22.5 -32q-70 -102 -108.5 -208.5t-38.5 -233.5 q0 -91 11.5 -165.5t35.5 -140.5t61 -129t87 -132z"/>
<glyph glyph-name="parenright" horiz-adv-x="341" unicode=")" d="M287 270q0 -97 -27 -183.5t-61 -155.5t-65 -116t-42 -69q-6 -10 -16 -10q-7 0 -13 5t-6 13q0 5 2 8q11 21 42.5 68.5t65.5 116.5q33 67 58.5 149.5t25.5 173.5q0 95 -20 180.5t-49.5 158.5t-63.5 131t-63 97q-4 5 -4 11q0 7 6 12t13 5q8 0 14 -7q30 -41 65 -100.5 t66 -135t51.5 -164.5t20.5 -188z"/>
<glyph glyph-name="asterisk" horiz-adv-x="297" unicode="*" d="M266 696q12 -4 12 -17q0 -7 -4 -13t-13 -5q-5 0 -7 1q-21 8 -43 22t-41 24v-18q0 -18 -1 -34t-5 -27t-16 -11q-7 0 -13 4t-6 13q0 5 1 7q4 12 8 32t4 42v6q-29 -24 -52 -38t-24 -16q-5 -5 -12 -5q-8 0 -14 6t-6 13q0 8 7 12q11 4 22 11q10 7 23 15t28 21q-24 19 -44 37 t-32 32q-5 7 -5 12q-1 8 5 14t14 5q7 0 13 -6q13 -14 33 -33t42 -36l-6 52t-7 43v4q0 8 6 13t13 5q14 0 16 -15q0 -13 1 -28q1 -13 2 -29t3 -33q24 18 45 33t39 20h4q8 1 13 -5t5 -13q0 -14 -14 -17q-16 -4 -38 -18t-48 -35q22 -15 45 -27t47 -20z"/>
<glyph glyph-name="plus" horiz-adv-x="480" unicode="+" d="M257 273v-198h-35v198h-166v35h166v198h35v-198h166v-35h-166z"/>
<glyph glyph-name="comma" horiz-adv-x="160" unicode="," d="M109 -63q-6 -14 -10.5 -22t-10 -14t-12 -12.5t-17.5 -16.5q-5 -5 -13 -5q-7 0 -12 4.5t-5 11.5q0 6 6 12q12 10 21.5 20.5t16.5 23t11 28.5t4 38v8q0 9 -3 13.5t-5 6.5q-2 -1 -6 -1q-8 0 -17.5 6t-9.5 14q0 7 12 14q13 7 24 7q20 0 28.5 -22t8.5 -49q0 -19 -3 -36.5 t-8 -28.5z"/>
<glyph glyph-name="hyphen" horiz-adv-x="327" unicode="-" d="M259 200q-36 0 -77.5 -7t-79.5 -7q-20 0 -38 3q-8 2 -11 7t-3 10q0 8 4.5 13.5t13.5 5.5h4q15 -3 34 -3q37 0 78.5 7t74.5 7q9 0 13.5 -5.5t4.5 -12.5t-4.5 -12.5t-13.5 -5.5z"/>
<glyph glyph-name="period" horiz-adv-x="137" unicode="." d="M95 0q-2 -11 -10 -17t-17 -6q-8 0 -14 4t-8 13v3q0 6 4 10q-8 6 -8 12t4 10q7 9 18 9t21 -9.5t10 -23.5v-5z"/>
<glyph glyph-name="slash" horiz-adv-x="402" unicode="/" d="M365 772q-47 -80 -92 -224t-106 -354q-61 -211 -100 -364t-67 -252q-4 -13 -17 -13q-7 0 -13 4.5t-6 12.5q0 4 1 6q28 99 67 252t100 364q60 210 106.5 356t95.5 230q5 9 15 9q7 0 13 -4.5t6 -12.5q0 -6 -3 -10z"/>
<glyph glyph-name="zero" horiz-adv-x="380" unicode="0" d="M306 197q-5 38 -19 65.5t-40 45.5q-5 -7 -14 -7q-16 0 -43.5 -12.5t-53.5 -34.5t-45.5 -51t-19.5 -62q0 -9 1 -14q8 -51 33.5 -73t57.5 -22q25 0 50.5 12t46.5 32t34 47.5t13 58.5q0 10 -1 15zM342 201q1 -5 1 -8.5v-8.5q0 -31 -11 -63t-31.5 -58.5t-49.5 -44.5t-66 -21 q-4 0 -7.5 -0.5t-7.5 -0.5q-32 0 -56.5 11t-41.5 29.5t-26 43.5t-9 52v2q0 28 9.5 57t29.5 55t50 48t72 36q-13 4 -13 17q0 7 4.5 12.5t12.5 5.5h4q52 -10 90 -51t46 -113z"/>
<glyph glyph-name="one" horiz-adv-x="222" unicode="1" d="M163 374q-8 -31 -16.5 -85.5t-16.5 -116.5t-14.5 -124t-10.5 -107q-2 -17 -18 -17q-7 0 -12.5 5t-5.5 13v2q3 39 8.5 91t12 106.5t14 106t14.5 90.5l-11 -10q-9 -8 -17.5 -16t-15.5 -15q-8 -8 -14 -15q-6 -6 -13 -6q-8 0 -13.5 5.5t-5.5 13.5q0 6 6 12l15 15q7 7 15.5 15 t18.5 17l10 10t16.5 14.5t19.5 13.5t18 6q12 0 16 -15v-9z"/>
<glyph glyph-name="two" horiz-adv-x="464" unicode="2" d="M430 31q3 2 9 2q8 0 12.5 -5.5t4.5 -13.5q0 -7 -6 -13t-22 -6q-7 0 -11 1q-45 6 -88 13t-90 7h-9t-12 -2q-32 -23 -64 -41t-58 -27q-9 -3 -18 -3q-22 0 -24 18v1q0 12 15 28t50 32q18 8 39.5 15t42.5 11q9 6 15.5 11t9.5 7q30 23 56.5 48.5t47 52t33 53t13.5 51.5v4 q0 41 -28 67.5t-76 28.5h-14q-38 0 -72 -9.5t-60 -23.5t-41.5 -29.5t-15.5 -27.5v-2q2 -18 40 -18q9 0 13.5 -5.5t4.5 -12.5t-4.5 -12.5t-13.5 -5.5q-12 0 -25 3t-24 9.5t-19 16.5t-9 24v6q0 25 21.5 47.5t55 39t74 26.5t77.5 10h14q29 -2 54.5 -12t44 -27t29 -41t10.5 -53 v-4q-1 -26 -13 -54t-31.5 -56.5t-46 -56t-55.5 -52.5q40 -2 78 -8.5t78 -11.5h8z"/>
<glyph glyph-name="three" horiz-adv-x="381" unicode="3" d="M356 5q-2 -24 -23 -46t-53 -38.5t-70.5 -26t-73.5 -9.5h-5q-26 1 -48 6.5t-36 18.5q-6 6 -6 13q0 8 5 13.5t13 5.5q5 0 12 -5q11 -9 28 -13t38 -4q28 0 60 8t59 20.5t45 29.5t19 35v2q0 23 -33 46t-113 42q-5 1 -20.5 4.5t-26.5 5.5q-10 -2 -14 -2q-12 0 -16 7 q-6 10 -6 16q0 8 7.5 11t18.5 3h5q24 8 57 27t63 43t51 50t21 49q0 2 -0.5 3.5t-0.5 3.5q-4 20 -32 35t-91 19h-13q-30 0 -53.5 -8.5t-40 -19t-25 -20.5t-8.5 -14q0 -13 9.5 -18.5t17.5 -11.5q8 -5 8 -14q0 -8 -5 -13.5t-13 -5.5q-6 0 -10 3q-17 11 -30 23t-13 37 q0 16 13.5 33.5t36.5 31.5t52.5 23.5t62.5 9.5h13q70 -5 114 -28.5t46 -62.5v-4q0 -23 -15.5 -50t-48.5 -57q-2 -2 -12 -10t-24.5 -18.5t-32.5 -23t-36 -22.5q20 -5 46 -12t50 -18q32 -14 54.5 -38t22.5 -59v-6z"/>
<glyph glyph-name="four" horiz-adv-x="473" unicode="4" d="M487 131q-18 -16 -59.5 -23.5t-92.5 -10.5q-10 -54 -17.5 -93t-7.5 -46v-3q0 -8 -5.5 -13t-12.5 -5t-12 6t-5 20q0 7 1 12q3 23 9.5 54.5t13.5 66.5q-18 -1 -36.5 -1h-35.5q-35 0 -63.5 0.5t-46.5 0.5q-11 0 -35.5 -4t-45.5 -12q-9 -8 -16.5 -14t-14.5 -11q-4 -3 -8 -4 t-7 -1q-17 0 -17 17q0 7 4 14.5t14 14.5q11 8 25 14q21 18 46.5 43t51.5 52.5t50.5 56t44.5 54.5t33 47t16 34q3 14 17 14q7 0 12.5 -5t5.5 -13v-4q-4 -19 -24 -50t-48.5 -67t-62.5 -73t-67 -69q7 1 13.5 1.5t12.5 0.5q16 0 46 -0.5t67 -0.5h38t38 1q11 53 18.5 104t7.5 89 q0 21 -3 36v4q0 8 5.5 13t13.5 5q5 0 10 -3t7 -11q4 -19 4 -47q0 -45 -9 -95.5t-18 -92.5q43 2 76 7.5t45 16.5q7 5 12 5q8 0 13 -5.5t5 -13.5t-6 -13z"/>
<glyph glyph-name="five" horiz-adv-x="358" unicode="5" d="M353 418q12 -4 12 -17q0 -7 -4.5 -12.5t-12.5 -5.5q-5 0 -7 1q-6 2 -12 2q-14 0 -36 -4t-47.5 -9.5t-52 -11t-49.5 -8.5q-13 -14 -28 -30.5t-28 -33.5t-21.5 -34.5t-8.5 -33.5q0 -10 3 -17l2 -1q9 -4 23 -5t31 -1q20 0 42.5 1t45.5 1q27 0 52 -2.5t44.5 -9t31 -19 t11.5 -33.5v-4q-2 -31 -28 -68t-61 -68.5t-70.5 -53t-56.5 -21.5q-4 0 -10 2t-8.5 6.5t-2.5 9.5q0 8 5 14t13 6q1 0 7 -2h1q7 0 35 18t59.5 44.5t56.5 55.5t25 52q0 16 -15 26t-52 12h-5q-14 0 -42.5 -2t-60.5 -2q-18 0 -35 1t-31 4t-24 8t-14 13q-8 16 -8 35q0 35 24 70 t51 64q-8 5 -8 15q0 7 4.5 13t13.5 6h3q4 -1 8 -1h9q7 7 10 11q6 7 13 7q13 0 18 -14q20 4 41 9t42 9.5t40.5 8t35.5 3.5q17 0 26 -4z"/>
<glyph glyph-name="six" horiz-adv-x="389" unicode="6" d="M381 407q-5 -9 -15 -9q-7 0 -13 4.5t-6 12.5q0 5 3 10q2 4 2 9q0 11 -9 25t-28 14q-6 0 -10 -1q-52 -12 -95 -43t-73.5 -71t-47 -84.5t-16.5 -83.5q0 -46 24.5 -77t78.5 -34h5q26 0 50.5 11t44 27t31 33.5t11.5 30.5q0 19 -26 19q-6 0 -14 -1t-18 -4q-25 -7 -49 -22.5 t-38 -37.5q-5 -8 -15 -8q-7 0 -12.5 4.5t-5.5 12.5q0 5 3 10q10 16 26.5 31t37 26t42 18t42.5 7h8t8 -1q23 -4 34 -17t11 -31q0 -21 -13.5 -46.5t-36.5 -47t-54 -36t-66 -14.5h-8q-24 1 -46 9t-40 23.5t-31 37.5t-18 52q-1 5 -1.5 10.5t-0.5 10.5q0 35 14.5 83.5t45.5 95.5 t80.5 86t119.5 56q12 3 22 3q19 0 31.5 -7.5t20.5 -19.5t11.5 -25.5t3.5 -25.5q0 -17 -5 -25z"/>
<glyph glyph-name="seven" horiz-adv-x="380" unicode="7" d="M339 321q1 -2 1 -7q0 -6 -5 -11q-2 -2 -16 -35t-34.5 -82t-44 -108t-43.5 -113.5t-34 -97t-16 -58.5q2 -6 2 -7q0 -8 -6 -13t-14 -5q-7 0 -12.5 5.5t-5.5 17.5v6q2 18 15 59t32.5 94t42 110.5t44 108.5t38 88.5t23.5 50.5q-6 1 -15 1h-20q-25 0 -57 -1.5t-62.5 -3 t-56.5 -3.5t-38 -3q-2 -12 -3.5 -21.5t-2.5 -11.5q-2 -6 -6.5 -8.5t-9.5 -2.5q-8 0 -14 4.5t-6 12.5q0 1 2 7q0 1 2 11t3.5 23t3 24t1.5 14q0 9 5.5 13.5t12.5 4.5t12.5 -4.5t5.5 -13.5v-6t-1 -9q15 1 36 3t46 3.5t51 2.5t50 1q34 0 60 -2.5t34 -8.5q8 -5 8 -14t-8 -15z"/>
<glyph glyph-name="eight" horiz-adv-x="402" unicode="8" d="M299 129q-14 18 -45 42.5t-67 52.5q-22 -24 -40.5 -49t-32 -48.5t-21.5 -45t-8 -39.5q0 -10 3 -19q3 -8 14 -11t26 -3q13 0 27.5 2t27.5 4t23 4.5t14 4.5q9 3 23.5 11t29 19t25 24.5t10.5 27.5q0 11 -9 23zM388 369q-18 -4 -39 -14.5t-43.5 -26t-46 -35t-45.5 -41.5 q24 -19 47.5 -38t41.5 -37t29 -34.5t12 -29.5v-4q0 -18 -9.5 -36t-25 -34t-35.5 -28.5t-41 -20.5q-16 -6 -43 -12t-56 -6q-27 0 -49.5 8t-30.5 30q-3 8 -4 15.5t-1 15.5q0 22 8.5 47.5t23.5 52t35 53t43 52.5q-24 19 -47 38t-41 38t-29 36.5t-11 32.5q0 2 0.5 3t0.5 3 q4 23 28 39.5t55.5 27.5t64.5 16.5t56 5.5q11 0 15 -1q9 -1 23.5 -5.5t29 -12t24.5 -17.5t10 -23v-3q-1 -8 -6.5 -12t-11.5 -4q-7 0 -12.5 4.5t-5.5 12.5l-1 1q-12 12 -31.5 17.5t-42.5 5.5q-26 0 -53.5 -5.5t-50.5 -14.5t-38.5 -19t-16.5 -19v-3q0 -9 9.5 -22t25.5 -28 t37.5 -31.5t44.5 -33.5q25 25 52 47.5t52.5 40t49 29t42.5 15.5h4q8 0 12.5 -5.5t4.5 -12.5q0 -6 -3 -11t-11 -7z"/>
<glyph glyph-name="nine" horiz-adv-x="393" unicode="9" d="M349 302q0 -15 -4.5 -31.5t-7.5 -30.5q-7 -29 -16 -68t-17 -82q-7 -33 -12 -68.5t-8.5 -69t-5.5 -63t-2 -50.5q0 -29 3 -36q2 -6 2 -8q0 -8 -6 -13t-13 -5q-5 0 -9.5 2.5t-6.5 8.5q-5 10 -6.5 25t-1.5 35q0 42 7.5 98.5t17.5 113.5t21 107.5t18 80.5l3 14 q-14 -10 -37.5 -24t-52 -27t-58.5 -22.5t-57 -9.5q-21 0 -38.5 7.5t-28.5 24.5q-13 20 -13 43q0 32 25.5 62.5t63.5 54t81.5 37.5t79.5 14q25 0 43.5 -7.5t26.5 -24.5q3 -8 3 -12q0 -10 -6 -15t-14 -5q-5 0 -10 4t-6 12q-12 12 -39 12q-28 0 -64.5 -12t-69.5 -31 t-55.5 -42.5t-22.5 -46.5q0 -13 7 -23q5 -9 15 -12.5t23 -3.5q25 0 59 13t66.5 30t57.5 34t33 25l4 4q4 3 10 3q8 0 13 -6.5t5 -15.5z"/>
<glyph glyph-name="colon" horiz-adv-x="221" unicode=":" d="M174 7q-2 -11 -8.5 -16t-13.5 -5q-9 0 -16.5 6t-7.5 14q0 3 1 5q-2 6 -2 8q0 8 7 14.5t16 6.5t15 -6q10 -10 10 -21q0 -2 -0.5 -3t-0.5 -3zM172 246q1 -2 1 -6q0 -8 -7.5 -14t-15.5 -6q-11 0 -18 9q-5 6 -5 16q0 4 2 12q7 18 22 18q9 0 16 -6.5t7 -14.5q0 -2 -2 -8z"/>
<glyph glyph-name="semicolon" horiz-adv-x="219" unicode=";" d="M175 -64q-13 -28 -29.5 -41.5t-36.5 -24.5q-5 -3 -11 -3q-8 0 -15 5t-7 11q0 5 8 10q29 17 47 37t18 55q0 13 -3 28q-3 16 -7 20q-8 -8 -18 -8q-8 0 -15 4.5t-7 11.5q0 12 20 23q13 7 23 7q11 0 19 -7.5t13 -19t7.5 -26.5t2.5 -30t-2.5 -29t-6.5 -23zM164 246 q0 -2 0.5 -3t0.5 -2q0 -10 -7.5 -15t-17.5 -5q-13 0 -20 9q-6 7 -6 17q0 11 7.5 20.5t18.5 9.5q6 0 10 -2q6 -2 10.5 -8t4.5 -14q0 -5 -1 -7z"/>
<glyph glyph-name="less" horiz-adv-x="480" unicode="&lt;" d="M55 280v13l369 193v-43l-295 -155v-2l295 -155v-42z"/>
<glyph glyph-name="equal" horiz-adv-x="480" unicode="=" d="M57 173v35h367v-35h-367zM57 373v35h367v-35h-367z"/>
<glyph glyph-name="greater" horiz-adv-x="480" unicode="&gt;" d="M55 87v43l295 156v1l-295 155v43l369 -192v-13z"/>
<glyph glyph-name="question" horiz-adv-x="542" unicode="?" d="M216 18q-2 -12 -9.5 -17.5t-15.5 -5.5q-12 0 -19 10q-3 4 -3 9q0 4 2 8q-3 4 -3 10q0 7 4 11q9 10 19 10t18 -8t8 -21q0 -2 -0.5 -3t-0.5 -3zM504 655q-5 -68 -34 -122t-71.5 -99t-93 -83t-99.5 -74q-18 -13 -21 -17q-19 -22 -19 -41q0 -17 11.5 -25.5t23.5 -8.5q5 0 7 1 q2 0 2.5 0.5t2.5 0.5q8 0 12.5 -6t4.5 -14q0 -5 -3 -10t-10 -7q-3 -1 -10 -1q-11 0 -25 4.5t-26 13.5t-20 21.5t-8 29.5q0 29 30 65q13 14 31.5 27t34.5 24q41 29 82.5 62.5t76 73.5t58 86.5t27.5 100.5v9q0 25 -10 50.5t-32 45.5t-56.5 32.5t-83.5 12.5q-37 0 -68.5 -10.5 t-58 -29.5t-48.5 -44t-40 -54q-1 -1 -1 -5q0 -8 7.5 -18t16 -21t16 -20.5t7.5 -15.5q0 -7 -12 -7q-7 0 -12 1t-14.5 8t-19.5 18.5t-17.5 25.5t-7.5 29q0 13 7 24q21 33 46 61t55.5 49t66 33t77.5 12q55 0 96 -14.5t68 -39t40.5 -56t13.5 -65.5v-13z"/>
<glyph glyph-name="at" horiz-adv-x="817" unicode="@" d="M737 290q-11 -15 -27.5 -29.5t-36 -25.5t-40.5 -18t-41 -7q-18 0 -34.5 6.5t-30.5 20.5q-18 20 -30.5 43t-26.5 46q-10 -13 -24 -32t-31.5 -36t-36.5 -29.5t-39 -12.5q-12 0 -21 4q-24 10 -34.5 27.5t-10.5 40.5q0 28 13.5 59.5t35.5 59.5t48.5 47.5t53.5 23.5 q2 0 4.5 0.5t4.5 0.5q18 0 36 -9t32 -20q7 -6 7 -14q0 -7 -5.5 -12.5t-12.5 -5.5q-5 0 -12 5q-20 17 -43 17q-24 0 -47 -17t-41 -40.5t-28.5 -49t-10.5 -42.5v-1q1 -17 9.5 -27t21.5 -10q11 0 22 7q13 8 29 26t31 36.5t28 32.5t19 15h2q14 0 26.5 -19t25.5 -42t26 -42.5 t28 -19.5h3q29 0 49.5 6t37 17.5t30 28t28.5 36.5q5 8 9 25t4 40q0 22 -4 48.5t-14 55t-25.5 56.5t-39.5 53q-36 38 -92 64t-137 27h-3q-84 0 -146.5 -33.5t-106.5 -83.5q-46 -52 -70 -110.5t-24 -119.5q0 -57 22 -112t70 -103q27 -28 57 -47.5t59 -32t55 -18t45 -5.5h2 q62 1 109.5 12t83 28t60 38.5t40.5 43.5q6 7 14 7q7 0 13 -5t6 -13q0 -6 -4 -11q-19 -26 -47 -50t-67.5 -43t-91 -30.5t-116.5 -12.5h-3q-22 0 -51.5 6.5t-62 20t-65.5 35.5t-62 52q-52 54 -77 115t-25 124q0 67 26 132t77 122q48 54 117 91.5t161 37.5h6q88 -1 150 -29 t104 -72q19 -20 35.5 -46.5t29 -57t20 -63.5t7.5 -65t-8 -61.5t-27 -54.5z"/>
<glyph glyph-name="A" d="M673 2q-2 -8 -7 -12t-11 -4q-7 0 -12.5 4.5t-5.5 12.5v4q2 14 3 32.5t1 41.5q0 50 -4 114t-10 130q-90 -29 -180 -56t-181 -52q-36 -63 -73 -122.5t-72 -107t-67.5 -78t-57.5 -34.5q-8 -2 -14.5 -2h-12.5q-32 0 -65 15q-13 6 -13 14q0 7 7 11.5t18 4.5q8 0 12 -2 q18 -7 39 -7q5 0 11 0.5t12 1.5q19 3 44.5 28t55 64.5t61.5 91.5t65 109l-44 -12t-44 -11q-4 -1 -14.5 -4t-23.5 -6t-26.5 -5t-23.5 -2q-7 0 -13 2q-11 5 -11 16q0 7 5 13t13 6q3 0 5 -1q9 0 28 3.5t45.5 10t59 15t68.5 18.5q33 60 65 119.5t60 113t51 97.5t38 71q5 8 14 24 t18 21q4 3 9 3q8 0 13 -6t5 -13q0 -10 -10 -16q-8 -9 -17 -25t-17.5 -33t-16.5 -33.5t-13 -26.5q-11 -21 -26.5 -51.5t-34.5 -67.5t-41 -78.5t-46 -84.5q50 14 101 29.5t95.5 29t80 25t55.5 17.5q-7 69 -14 130t-13 102q-6 46 -21.5 78t-35.5 52.5t-41.5 29.5t-40.5 9h-7 q-8 0 -13 5.5t-5 12.5q0 16 17 18h8q27 0 55 -12.5t52.5 -37t42.5 -62t25 -87.5q6 -42 13.5 -105t14.5 -135q3 -5 3 -11q0 -5 -1 -7q7 -70 11 -138t4 -122q0 -24 -1 -44.5t-3 -35.5z" unicode="A"/>
<glyph glyph-name="B" horiz-adv-x="752" unicode="B" d="M657 60q1 8 1.5 15.5t0.5 15.5q0 17 -3 32q-48 -24 -90.5 -51t-63.5 -42q-6 -4 -21.5 -16t-35.5 -28.5t-42 -36t-40 -38.5t-30 -36.5t-12 -29.5q0 -9 6 -13q4 -3 14 -3q16 0 44 7t61.5 21t68.5 34t65 46t51 56.5t26 66.5zM836 202q6 -2 8.5 -6.5t2.5 -9.5q0 -8 -4.5 -14 t-12.5 -6q-1 0 -7 2q-5 2 -10 3t-12 1q-21 0 -49.5 -9.5t-60.5 -23.5q2 -11 3.5 -22.5t1.5 -23.5q0 -19 -3 -38q-8 -53 -47.5 -100.5t-92 -82.5t-108.5 -56t-97 -22h-3q-27 0 -43.5 11.5t-16.5 34.5q0 9 3 20q8 30 43 69.5t85.5 81t110.5 80.5t118 67q-14 32 -40 57 t-58.5 44t-68.5 32t-71 21.5t-66 12t-53 4.5q-3 -57 -6 -111.5t-6 -101t-5.5 -81.5t-3.5 -52q-1 -9 -6 -13t-12 -4t-12.5 4.5t-5.5 13.5v1q2 47 6 101q3 46 6.5 104.5t6.5 121.5q-2 0 -3.5 -0.5t-3.5 -0.5q-11 0 -18 7t-7 16q0 16 19 25q2 1 5.5 1t9.5 1q3 62 4.5 116.5 t1.5 96.5q0 39 -1.5 63t-4.5 27q-5 7 -5 12q0 7 5.5 12.5t12.5 5.5q8 0 14 -7q8 -8 11 -47.5t3 -96.5q0 -38 -1 -81t-3 -88q24 16 53.5 37.5t55.5 41t44 33.5t20 16q33 27 61 55t48.5 54t32 50.5t11.5 45.5q0 7 -1 10q-11 61 -76 94t-169 33h-17.5t-17.5 -1 q-47 -2 -99 -13.5t-102.5 -30t-97 -42t-82.5 -49.5t-58 -54t-24 -54q5 4 11 4q7 0 10 -5.5t3 -12.5q0 -11 -6 -21t-19 -10q-8 0 -16 4q-10 5 -14.5 14.5t-4.5 20.5q0 36 24 70.5t63.5 65.5t91 57t107 46t110 32t101.5 14q8 0 16 0.5t16 0.5q54 0 102.5 -9t87 -27.5 t63.5 -48.5t32 -72q1 -5 1 -15q0 -29 -15 -60.5t-40 -63t-57.5 -63t-68.5 -60.5t-72 -55t-67 -47q50 -5 103.5 -17.5t102 -34.5t87 -54.5t57.5 -78.5q36 16 67.5 24.5t56.5 8.5q17 0 32 -5z"/>
<glyph glyph-name="C" horiz-adv-x="593" unicode="C" d="M650 65q-2 -2 -4.5 -4t-6.5 -5q-47 -37 -101 -55t-111 -20h-10q-70 0 -137.5 24t-120 69t-85 109t-32.5 144q0 59 16.5 115t44 105.5t63.5 90.5t75.5 71t80 47t77.5 18h6q48 0 84 -21t60.5 -53.5t38.5 -70t18 -70.5q1 -8 1.5 -14.5t0.5 -13.5q0 -40 -11.5 -74.5 t-27.5 -60.5t-34 -41t-30 -15q-9 0 -13.5 5.5t-4.5 12.5t4.5 12.5t13.5 5.5l11 10q10 10 22.5 29.5t23 48.5t10.5 66v12t-1 13q-3 31 -15.5 63.5t-33.5 59t-51 43.5t-67 17h-4q-46 -2 -102 -35t-105 -89t-82 -130t-33 -157q0 -77 33 -135.5t82.5 -98t107.5 -59.5t109 -20 h9.5t9.5 1q23 2 50.5 8t54.5 16t51.5 23.5t42.5 31.5q6 6 13 6q8 0 13.5 -5.5t5.5 -13.5q0 -6 -6 -12z"/>
<glyph glyph-name="D" horiz-adv-x="795" unicode="D" d="M597 155q-44 -11 -88 -22.5t-86 -24.5t-80.5 -26.5t-69.5 -27.5q-46 -21 -74 -42.5t-28 -42.5q0 -7 3 -13q6 -13 26 -13q17 0 41.5 8t52 19.5t55.5 26t51.5 27.5t40 23t22.5 13q37 22 70.5 46t63.5 49zM845 190q-17 -3 -35 -3.5t-39 -1.5t-46.5 -4t-57.5 -10 q-38 -39 -84.5 -74t-93.5 -64.5t-91.5 -52.5t-78.5 -38q-9 -4 -23 -9.5t-30 -11t-33 -9t-33 -3.5q-20 0 -35.5 7t-23.5 26q-5 11 -5 26q0 33 33.5 63.5t89.5 56.5q40 19 88 36t99.5 32t104 27.5t101.5 22.5q34 37 54 74t20 72q0 17 -4 30q-11 42 -43.5 80.5t-78.5 74 t-103 66.5t-117 57v-27q0 -51 -1 -104.5t-2 -105t-2.5 -97t-3.5 -81t-3.5 -57.5t-2.5 -25q-4 -12 -17 -12q-7 0 -12.5 4.5t-5.5 12.5q0 5 1 7q1 4 2.5 28.5t3 63.5t3 89t3 104t2 109t0.5 105q-91 36 -176.5 58.5t-145.5 27.5q-8 1 -12 6t-4 11q0 8 4.5 13.5t13.5 5.5h2 q57 -5 141.5 -26.5t176.5 -56.5q0 63 -2 104t-6 45q-6 6 -6 13t5.5 12.5t12.5 5.5t13 -6q4 -4 7 -20t5.5 -40.5t4 -57.5t1.5 -70q65 -27 127.5 -60.5t113.5 -72.5t87 -83t49 -92q3 -10 4 -19.5t1 -19.5q0 -34 -14.5 -67.5t-39.5 -66.5q26 5 45 6.5t33 1.5q13 0 22.5 -0.5 t17.5 -0.5q10 0 14 1h3q8 0 13 -5.5t5 -13.5q0 -6 -4 -11t-12 -6z"/>
<glyph glyph-name="E" horiz-adv-x="517" unicode="E" d="M533 -27q-51 -33 -115 -49t-127 -16q-41 0 -79.5 7t-69.5 20.5t-53 34.5t-31 48q-6 19 -6 39q0 42 23.5 84.5t57 82.5t69.5 75.5t60 64.5q14 17 22.5 29t8.5 20q0 9 -10 16.5t-31 16.5q-29 12 -67 25.5t-72 33t-57.5 47t-23.5 68.5v7.5t1 8.5q5 42 33.5 74.5t70.5 55 t93 34.5t101 12q55 0 102 -15q27 -9 45 -24t29 -34t16 -40.5t5 -42.5q0 -36 -11.5 -65.5t-27.5 -38.5q-5 -3 -9 -3q-8 0 -13 5.5t-5 13.5q0 9 10 15q8 4 14 24t6 46q0 16 -3.5 32.5t-11.5 31.5t-21.5 27t-33.5 19q-45 14 -91 14q-48 0 -93.5 -12.5t-82.5 -32.5t-60.5 -47 t-26.5 -55v-7q0 -29 24.5 -57t81.5 -52q25 -11 52.5 -20t50 -19.5t37 -24t14.5 -33.5q0 -14 -9 -33t-29 -43q-21 -25 -55.5 -59t-67 -72t-56 -77.5t-23.5 -75.5q0 -15 4 -27q6 -19 25 -35t46 -27.5t61 -18t72 -6.5q55 0 111.5 14t105.5 46q4 3 10 3q8 0 13 -5.5t5 -13.5 q0 -9 -8 -14z"/>
<glyph glyph-name="F" horiz-adv-x="489" unicode="F" d="M506 455q-4 0 -26.5 -8t-57 -21.5t-79 -31t-92.5 -35.5q-3 -82 -6 -162.5t-9 -161.5q0 -6 -1 -23t-4 -35.5t-9 -33t-18 -15.5h-1q-9 0 -13.5 5.5t-4.5 12.5q0 8 6 14q5 18 6 38.5t3 38.5q6 77 9 153.5t5 154.5q-46 -17 -80.5 -30.5t-49.5 -18.5q-2 -1 -7 -1q-8 0 -12.5 6 t-4.5 13q0 13 12 17q17 6 56 20.5t88 33.5q3 79 7.5 157t13.5 156q1 8 6.5 12t11.5 4q7 0 12.5 -4.5t5.5 -12.5v-3q-9 -73 -13.5 -146.5t-7.5 -148.5q48 18 91 35t77 29.5t56.5 20t29.5 7.5q9 0 13.5 -5.5t4.5 -12.5t-4.5 -12.5t-13.5 -5.5zM622 791q-71 0 -148 -13 t-152 -32.5t-142.5 -43.5t-119 -46.5t-82.5 -39.5t-32 -24q-1 -8 -6.5 -12t-11.5 -4q-7 0 -12.5 4.5t-5.5 12.5v3q2 16 36.5 39t90.5 48.5t129 51t151 46t157 33t148 12.5h14q9 0 13.5 -5.5t4.5 -12.5t-4.5 -12t-12.5 -5h-1h-14z"/>
<glyph glyph-name="G" horiz-adv-x="763" unicode="G" d="M655 -86q1 8 1 17v20q0 23 -1.5 51t-3.5 57q-38 -39 -73 -64.5t-63 -52.5t-47.5 -64.5t-26.5 -100.5q-1 -4 -1 -15q0 -21 5.5 -47.5t15 -50.5t23.5 -40t31 -16q24 0 50 37q23 34 39 65.5t26.5 63.5t16 66.5t8.5 73.5zM881 264q10 -6 10 -16q0 -7 -4.5 -12.5t-12.5 -5.5 q-6 0 -9 2q-2 0 -17 -9.5t-39.5 -27.5t-56.5 -44t-67 -59q6 -51 9.5 -86t3.5 -65q0 -20 -2 -40t-6.5 -42t-11.5 -48.5t-17 -59.5q-6 -20 -18.5 -50t-30.5 -58.5t-42 -49t-52 -20.5h-6.5t-6.5 1q-22 4 -40.5 20.5t-32 41.5t-21.5 55t-8 62q0 8 0.5 14.5t1.5 13.5 q7 67 29.5 109.5t55 76t72.5 64.5t84 74q-5 37 -10 69.5t-13 54.5q-35 -20 -68 -43t-67 -44q-32 -20 -67.5 -39.5t-73 -36.5t-77 -29.5t-78.5 -16.5q-5 -1 -10 -1h-10q-22 0 -42.5 6.5t-37 21.5t-26.5 39.5t-10 60.5v11q4 86 37.5 161.5t84.5 139t113.5 113t123 84 t113.5 52.5t86 18h7q41 -3 70.5 -16.5t48 -33t27 -44t8.5 -49.5q0 -27 -8.5 -53t-23.5 -46.5t-36 -33t-46 -12.5q-8 0 -16.5 2t-17.5 5q-11 4 -11 16q0 7 4.5 13t12.5 6q5 0 7 -1q9 -4 20 -4q16 0 30.5 9t25.5 23.5t17 33.5t6 39v4q-1 19 -7.5 37t-21 32.5t-37 24.5 t-54.5 12h-6q-29 0 -78 -17t-105.5 -49.5t-115 -79t-106.5 -106t-80 -130.5t-36 -151v-8q0 -52 24.5 -72.5t62.5 -20.5h6q36 1 79 16t83.5 34t73 37.5t48.5 28.5q12 7 32 21.5t42.5 29.5t43 27.5t33.5 17.5q6 2 10 2q9 0 14.5 -6t9.5 -15t6 -18.5t4 -16.5q5 -20 8.5 -38.5 t6.5 -38.5q33 30 63.5 53.5t56 40t45 25.5t30.5 9q5 0 7 -1z"/>
<glyph glyph-name="H" horiz-adv-x="864" unicode="H" d="M866 341q0 -7 -7 -13t-23 -8q-8 -2 -15.5 -2.5t-15.5 -1.5q-5 -62 -7 -125t-2 -126q0 -86 6 -166t21 -149v-4q0 -8 -5.5 -12.5t-12.5 -4.5q-5 0 -10 3t-7 11q-16 74 -22.5 156.5t-6.5 170.5q0 120 9 242q-17 -2 -35 -3t-35 -3t-45 -4t-64 -5t-79 -7t-89 -8q3 -37 5 -72.5 t2 -68.5q0 -73 -12.5 -128t-46.5 -79q-14 -10 -31.5 -14t-37.5 -4q-36 0 -76.5 11t-75.5 25.5t-60.5 29t-31.5 21.5q-5 7 -5 12q0 8 5.5 13t13.5 5t13 -6t28.5 -18.5t55.5 -25t68 -22t66 -9.5q29 0 47 12q25 17 34 62t9 108q0 33 -2 69.5t-5 74.5q-80 -7 -161 -14.5 t-146.5 -14.5t-107.5 -13t-44 -10q-5 -8 -15 -8q-7 0 -12.5 4.5t-5.5 12.5q0 5 3 10q6 10 50 19t111.5 18t152 17t172.5 16q-7 80 -14 159t-7 142q0 64 10 100q4 13 17 13q7 0 13 -4.5t6 -12.5q0 -4 -1 -6q-5 -19 -7.5 -43t-2.5 -52q0 -62 7.5 -138.5t15.5 -154.5 q51 4 100.5 8t95 7.5t85.5 7.5t72 7q6 81 13.5 158t14.5 148q4 44 6.5 73.5t2.5 44.5q0 10 -1 12t-1 6q0 8 5.5 12.5t12.5 4.5q13 0 17 -13q2 -10 2 -26q0 -22 -2 -57t-5.5 -76t-8 -84t-8.5 -82t-7 -70t-4 -47q7 1 12.5 2t10.5 2q2 0 4.5 0.5t4.5 0.5q12 0 18.5 -4.5 t7.5 -10.5v-1z"/>
<glyph glyph-name="I" horiz-adv-x="411" unicode="I" d="M418 171q-32 -11 -64.5 -31t-61.5 -46q-17 -42 -35.5 -77t-36.5 -61q-12 -18 -26 -18q-20 0 -20 31q0 14 5 27q11 32 32.5 61t48.5 55q38 87 66 177.5t42 184.5q9 67 9 117q0 51 -8.5 85.5t-23 56.5t-34.5 31.5t-43 9.5q-42 0 -90 -26.5t-89.5 -65t-71 -81.5t-35.5 -77 q-1 -6 -1.5 -12t-0.5 -11q0 -33 14.5 -61t38 -48.5t51.5 -32t55 -12.5h4q22 0 41 8t31 25q6 7 14 7q7 0 13 -5t6 -12q0 -6 -4 -11q-18 -25 -45 -36.5t-56 -11.5h-4q-34 1 -69 15t-63 39t-45.5 59.5t-17.5 75.5q0 15 3 30q5 29 21.5 61t41.5 62.5t56 58t65 48.5t69 34t68 14 h5q29 0 54.5 -11.5t44.5 -37.5t30 -67t11 -101q0 -26 -2.5 -56.5t-7.5 -65.5q-4 -27 -11.5 -62.5t-19 -76.5t-25 -84.5t-29.5 -86.5q22 14 44 25.5t44 19.5q2 1 7 1q8 0 12.5 -5.5t4.5 -12.5q0 -5 -2.5 -9.5t-9.5 -6.5z"/>
<glyph glyph-name="J" horiz-adv-x="582" unicode="J" d="M928 766q10 -6 10 -15q0 -8 -5 -13.5t-13 -5.5q-5 0 -9 3q-10 5 -28 7.5t-42 2.5h-7q-32 0 -70.5 -3t-79 -7t-79.5 -9.5t-72 -9.5q7 -1 12.5 -6t5.5 -13q0 -3 -1 -5q-11 -38 -14.5 -82.5t-3.5 -94.5q0 -54 2 -110t2 -113v-22q-1 -59 -8.5 -113t-26.5 -98.5t-53 -77.5 t-88 -49q-26 -8 -50.5 -11.5t-47.5 -3.5q-52 0 -93 15t-70.5 34t-47.5 37t-22 24q-4 5 -4 11q0 7 6 13q5 5 12 5q9 0 15 -8q4 -5 19 -20.5t41 -32t62.5 -29.5t82.5 -13q42 0 87 13q46 14 75 41t45.5 65.5t23 86t6.5 102.5v9q0 55 -3.5 116t-3.5 124q0 51 4.5 100t17.5 93 q3 8 10 11q-54 -8 -107.5 -14t-107.5 -8q-8 0 -15.5 -0.5t-15.5 -0.5q-33 0 -64 3.5t-55 13t-38.5 26.5t-14.5 44q0 14 4 29q4 13 18 13q7 0 12.5 -4t5.5 -12q0 -4 -1 -6q-3 -9 -3 -18q0 -18 15 -28t35 -15.5t41.5 -6.5t35.5 -1h4q57 0 130 8t149.5 17.5t149 18t128.5 8.5 q33 0 57.5 -3.5t39.5 -11.5z"/>
<glyph glyph-name="K" horiz-adv-x="573" unicode="K" d="M827 -126q-28 -18 -65 -20h-5q-45 0 -94.5 21t-99.5 54t-98 74.5t-90.5 82.5t-78 77.5t-60.5 60.5q-32 31 -58 55t-46 38q-3 -2 -5.5 -3t-4.5 -2q-9 -93 -19 -177.5t-22 -148.5q-2 -8 -7 -11.5t-11 -3.5q-7 0 -12.5 5t-5.5 13v4q11 61 21 140.5t18 167.5q-4 -1 -10 -1h-4 q-15 2 -21.5 9.5t-6.5 16.5q0 14 14 28.5t35 16.5q3 36 6.5 71t6.5 70q6 65 13 127.5t15 112.5t18 84.5t23 43.5q5 4 11 4q7 0 12 -6t5 -13q0 -8 -7 -14q-7 -5 -13.5 -32.5t-13.5 -72.5t-13.5 -105.5t-13.5 -131.5q-4 -35 -7 -72t-7 -74q3 -2 11 -6q38 22 90 59.5t108 82 t111 91t99 85t72 64.5t30 30q6 10 16 10q7 0 12.5 -4.5t5.5 -12.5q0 -6 -2 -9q-6 -12 -34 -40t-69.5 -64.5t-92 -79t-102.5 -83.5t-100.5 -76.5t-85.5 -58.5q-7 -5 -13.5 -8.5t-13.5 -7.5q26 -21 51.5 -45t41.5 -40q22 -21 56 -55.5t76 -74t88.5 -79.5t94 -73t92 -54.5 t82.5 -23.5h6q30 0 51 14q4 3 10 3q8 0 13 -5.5t5 -13.5q0 -9 -8 -14z"/>
<glyph glyph-name="L" horiz-adv-x="476" unicode="L" d="M262 -53q-10 3 -35 10t-55.5 14t-61.5 12.5t-52 5.5q-18 0 -25 -4q-2 -1 -2 -2v-3q0 -9 7 -21.5t24 -24t44.5 -19.5t68.5 -8q21 0 45 11.5t42 28.5zM821 -139q-13 -13 -35.5 -18t-52.5 -5q-46 0 -104.5 11t-118.5 26t-115.5 32t-94.5 29q-11 -14 -26 -26t-31.5 -20.5 t-34 -13.5t-33.5 -5q-45 0 -79 10t-56.5 26t-34 34.5t-11.5 35.5q0 19 13 32.5t39 15.5h13q39 0 98.5 -13t128.5 -33q15 31 28 88.5t23.5 129.5t20.5 152.5t19 156.5t18.5 141t19.5 108q2 10 7.5 28t14.5 36t21.5 31t28.5 13q10 0 21 -6q18 -11 24.5 -48.5t6.5 -78.5 q0 -32 -2 -59.5t-4 -37.5q-5 -38 -11.5 -77t-14.5 -74t-17.5 -64.5t-19.5 -47.5q-6 -10 -15 -10q-8 0 -13.5 5t-5.5 13q0 6 2 9q11 21 23 64.5t21.5 96.5t16 107.5t6.5 98.5q0 18 -1 33.5t-4 26.5q-2 5 -8.5 9.5t-8.5 4.5v-1q-9 -4 -18 -29.5t-17 -61.5t-14.5 -78t-11.5 -79 t-8.5 -64.5t-4.5 -34.5q-3 -26 -7.5 -67t-10.5 -88.5t-13.5 -99t-16.5 -99.5t-19 -89t-22 -68q55 -17 112.5 -34t111 -31.5t101 -23.5t82.5 -10h8q43 0 60 17q6 6 12 6q8 0 14 -6t6 -14q0 -6 -6 -12z"/>
<glyph glyph-name="M" horiz-adv-x="773" unicode="M" d="M703 14q7 -6 7 -14q0 -7 -5 -12.5t-13 -5.5q-6 0 -11 4q-12 9 -19.5 40.5t-12 77.5t-6 102.5t-1.5 114.5q0 48 1 95t2 87.5t2.5 73t2.5 52.5q-6 -17 -24 -64.5t-42.5 -108t-54 -126.5t-59.5 -121.5t-58 -92t-50 -38.5h-3q-26 0 -47 35.5t-37.5 91t-28.5 124.5t-20 136 q-13 -55 -32.5 -118t-45.5 -125t-58 -119.5t-70.5 -101.5t-84 -70t-96.5 -26q-26 0 -54 7t-57 24q-10 6 -10 16q0 7 5 13t13 6q4 0 9 -3q46 -26 92 -26q56 0 104.5 36.5t88.5 94.5t71.5 130t54 143.5t37 135t20.5 104.5l1 4q-2 29 -3 53t-1 41v16t1 12q1 6 2 13.5t4 14.5 t8.5 11.5t13.5 4.5q14 0 18.5 -17.5t4.5 -41.5q0 -16 -1.5 -33.5t-3.5 -33t-4 -27.5l-3 -18q2 -27 5 -54l5.5 -49.5t4.5 -40t3 -24.5t5.5 -32t11 -58.5t15.5 -71t18.5 -69t20 -52t20.5 -20.5q8 1 22.5 20t31.5 48t34.5 63.5t32 65t25 52.5t12.5 27q25 57 48 115.5 t42.5 112.5t33.5 99.5t21 75.5q2 8 7 12t11 4q7 0 12.5 -5t5.5 -14v-3q-3 -21 -6.5 -73t-6.5 -121t-5 -147.5t-2 -153.5q0 -54 1.5 -102t4.5 -85.5t7.5 -61.5t11.5 -29z"/>
<glyph glyph-name="N" horiz-adv-x="741" unicode="N" d="M697 847q-1 -6 -2.5 -36.5t-4 -77.5t-5 -106.5t-4 -125t-3 -132.5t-1.5 -129q0 -66 2 -121t6 -91v-4q0 -4 -2 -8q8 -5 8 -16q0 -7 -4 -12t-13 -6h-4q-29 0 -63.5 19.5t-71 51.5t-74 73t-74 85t-71 87.5t-63.5 79.5q-13 -141 -55.5 -252t-101.5 -182q-40 -48 -85.5 -75 t-92.5 -27q-55 0 -103 41q-6 6 -6 13q0 8 5 13.5t13 5.5q5 0 12 -5q36 -32 80 -32q36 0 74 22t75 67q58 70 100.5 186t51.5 265q-23 26 -39.5 41.5t-26.5 16.5q-8 1 -12.5 6t-4.5 11q0 7 5 12.5t13 5.5h2q13 -1 28 -11.5t29.5 -24t27 -28t20.5 -23.5q19 -22 47.5 -58 t62.5 -78t71 -86t74 -81.5t71 -64.5t62 -35l-1 2q-7 40 -9.5 102t-2.5 136q0 61 1.5 127t4 129.5t5 121t5.5 102.5t5 74t3 36q1 8 6.5 12t11.5 4q7 0 12.5 -4.5t5.5 -12.5v-3z"/>
<glyph glyph-name="O" horiz-adv-x="653" unicode="O" d="M545 234q-23 -3 -44 -3q-33 0 -64.5 8.5t-58.5 27.5t-49 49.5t-37 73.5q-8 26 -8 51q0 37 14.5 74.5t41 68t62 49.5t77.5 19q15 0 30 -3q4 0 6 -1q-5 31 -14.5 59.5t-24 50.5t-34 36t-44.5 16q-3 0 -6 0.5t-6 0.5q-55 0 -103.5 -40.5t-85 -106t-59 -149t-24.5 -169.5v-29 q0 -69 9 -132.5t28 -113.5t49 -82.5t73 -38.5q5 -1 11 -1.5t11 -0.5q29 0 55.5 11t49.5 30t43.5 44t37.5 54q21 35 37 73.5t27 73.5zM564 315q2 11 3 33t1 50q0 36 -3 76t-12 72q-5 -56 -18 -101.5t-31 -67.5q-6 -7 -13 -7t-12.5 5.5t-5.5 13.5q0 6 4 11q21 25 32 73t11 103 v15.5t-1 15.5q-7 5 -17 7q-6 1 -12 1.5t-11 0.5q-33 0 -62 -15.5t-50.5 -40.5t-34 -56t-12.5 -61q0 -22 6 -41q24 -72 73 -103t107 -31q22 0 50 5q3 11 4.5 22t3.5 20zM761 356q-31 -38 -76.5 -68t-97.5 -45q-13 -49 -33.5 -97.5t-48.5 -90.5q-41 -62 -95 -102t-117 -40 q-6 0 -12.5 0.5t-13.5 1.5q-49 7 -85 40.5t-60 85t-35.5 117t-11.5 137.5v22q2 95 24 189.5t61.5 170.5t95.5 123t128 47q5 0 8.5 -0.5t8.5 -0.5q39 -3 67 -23t46 -50.5t27.5 -69t12.5 -79.5q29 -32 40 -89.5t11 -119.5q0 -37 -2.5 -71t-7.5 -61q41 14 76.5 39t61.5 57 q6 7 14 7q7 0 12.5 -5t5.5 -13q0 -7 -4 -12z"/>
<glyph glyph-name="P" horiz-adv-x="545" unicode="P" d="M365 759q17 -19 23.5 -62.5t6.5 -103.5q0 -64 -6 -138.5t-14.5 -146t-17 -131.5t-12.5 -96q-6 -47 -9 -77.5t-3 -42.5v-6q0 -2 0.5 -3t0.5 -2q0 -8 -6 -12.5t-13 -4.5q-5 0 -10 3t-7 10q-1 3 -1 13q0 17 3 49t7 70.5t9.5 80t10 77.5t8.5 63t5 37q8 75 13.5 144.5 t5.5 125.5q0 48 -5 82t-16 47q-5 7 -5 12q0 8 5.5 13t13.5 5t13 -6zM747 612q-4 -63 -32 -120.5t-73.5 -103.5t-105.5 -77.5t-127 -40.5h-3q-8 0 -13 5.5t-5 13.5q0 6 4 11t12 6q62 9 116 37.5t95.5 70.5t66.5 93.5t29 107.5v13q0 49 -25 89.5t-69 70t-104.5 45.5t-132.5 16 h-19t-19 -1q-79 -5 -157.5 -28.5t-140.5 -60t-101 -82t-39 -94.5q0 -5 0.5 -9.5t1.5 -9.5q2 -12 16 -27.5t34.5 -29t43.5 -23t43 -10.5q9 0 13 -5.5t4 -12.5t-4.5 -12.5t-13.5 -5.5h-1q-23 1 -51 12t-53.5 28t-44 38t-22.5 42q-1 7 -1.5 13t-0.5 13q0 62 45 115t114.5 92.5 t152.5 63t160 28.5q11 1 20.5 1h19.5q74 0 140.5 -17t117 -50t80.5 -80.5t30 -108.5q0 -4 -0.5 -8t-0.5 -8z"/>
<glyph glyph-name="Q" horiz-adv-x="657" unicode="Q" d="M330 -2q-36 15 -80 15h-15q-5 0 -12.5 -1.5t-12.5 -4.5q0 -10 15.5 -13t34.5 -3q17 0 31 1.5t17 1.5q5 1 11 1.5t11 2.5zM843 -199q-46 -13 -91 -13q-51 0 -96 15t-87.5 39t-83 53.5t-81.5 58.5q-8 5 -14.5 10t-14.5 10q-17 -6 -32.5 -10t-29.5 -6q-8 -1 -21 -2t-27 -1 q-16 0 -32 2t-29 8t-21.5 16t-8.5 26v5q2 22 23 29.5t47 7.5q23 0 44 -3.5t31 -5.5q14 -3 28.5 -10t30.5 -16q34 16 68.5 44t65 70t53 99.5t32.5 131.5q2 15 3 31t1 33q0 61 -14.5 125t-44 116.5t-74 85.5t-104.5 33q-4 0 -8 -0.5t-8 -0.5q-47 -4 -92.5 -36t-81 -84 t-58 -120t-23.5 -143v-7q0 -42 8 -88t21.5 -85.5t31 -67.5t35.5 -33q7 -2 10 -7t3 -10q0 -7 -4.5 -13t-12.5 -6q-1 0 -2 0.5t-3 0.5q-30 8 -52.5 43t-38.5 81.5t-24 97t-8 90.5v4q1 78 24.5 151.5t63 131.5t91.5 94t109 41q5 1 10 1h10q49 0 88 -18t69 -48t52 -70t36 -84.5 t20.5 -91t6.5 -88.5q0 -17 -1 -32.5t-3 -30.5q-10 -73 -32 -131.5t-51.5 -103.5t-64.5 -76.5t-71 -51.5q35 -23 68.5 -49.5t59.5 -43.5q48 -31 99 -53t110 -22q41 0 83 12q2 1 6 1q8 0 12 -5.5t4 -12.5q0 -14 -13 -18z"/>
<glyph glyph-name="R" horiz-adv-x="659" unicode="R" d="M821 -152q9 0 13.5 -5.5t4.5 -12.5q0 -6 -4.5 -11.5t-13.5 -5.5h-1q-36 1 -83.5 25t-100.5 61t-108 83.5t-106.5 93t-96 88t-75.5 70.5q-5 6 -12 12q-6 5 -14 12t-16 15q-5 0 -9 -0.5t-9 -0.5q-6 0 -11.5 0.5t-11.5 1.5q-6 -48 -11 -93t-9.5 -84t-9 -70.5t-7.5 -51.5 q-2 -14 -7.5 -19.5t-11.5 -5.5q-8 0 -13.5 5.5t-5.5 13.5q0 4 2 8l1 4q5 27 7.5 54.5t5.5 54.5q3 28 8.5 80t13.5 116q-11 7 -21 20q-7 10 -7 20q0 12 11 19.5t25 8.5q9 67 19 135.5t21 125.5t23 96.5t24 48.5q5 4 11 4q7 0 12 -6t5 -13q0 -8 -7 -14q-9 -7 -18 -42.5 t-18 -89t-18 -120.5t-17 -137q9 -6 20 -14t24 -19q37 4 81.5 21.5t90 44t88.5 58.5t76 66.5t53 68.5t20 64q0 2 -0.5 4.5t-0.5 4.5q-4 30 -32.5 54.5t-70.5 42t-91 27.5t-93 12q-8 0 -16 0.5t-16 0.5q-52 0 -111 -6.5t-115 -20t-104.5 -33t-79.5 -44.5q-5 -4 -11 -4 q-8 0 -13.5 5.5t-5.5 13.5t7 14q35 28 87 49t111 34.5t120.5 20.5t115.5 7q8 0 16.5 -0.5t16.5 -0.5q27 -1 60.5 -6t68 -13.5t67.5 -22t59.5 -32t44 -41.5t21.5 -52q0 -3 0.5 -6t0.5 -6q0 -33 -18.5 -69.5t-50.5 -72.5t-73.5 -70t-87 -62t-92.5 -49t-89 -31 q32 -28 66.5 -59.5t64 -59t50.5 -47.5t26 -24q52 -47 104 -90t99 -76.5t87.5 -54t70.5 -21.5z"/>
<glyph glyph-name="S" horiz-adv-x="551" unicode="S" d="M515 120q-4 -31 -25.5 -58t-53 -50t-71 -42.5t-78 -35t-74 -26.5t-60.5 -18q-2 -1 -6 -1q-8 0 -12.5 6t-4.5 13q0 13 13 17q20 6 52 16t68.5 24t73.5 31.5t67.5 38t51 43t23.5 47.5v3q0 21 -31.5 44.5t-79 50.5t-103 59.5t-103 71.5t-80.5 86t-34 104v4q0 32 15 58.5 t39 47t55 35.5t63 25t62 15t54 5h2q33 0 64.5 -10t56 -29t40 -45.5t16.5 -60.5v-3q0 -32 -12 -62t-28 -54t-31.5 -40.5t-22.5 -21.5q-5 -4 -12 -4q-8 0 -13 5.5t-5 12.5q0 8 7 14q6 5 19.5 19.5t27 35t24 45t10.5 49.5v3q0 24 -11.5 44t-31 34.5t-45 23t-53.5 8.5h-2 q-37 0 -81 -11t-82 -30.5t-63.5 -47.5t-25.5 -62v-2q1 -53 34 -95.5t80.5 -78.5t103 -67t103 -60t79 -57.5t31.5 -59.5v-7z"/>
<glyph glyph-name="T" horiz-adv-x="554" unicode="T" d="M802 707q-20 -6 -56 -6q-39 0 -90.5 5.5t-105.5 13t-106 16t-91 15.5q8 -57 13.5 -134.5t5.5 -162.5q0 -81 -6.5 -162t-22.5 -150t-43 -120t-67 -72q-3 -2 -9 -2q-8 0 -12.5 5.5t-4.5 12.5q0 9 10 15q34 18 57 64.5t36.5 110.5t19 139.5t5.5 151.5q0 91 -6 172.5 t-14 137.5l-16 2q-9 1 -43 6.5t-79.5 11.5t-96.5 11t-93 5q-38 0 -65 -5t-32 -18q-1 -2 -1 -7q0 -16 22 -33.5t50.5 -32t55 -24.5t35.5 -12q14 -3 14 -17q0 -7 -5 -12.5t-13 -5.5h-4q-17 3 -48.5 15.5t-63.5 31t-55.5 42t-23.5 49.5q0 11 4 20q6 15 20.5 23.5t32.5 13.5 t38 6.5t38 1.5q10 0 18 -0.5t15 -0.5q73 -3 145.5 -12t144.5 -20l-1 4v5q0 8 5.5 12.5t12.5 4.5q5 0 10 -3t7 -11l3 -18q65 -11 129 -22t129 -19q43 -6 78 -9t61 -3q30 0 48 5q2 1 6 1q8 0 13 -6t5 -13q0 -13 -13 -17z"/>
<glyph glyph-name="U" horiz-adv-x="695" unicode="U" d="M783 181q-11 -16 -31 -44.5t-45.5 -56.5t-54 -49t-55.5 -21q-11 0 -20 3q-20 7 -32.5 25.5t-19.5 43t-9.5 53t-2.5 55.5t1 50.5t3 39.5q5 69 15.5 143.5t21.5 144.5q-12 -31 -34.5 -86.5t-53 -120t-67.5 -131t-78 -120.5t-85 -88.5t-88 -34.5q-18 0 -39 8q-17 7 -30 28.5 t-22 50.5t-13.5 61t-4.5 59q0 68 11.5 136t30 130.5t42.5 117.5t48.5 97.5t48.5 68.5t43 32q2 1 6 1q8 0 13 -5.5t5 -13.5q0 -12 -13 -16q-12 -4 -31.5 -27t-41.5 -61t-44.5 -89t-40.5 -111t-29.5 -126t-11.5 -134q0 -29 4.5 -57.5t11.5 -51.5t15.5 -38.5t15.5 -18.5 q11 -5 26 -5q36 0 74.5 33t76 85t72.5 116t64 125t50 112t32 78q2 5 7.5 23.5t14.5 38.5t20.5 35.5t24.5 15.5q7 0 12 -4q3 -2 5.5 -7t2.5 -9v-1q-6 -45 -15.5 -103t-18 -121t-15 -126t-6.5 -117q0 -23 1 -42.5t4 -37.5q6 -38 18 -54t28 -16q19 0 42 19t45 44.5t39.5 51 t26.5 39.5q5 8 15 8q7 0 13 -5t6 -12q0 -6 -4 -11z"/>
<glyph glyph-name="V" horiz-adv-x="665" unicode="V" d="M602 771q-13 40 -38 40q-18 0 -35.5 -18.5t-26.5 -44.5q-17 -49 -17 -107q0 -32 5 -63.5t15.5 -61.5t26 -56.5t35.5 -47.5q7 24 15 57t14.5 70t11 75t4.5 73q0 24 -2.5 45.5t-7.5 38.5zM901 386q-55 -37 -103.5 -53.5t-92.5 -16.5q-34 0 -64 9t-56 26q-4 -12 -7.5 -24 t-8.5 -23q-26 -71 -58 -139.5t-67 -124t-70.5 -91t-69.5 -40.5q-3 -1 -6.5 -1h-6.5q-38 0 -71.5 29t-61 76.5t-46.5 108.5t-27 125q-2 14 -4.5 38.5t-5 55.5t-4 67.5t-1.5 74.5q0 52 4.5 103.5t16 93.5t31 70t50.5 34h4q8 0 13 -5.5t5 -12.5q0 -14 -15 -17q-21 -4 -35 -28 t-22.5 -60.5t-11.5 -82t-3 -92.5q0 -39 1.5 -76.5t4 -69t4.5 -55t4 -34.5q8 -68 27 -124.5t43 -97.5t50.5 -63.5t50.5 -22.5q2 0 3.5 0.5t3.5 0.5q23 3 47.5 27t49 60.5t48.5 82t44.5 92t37.5 91t29 78.5q-27 24 -46.5 55.5t-32.5 67t-20 72.5t-7 73v4q0 40 7.5 76t22.5 63 t36.5 43t49.5 16h8q24 -2 38.5 -18.5t23 -40t11 -50t2.5 -49.5v-18t-1 -15q-4 -68 -17 -134.5t-33 -132.5q48 -34 110 -34q38 0 81.5 14.5t92.5 47.5q6 3 10 3q8 0 13 -5.5t5 -12.5q0 -9 -8 -14z"/>
<glyph glyph-name="W" horiz-adv-x="878" unicode="W" d="M798 304q3 37 3 78q0 49 -3.5 97t-10.5 92q-10 65 -24 111.5t-31 60.5q-14 -3 -25 -25.5t-14 -68.5q0 -4 -0.5 -8.5t-0.5 -9.5q0 -33 6.5 -77t19.5 -90t33 -88.5t47 -71.5zM975 255q-25 -15 -47 -21.5t-43 -6.5q-29 0 -56 12q-5 -36 -14 -68t-22.5 -58.5t-31.5 -45.5 t-42 -28q-13 -5 -24 -5q-32 0 -59 32t-48.5 82t-36.5 112t-23 122q-15 -36 -31 -68t-27 -55q-30 -58 -65.5 -116.5t-73.5 -106t-78 -78.5t-79 -34h-9q-29 0 -48 17.5t-30.5 47.5t-16.5 70.5t-5 87.5q0 69 8.5 145t19.5 142.5t21.5 115t13.5 63.5q10 42 18 69t15 45 t12.5 30.5t10.5 24.5q4 11 16 11q7 0 13 -4.5t6 -12.5q0 -5 -1 -7q-5 -12 -10.5 -24t-12 -29.5t-15 -44t-17.5 -66.5q-9 -37 -19.5 -91.5t-20.5 -116.5t-16.5 -127t-6.5 -123q0 -41 4 -75.5t13 -61.5q9 -28 21.5 -39.5t28.5 -11.5h4q27 2 59 27t65 65t66 91.5t62.5 106 t54.5 109.5t42 102q0 8 -0.5 15t-0.5 14q0 45 6.5 75t20.5 38q8 4 15 4q13 0 18 -13t5 -27q0 -3 -0.5 -6t-0.5 -5q-6 -40 -25 -95q2 -25 5 -50t6 -46t5.5 -36l3.5 -21q2 -8 6.5 -28.5t12.5 -47t18 -55t22 -52t26.5 -39t30.5 -15.5q8 0 12 2q38 15 59 66.5t29 122.5 q-38 30 -65 79t-44 101q-4 13 -8.5 34t-9 46.5t-7.5 54t-3 56.5q0 27 3 51.5t11 44t21 33t33 18.5q3 1 7 1q20 0 35 -23t26.5 -58.5t19.5 -77t13 -79t7 -65t3 -34.5q1 -15 1.5 -30.5t0.5 -31.5q0 -26 -1.5 -52.5t-3.5 -52.5q25 -14 52 -14q35 0 72 23q4 3 10 3 q8 0 12.5 -5.5t4.5 -12.5q0 -10 -9 -15z"/>
<glyph glyph-name="X" horiz-adv-x="666" unicode="X" d="M776 673q10 -6 10 -15q0 -8 -5 -13.5t-13 -5.5q-6 0 -9 2q-9 6 -22 6q-21 0 -58.5 -18.5t-104.5 -64.5q-76 -52 -155.5 -123t-151.5 -150q27 -39 55 -72.5t54.5 -59t51 -40.5t45.5 -16h4q27 0 54.5 12.5t50 28t38 31t19.5 21.5q5 8 14 8q8 0 13.5 -5t5.5 -13q0 -6 -3 -10 q-5 -8 -22.5 -25.5t-44 -36t-59 -32.5t-66.5 -14h-6q-25 1 -53 16.5t-57 42t-59 61.5t-59 76q-41 -45 -77 -90.5t-67 -88.5t-54.5 -82t-38.5 -72q-2 -6 -6.5 -8.5t-9.5 -2.5q-7 0 -13 5t-6 13q0 2 2 8q16 35 40.5 76t56.5 86t70.5 92t80.5 94q-41 59 -77.5 122t-65.5 118 t-48 97t-25 60q-1 2 -1 6q0 8 5.5 12.5t12.5 4.5q13 0 17 -13q6 -20 25 -61t46.5 -93t62.5 -111t73 -114q73 79 152.5 149.5t155.5 122.5q64 44 107 66.5t76 22.5q22 0 39 -10z"/>
<glyph glyph-name="Y" horiz-adv-x="624" unicode="Y" d="M507 84q-68 -52 -125 -97t-98.5 -90.5t-65.5 -94t-26 -106.5v-13q0 -75 26.5 -119t67.5 -44q8 0 12 1q51 8 85.5 40.5t56 81t33.5 107t18 118.5t9 116t7 100zM743 220q-44 -15 -94.5 -42.5t-103.5 -65.5q-8 -86 -14 -166t-14.5 -149.5t-23 -127t-38.5 -98.5t-61 -63.5 t-91 -22.5q-5 0 -9.5 -0.5t-9.5 -0.5q-33 0 -57 17.5t-40 46.5t-23.5 65t-7.5 74v10q2 66 30 121.5t75.5 107.5t111.5 102t138 104q3 29 6.5 69.5t8.5 87.5t11 96.5t13 96.5q-26 -47 -56.5 -97.5t-63.5 -99t-66 -92.5t-64.5 -77t-59 -52.5t-48.5 -19.5q-2 0 -3.5 0.5 t-3.5 0.5q-24 4 -42.5 25t-32.5 53.5t-23.5 74.5t-15 89.5t-8 98t-2.5 99.5t2 95t5.5 83.5t7.5 64.5t8 39t17 12q7 0 12.5 -4.5t5.5 -12.5q0 -5 -1 -7q-4 -12 -7.5 -37t-6.5 -59.5t-4.5 -77.5t-1.5 -89v-50.5t2 -51.5q1 -12 2.5 -39t5.5 -60.5t10.5 -69t16.5 -65.5t23.5 -51 t32.5 -24h3q16 0 39.5 20t50 51t53.5 68t50 70t39 58t21 33q4 6 18 29.5t32 55t38 67t36 67.5q9 41 19.5 67t21.5 31q7 3 12 3q8 0 11 -6.5t3 -14.5t-1 -15t-3 -12q-5 -13 -12.5 -30t-17.5 -38q-20 -82 -32 -193t-23 -233q48 32 94.5 56.5t87.5 38.5q2 1 7 1q8 0 12.5 -5.5 t4.5 -12.5q0 -13 -12 -17z"/>
<glyph glyph-name="Z" horiz-adv-x="561" unicode="Z" d="M96 -7h-1q-8 0 -13 -8t-5 -16t6 -8q9 0 40 29zM1105 -80q-20 -21 -55.5 -38.5t-78.5 -31t-90.5 -21t-91.5 -7.5h-19q-32 1 -72 9t-85 20t-93 26.5t-96 29.5q-57 18 -125.5 40.5t-134.5 35.5q-29 -28 -50 -43t-32 -15h-1q-20 2 -29.5 14.5t-9.5 29.5q0 21 13.5 40t39.5 19 h3q13 -1 27 -2.5t29 -4.5q43 44 104 116t129 162.5t137.5 195.5t129.5 216q-118 14 -236.5 23.5t-236.5 24.5q23 -20 31 -34q2 -6 2 -8q0 -8 -6 -13.5t-13 -5.5q-10 0 -15 11q-5 10 -27.5 27.5t-48.5 33.5h-1q-8 1 -23.5 2.5t-30.5 5.5t-26.5 11.5t-11.5 21.5q0 11 7.5 17 t17.5 6q15 0 37 -8.5t45 -22.5q22 -3 46.5 -6t46.5 -5t39.5 -4t26.5 -3q48 -5 100.5 -10t104 -10t100 -10t90.5 -10q15 29 28.5 57t26.5 57q7 15 20 15q8 0 15 -7t7 -19q0 -6 -1 -9q-2 -9 -8.5 -26.5t-16.5 -36.5t-22 -36t-25 -26q-56 -106 -122.5 -209.5t-134 -196 t-131 -168.5t-114.5 -128q32 -8 65 -17t64.5 -19t60 -19t51.5 -16q49 -15 96.5 -30t91 -26.5t81 -19t67.5 -8.5h18q42 0 86.5 7.5t84 19.5t71 28t48.5 33q6 6 13 6q8 0 13.5 -5.5t5.5 -13.5q0 -6 -6 -12z"/>
<glyph glyph-name="bracketleft" horiz-adv-x="286" unicode="[" d="M208 -256h-25.5t-29.5 1h-2q-6 0 -20 0.5t-29 3t-26.5 7.5t-11.5 14q0 7 5 13l1 7q2 14 2 29v29q0 24 -0.5 48t-1.5 48q-1 75 -2.5 168t-3.5 191t-4.5 192t-4.5 167.5t-3.5 119.5t-1.5 48q0 11 13.5 16.5t30.5 8t33 2.5h22q16 1 30.5 1.5t26.5 0.5h26h1q9 0 13.5 -5.5 t4.5 -11.5q0 -7 -4.5 -12.5t-13.5 -5.5q-13 -1 -26 -1q-11 -1 -26 -1t-30 -1q-17 -1 -33 -1.5t-32 -2.5q6 -220 12 -436.5t8 -436.5q1 -20 1 -39v-39v-39t-2 -39v-3q24 -3 48 -4t48 -1h32q9 0 13.5 -5.5t4.5 -12.5t-4.5 -12.5t-12.5 -5.5h-1h-25z"/>
<glyph glyph-name="backslash" horiz-adv-x="297" unicode="\" d="M294 -58q2 -6 2 -8q0 -8 -6 -13.5t-14 -5.5q-10 0 -15 11q-19 40 -41.5 98t-45.5 125t-47 140t-46 144q-22 70 -41.5 134.5t-34.5 115t-24.5 83.5t-12.5 41q-1 2 -1 7q0 8 5.5 12.5t12.5 4.5q13 0 17 -12q3 -8 13 -41t25 -84t34.5 -115.5t41.5 -134.5t45 -142t46.5 -139 t45.5 -124t41 -97z"/>
<glyph glyph-name="bracketright" horiz-adv-x="286" unicode="]" d="M231 -226q0 -11 -13.5 -17t-31 -8t-33.5 -2.5t-22 -0.5q-16 -1 -31 -1.5t-26 -0.5h-26h-1q-8 0 -12.5 5t-4.5 12t4.5 12.5t13.5 5.5q13 0 26 1q11 0 25.5 0.5t30.5 1.5q17 1 33 1.5t32 2.5q-6 220 -12.5 436.5t-8.5 436.5q0 20 -0.5 39t-0.5 39t0.5 39t1.5 39v3 q-32 5 -63.5 5.5t-63.5 0.5q-9 0 -13.5 5.5t-4.5 12.5t4.5 12.5t12.5 5.5h1h25q11 0 25 -0.5t29 -1.5h2q6 0 20 -0.5t29 -3t26.5 -7.5t11.5 -14q0 -7 -5 -13v-7q-2 -17 -2 -34.5v-35.5v-42t1 -42q1 -75 3 -168t4 -191t4.5 -191.5t4.5 -167.5t3.5 -119.5t1.5 -47.5z"/>
<glyph glyph-name="asciicircum" horiz-adv-x="480" unicode="^" d="M371 408l-130 247h-2l-130 -247h-40l168 304h6l168 -304h-40z"/>
<glyph glyph-name="underscore" horiz-adv-x="500" unicode="_" d="M500 -206v-30h-500v30h500z"/>
<glyph glyph-name="grave" horiz-adv-x="500" unicode="`" d="M271 332q-2 -13 -17 -13q-8 0 -16 4q-14 6 -30 14.5t-30.5 18t-26.5 19t-17 17.5q-3 4 -3 9q0 7 5.5 11.5t11.5 4.5q8 0 13 -8q3 -4 13.5 -12t24 -17t28.5 -17t27 -12h2q7 0 11 -5t4 -11v-3z"/>
<glyph glyph-name="a" horiz-adv-x="345" unicode="a" d="M416 57q-1 -1 -2 -3t-2.5 -3.5l-3.5 -3.5q-28 -31 -49 -44t-38 -13q-16 0 -28.5 10t-23 27t-20 39.5t-19.5 46.5q-10 -14 -25 -34t-33 -39t-38.5 -32t-41.5 -13q-12 0 -21 4q-25 11 -35.5 30t-10.5 44q0 30 14.5 64.5t37 64.5t50.5 51.5t56 25.5q2 0 4.5 0.5t4.5 0.5 q19 0 38.5 -9.5t33.5 -21.5q6 -5 6 -13t-5 -13.5t-13 -5.5q-5 0 -12 5q-21 20 -46 20q-26 0 -50 -19.5t-43 -46t-30 -55t-11 -46.5v-1q1 -20 10 -31t23 -11q11 0 24 8q15 10 31.5 29.5t32.5 40t28.5 35.5t20.5 16h2q15 0 25 -21t19.5 -46t19.5 -46t25 -21h1q8 0 19 8 t21 17.5t17.5 17.5t8.5 10q6 7 13 7q8 0 14 -5.5t6 -13.5q0 -4 -5 -11z"/>
<glyph glyph-name="b" horiz-adv-x="441" unicode="b" d="M526 164q-14 -14 -34 -32t-42.5 -37t-45.5 -37t-42 -30l-1 -1q-16 -16 -35.5 -29.5t-39 -24.5t-38 -18.5t-33.5 -10.5q-4 -1 -12 -1q-12 0 -17 5.5t-5 12.5q0 8 4 13.5t12 5.5q2 0 8 -2l2 1q18 3 46.5 17.5t55.5 34.5t46.5 43t19.5 45q0 4 -2 12q-8 24 -25.5 41.5t-41 29 t-51.5 18t-56 8.5q-3 -74 -9 -144q0 -6 -0.5 -21.5t-3.5 -31t-9 -28t-18 -12.5h-1q-9 1 -13 6.5t-4 11.5q0 9 5 13q4 17 7 42t5 53.5t3 57.5t1 54q-45 -2 -78 -13t-39 -30q0 -4 2 -4q7 -2 10 -7t3 -10q0 -7 -4.5 -13t-12.5 -6q-1 0 -2 0.5t-3 0.5q-9 3 -19 12t-10 25 q0 7 1 10q3 16 16.5 29t34 22t46.5 14t55 6v11q1 31 1 61.5v60.5q0 82 -2 160t-7 150v2q0 8 5.5 13t12.5 5q16 0 18 -17q5 -84 8.5 -162t3.5 -160q0 -30 -0.5 -61t-1.5 -63q33 -2 66 -10.5t61 -23.5t49 -37t31 -52q4 -9 4 -21q0 -3 -0.5 -5.5t-0.5 -5.5q26 21 50.5 42.5 t39.5 36.5q6 6 13 6q8 0 13.5 -5.5t5.5 -13.5q0 -6 -6 -12z"/>
<glyph glyph-name="c" horiz-adv-x="297" unicode="c" d="M361 112q-14 -19 -35.5 -40.5t-49.5 -41t-62.5 -34.5t-73.5 -20q-4 -1 -14 -1q-18 0 -35 5.5t-30.5 17.5t-22 29.5t-8.5 41.5q0 14 3 29q6 29 24.5 56t42 48t48.5 34t43 13h5q8 -1 12 -6t4 -11q0 -8 -5 -13.5t-13 -5.5h-5q-9 0 -27 -10t-37 -27t-35.5 -39t-21.5 -47 q-1 -5 -1.5 -10.5t-0.5 -10.5q0 -30 18 -44t41 -14q3 0 5.5 0.5t5.5 0.5q34 4 64 17t55 30.5t44.5 37.5t32.5 37q6 7 14 7q7 0 13 -5t6 -13q0 -6 -4 -11z"/>
<glyph glyph-name="d" horiz-adv-x="483" unicode="d" d="M547 41q-26 -38 -60.5 -64.5t-69.5 -27.5h-2q-27 0 -51.5 19.5t-42.5 65.5q-10 26 -16 59t-11 71q-9 -31 -24 -62t-34 -56t-42.5 -40.5t-48.5 -15.5h-4q-24 1 -43 14t-32.5 33.5t-21 46t-7.5 51.5q0 28 9.5 53t30.5 42q17 13 42 13q19 0 38.5 -6t36 -14.5t28 -17 t13.5 -13.5q2 -6 2 -8q0 -8 -6 -13t-13 -5q-5 0 -9.5 2.5t-6.5 8.5q-1 2 -9.5 7t-21 10t-27 9t-26.5 4q-13 0 -19 -5q-14 -11 -20.5 -28t-6.5 -37t5.5 -39.5t15.5 -35.5t22.5 -26t27.5 -11h2q16 0 34.5 14t35 38t30 55.5t21.5 66.5q5 26 10 54.5t10 58.5v45q0 79 3.5 140 t6.5 120q0 8 1 26t2.5 38.5t3.5 39t5 27.5q6 16 16 16q9 0 17 -10.5t10 -25.5q1 -9 1.5 -22t0.5 -30q0 -47 -2 -91t-6 -88t-10 -90t-13 -97q1 -54 5 -111t14 -104.5t28 -78t46 -30.5t62 30q16 14 27 27t14 18q5 8 15 8q7 0 12.5 -4.5t5.5 -12.5q0 -6 -4 -11z"/>
<glyph glyph-name="e" horiz-adv-x="300" unicode="e" d="M230 216q0 11 -7 17.5t-22 6.5q-19 0 -37.5 -8.5t-35 -22.5t-30 -32t-21.5 -38q10 -3 19.5 -5t19.5 -2q8 0 12 1q23 3 42 12t32 21t20.5 24.5t7.5 23.5v2zM350 94q-11 -17 -31.5 -37t-48 -37.5t-60.5 -29.5t-70 -12q-28 0 -48.5 10t-34 26t-20 37t-6.5 44q0 6 0.5 12.5 t1.5 12.5q-5 5 -5 12q0 13 13 18q11 30 31 53t42.5 39.5t45.5 25t41 8.5q35 0 49 -15.5t16 -38.5v-5q0 -31 -26 -63t-69 -47q-13 -5 -27.5 -8t-29.5 -3q-21 0 -47 8q-1 -5 -1 -9v-9q1 -32 23 -52t51 -20q30 0 57.5 9.5t51.5 24.5t42 32.5t29 33.5q5 8 14 8q8 0 13.5 -5 t5.5 -13q0 -6 -3 -10z"/>
<glyph glyph-name="f" horiz-adv-x="316" unicode="f" d="M340 238q5 -7 5 -12q0 -8 -5.5 -13.5t-13.5 -5.5q-1 0 -2 0.5t-2 0.5h-2q-26 -4 -40.5 -10t-39.5 -12q-6 -2 -9.5 -2h-5.5q-4 0 -5 1t-5 1q-6 0 -22 -4q4 -47 7.5 -89.5t3.5 -80.5q0 -12 -0.5 -24t-1.5 -23q-8 -83 -27 -135t-40 -82t-41 -42.5t-31 -15.5q-2 -1 -6 -1 q-8 0 -12.5 5.5t-4.5 12.5q0 13 13 17q4 1 19.5 9.5t33.5 34.5t35 73.5t25 126.5q2 11 2 23v25q0 35 -3 75t-7 84q-31 -7 -57 -11t-61 -10h-4q-8 0 -12.5 5.5t-4.5 12.5q0 6 3.5 11t11.5 7q35 6 61 9.5t60 11.5q-2 17 -3.5 32t-2.5 28q-2 18 -5 44.5t-6 58.5t-5.5 68 t-2.5 72q0 48 6 94.5t21 83t41 60.5t67 27h9q42 0 58 -28.5t16 -70.5q0 -30 -6 -64t-14.5 -64.5t-17 -54.5t-13.5 -35q-4 -11 -16 -11q-7 0 -13 5t-6 13q0 1 2 7q4 10 12.5 33.5t16.5 52.5t14 60.5t6 57.5q0 28 -9 46t-31 18h-5q-30 -2 -50 -22.5t-31 -52.5t-15.5 -73 t-4.5 -84q0 -37 2.5 -73t5.5 -68t6 -57t4 -40q1 -12 2 -26t3 -29q23 5 32.5 7t17 3t17.5 3t33 7q6 2 14.5 3.5t16.5 1.5q14 0 19 -6z"/>
<glyph glyph-name="g" horiz-adv-x="261" unicode="g" d="M368 -216q0 -49 -20.5 -88.5t-53.5 -67.5t-75.5 -43.5t-86.5 -16.5q-11 0 -25.5 2t-28 7t-25 13t-17.5 19q-2 3 -2 9q0 8 5.5 13t13.5 5q10 0 15 -9q12 -12 26.5 -17t31.5 -5h4q35 0 71 12t65 35t47.5 56.5t18.5 75.5q0 20 -16.5 39t-41.5 36.5t-54.5 34t-55.5 31.5 t-44.5 28.5t-21.5 25.5q-1 4 -1 11q0 23 18 37q-27 2 -42.5 12t-23.5 22.5t-10 26.5t-2 25q0 24 12.5 46.5t31 40t41 28t43.5 10.5q12 0 25 -5q11 -6 11 -16q0 -8 -4.5 -13.5t-12.5 -5.5q-2 0 -8 2t-10 2q-12 0 -28.5 -7.5t-30.5 -19.5t-24 -28t-10 -34q0 -27 10.5 -39 t27.5 -12q19 0 42.5 13.5t43.5 36.5t34 52t14 61q0 20 -13.5 30.5t-30.5 15.5q-5 0 -11.5 0.5t-13.5 1.5l-16 2q-10 1 -14.5 6.5t-4.5 11.5q0 7 5.5 12.5t16.5 5.5h2q7 -1 14 -1t14 -1q4 8 18 28t31.5 41t35.5 37t31 16q9 0 13 -4.5t4 -10.5q0 -5 -3 -11t-10 -9 q-24 -13 -47 -42t-38 -55q22 -9 37.5 -27t15.5 -47q0 -25 -11 -55.5t-29.5 -58.5t-42.5 -50t-50 -30q5 -5 5 -13q0 -13 -11 -17q-9 -4 -9 -11v-3q6 -8 24 -17t38 -18t39 -17.5t27 -14.5q16 -13 35 -27t35 -30.5t26.5 -36t10.5 -42.5z"/>
<glyph glyph-name="h" horiz-adv-x="351" unicode="h" d="M419 -19q-29 -21 -61 -21t-59 18.5t-40 51.5q-10 27 -14.5 53.5t-7.5 52t-6 50t-10 47.5q-17 -17 -33.5 -50t-32 -68.5t-30 -66t-27.5 -41.5q-2 -2 -5.5 -4t-9.5 -2q-5 0 -7 1q-20 8 -29 57.5t-9 124.5q0 60 5.5 131t15.5 142.5t24 139t31 120.5q4 12 16 12q8 0 14 -5 t6 -13q0 -4 -1 -6q-20 -63 -34.5 -136t-23.5 -146.5t-13 -142t-4 -122.5q0 -40 2 -69t6 -43q12 20 26 51t29 63t31 59.5t31 41.5q13 12 24 12q14 0 23 -13.5t13 -29.5q11 -47 14 -94.5t20 -93.5q8 -22 26 -33.5t38 -11.5q23 0 40 13q5 4 11 4q8 0 13 -6t5 -13q0 -8 -7 -14z "/>
<glyph glyph-name="i" horiz-adv-x="177" unicode="i" d="M216 83q-11 -13 -20.5 -28.5t-20.5 -28.5t-25 -22t-33 -9h-6q-38 3 -51 33.5t-13 70.5q0 38 6.5 75t8.5 60q1 8 9 16.5t16 8.5q10 0 11 -19v-4q0 -11 -2 -22.5t-4 -22.5t-5.5 -37t-3.5 -53t6.5 -47.5t24.5 -22.5h2q12 0 22 9t19 21t17 25t15 21q5 6 13 6t13.5 -5t5.5 -13 q0 -5 -5 -12zM157 506q1 -3 1 -10q0 -10 -4.5 -21t-17.5 -19q-5 -3 -10 -3q-8 0 -12.5 5.5t-4.5 13.5q0 10 8 15q1 1 2 1.5t2 1.5q-13 4 -13 16q0 9 7 17t18 8q3 0 9 -2q7 -3 10 -9.5t5 -13.5z"/>
<glyph glyph-name="j" horiz-adv-x="162" unicode="j" d="M121 -137q0 -51 -7.5 -98.5t-29 -83.5t-61.5 -58t-105 -22q-28 0 -48 6t-36.5 16.5t-32.5 25t-35 31.5q-7 7 -7 15t4.5 13.5t11.5 5.5q6 0 11 -4q18 -15 31.5 -28t28 -23t31.5 -16t41 -6q55 0 88 19t50.5 49.5t23 70.5t5.5 82v19q0 28 -2.5 65.5t-5.5 78.5t-5 82.5 t-2 79.5q0 30 1.5 55t6.5 44q3 14 17 14q7 0 12.5 -5t5.5 -13v-4q-4 -17 -5.5 -39.5t-1.5 -50.5q0 -37 2 -79.5t5 -84t5.5 -79t2.5 -64.5v-14zM154 585q-5 -8 -11.5 -15t-12.5 -10q-3 -2 -9 -2q-8 0 -13 5.5t-5 13.5q0 9 10 15l6 6q-4 4 -4 12q0 7 4.5 12.5t13.5 5.5h1 q13 -1 19 -8t6 -17q0 -8 -5 -18z"/>
<glyph glyph-name="k" horiz-adv-x="305" unicode="k" d="M367 -17q11 -5 11 -15q0 -7 -5.5 -13t-13.5 -6q-2 0 -8 2q-4 2 -23 13.5t-44.5 29t-54.5 38t-53 41.5t-40 40t-16 32q0 5 2 8q6 9 20 11t23 4q15 3 32 9.5t31.5 16.5t24 24t9.5 33q0 22 -23 22q-14 0 -34 -10t-40 -27q-14 -12 -26 -28t-21 -35q-18 -39 -26.5 -82 t-15.5 -85q-2 -8 -7 -12.5t-11 -4.5q-16 0 -18 20q-1 15 -1 32v35q0 55 2 118.5t5.5 128.5t8 128.5t10 118t11.5 97t13 65.5q4 13 17 13q7 0 12.5 -4.5t5.5 -12.5q0 -4 -1 -6q-8 -29 -16 -88.5t-14 -136t-10.5 -162.5t-6.5 -168q10 25 22 46.5t29 38.5q39 42 100 55 q10 2 14 2q24 0 40.5 -17.5t16.5 -41.5q0 -26 -11.5 -46t-29.5 -34t-40.5 -23.5t-44.5 -13.5l-5 -2l5 -5q18 -18 42.5 -38.5t51 -40.5t53 -37t48.5 -27z"/>
<glyph glyph-name="l" horiz-adv-x="210" unicode="l" d="M221 631q0 7 -0.5 21t-2 27.5t-4.5 24t-9 10.5q-16 0 -35 -22.5t-38 -65t-35.5 -104t-26.5 -139.5q-2 -19 -5 -50.5t-3 -69.5q0 -29 3 -58.5t9 -57.5q27 57 52.5 116t46 119t33.5 121.5t15 123.5v4zM274 48q-3 -5 -11 -14.5t-20 -18.5t-28.5 -16t-37.5 -7h-6 q-40 2 -67.5 24.5t-45 60.5t-25 87.5t-7.5 105.5q0 86 15.5 171.5t41 154t57.5 111t64 43.5h1q29 0 40.5 -27t11.5 -66q0 -32 -5 -67t-12 -66.5t-13 -55t-8 -30.5q-17 -62 -37 -119.5t-39 -103t-33.5 -76.5t-19.5 -41l-1 -1q13 -29 33 -48t51 -21h4q14 0 25 4.5t19.5 11 t14 13t7.5 10.5q5 8 15 8q8 0 13.5 -4.5t5.5 -12.5q0 -6 -3 -10z"/>
<glyph glyph-name="m" horiz-adv-x="561" unicode="m" d="M625 106q-4 -7 -8 -15q-4 -7 -9.5 -15.5t-11.5 -17.5q-22 -31 -40.5 -44.5t-33.5 -13.5q-25 0 -41 32t-23 84q-3 21 -5 41.5t-4 41.5q-13 -17 -29 -50.5t-32.5 -67.5t-33 -62t-31.5 -35q-8 -3 -13 -3q-17 0 -27.5 18t-17 41.5t-9.5 45t-4 27.5q-4 25 -6 49.5t-13 47.5 q-11 -1 -24.5 -14t-27.5 -33t-28 -44t-27 -47t-24.5 -41.5t-20.5 -27.5q-7 -7 -14 -7q-8 0 -13 4q-6 5 -7.5 12t-1.5 15q0 24 3.5 62.5t8.5 78.5t10.5 77t10.5 58q3 14 17 14q7 0 12.5 -5t5.5 -13v-4q-4 -17 -8.5 -44t-8.5 -58t-7.5 -63.5t-5.5 -59.5q11 20 21.5 39t15.5 26 q7 11 19 30t27 37t32.5 31t35.5 13q5 0 13 -2q12 -4 19.5 -21t12 -37t6.5 -39.5t3 -28.5q3 -22 7.5 -50.5t16.5 -47.5q8 9 18.5 29.5t22.5 45.5t25 51.5t26.5 48.5t27 36t27.5 14q1 0 2 -0.5t3 -0.5q11 -2 16.5 -19t8 -38t3.5 -40.5t2 -26.5q0 -3 2.5 -16.5t6 -28.5t9 -27 t11.5 -12h1q9 1 20.5 14t22 28.5t18.5 29t9 15.5q4 9 15 9q7 0 13 -4.5t6 -12.5q0 -5 -3 -9z"/>
<glyph glyph-name="n" horiz-adv-x="354" unicode="n" d="M410 76q-3 -5 -7 -9q-4 -5 -8.5 -10t-9.5 -10q-16 -17 -29 -24t-24 -8h-1q-15 0 -25 12t-17 30.5t-12 41t-9 44.5t-8.5 40t-9.5 28q-19 -15 -41 -45.5t-43 -62.5t-40 -59t-32 -34q-7 -4 -14 -4q-11 0 -17.5 12t-10 27.5t-4.5 30.5t-1 22q0 29 3.5 65t9.5 75q2 8 7 12 t11 4q7 0 12.5 -4.5t5.5 -12.5v-4q-6 -38 -9.5 -72.5t-3.5 -62.5q0 -25 4 -45q10 12 31 44t45.5 66t48.5 60t41 26h2q14 -2 23 -16t15 -34t10 -44t8 -45t9 -37t13 -21q4 0 11 6.5t14.5 14.5t14 15.5t8.5 9.5q6 7 14 7t13.5 -5t5.5 -13q0 -6 -4 -11z"/>
<glyph glyph-name="o" horiz-adv-x="278" unicode="o" d="M357 183q-29 -9 -61.5 -9.5t-62.5 -4.5q33 -36 33 -71v-1q0 -27 -14 -50.5t-36.5 -41.5t-49.5 -28.5t-54 -10.5h-3q-34 0 -60 19.5t-34 64.5q-1 4 -1 12q0 27 13.5 59t33.5 59.5t42 46.5t39 19q9 0 13.5 -5.5t4.5 -12.5t-4.5 -12.5t-13.5 -5.5q-6 0 -21.5 -15 t-31.5 -36.5t-28 -47t-12 -46.5q0 -2 0.5 -4.5t0.5 -4.5q5 -29 22.5 -42t40.5 -13q18 0 38 7.5t36.5 20.5t28 30t13.5 36v5q0 14 -7.5 25t-16.5 20l-16.5 16.5t-7.5 14.5q0 15 22 22t50.5 10t55.5 4.5t38 4.5q2 1 6 1q8 0 12.5 -5.5t4.5 -12.5q0 -13 -13 -17z"/>
<glyph glyph-name="p" horiz-adv-x="398" unicode="p" d="M391 175q-3 -40 -19.5 -67.5t-40.5 -44.5t-52 -24.5t-53 -7.5q-28 0 -46 7q-12 4 -12 17q0 7 4.5 12.5t12.5 5.5q5 0 7 -1q15 -6 36 -6q20 0 41.5 6t40 19.5t31.5 34.5t15 51v3q0 9 -5 22.5t-15 26t-25.5 21.5t-36.5 9q-30 0 -53 -22t-41 -58.5t-31 -84.5t-21.5 -100.5 t-14 -105.5t-8.5 -100q-3 -57 -4.5 -97.5t-1.5 -45.5v-1q0 -9 -5.5 -13.5t-12.5 -4.5t-12.5 4.5t-5.5 13.5v2q1 22 2 66.5t5 103.5q3 51 4.5 102t2.5 89v23q0 19 -0.5 44.5t-3 51t-6 48t-9.5 35.5q-6 6 -6 13t5 13t13 6q7 0 14 -7t12 -25q8 -25 11 -55t5 -62q12 43 27 80 t35 64.5t44.5 43t55.5 15.5t53 -12.5t36.5 -30.5t21 -37.5t6.5 -34.5v-5z"/>
<glyph glyph-name="q" horiz-adv-x="380" unicode="q" d="M444 -197q-20 -2 -31.5 -7.5t-24 -20t-30.5 -41t-52 -69.5q-2 -22 -4.5 -35.5t-4.5 -15.5q-15 -15 -33 -15q-12 0 -21 6.5t-9 16.5q0 7 6 15q7 10 15.5 21t17.5 23q4 39 7.5 65t6 50t4.5 50l5 65q3 47 4.5 83t1.5 73q0 24 -0.5 49.5t-1.5 56.5q-11 -20 -22 -42t-16 -30 q-11 -19 -25.5 -38.5t-31.5 -35t-37 -25.5t-42 -10h-8q-19 2 -34 12.5t-25 27t-15.5 37t-5.5 41.5q0 4 0.5 7t0.5 7q3 34 16 70.5t32.5 66.5t44 49.5t49.5 19.5q7 0 10 -1q14 -3 23.5 -12t15.5 -22.5t9 -30t3 -33.5q0 -23 -4 -43.5t-11 -32.5q-4 -9 -15 -9q-7 0 -13 5t-6 13 q0 6 2 9q3 5 6 24t3 41q0 20 -4.5 37t-15.5 19h-3q-12 0 -29.5 -13.5t-33.5 -37t-28 -54.5t-15 -67v-11q0 -38 15 -59.5t32 -23.5h6q23 0 42.5 15.5t36 38.5t30.5 50t27 50t24.5 38.5t22.5 16.5q8 0 13 -7t8 -17.5t4 -24.5t1 -27q0 -19 -1 -34t-1 -20q0 -17 -1.5 -54 t-4 -87.5t-6.5 -111t-10 -123.5q25 31 39 50.5t25 31.5t24.5 17.5t38.5 8.5h3q8 0 12.5 -5.5t4.5 -12.5q0 -6 -4 -11.5t-12 -6.5z"/>
<glyph glyph-name="r" horiz-adv-x="332" unicode="r" d="M391 257q-1 -8 -6 -12t-11 -4q-7 0 -12.5 4.5t-6.5 12.5q-6 7 -17 7q-18 -1 -43 -19.5t-49.5 -48.5t-43.5 -66.5t-25 -73.5v-45q-1 -10 -6 -14.5t-12 -4.5q-6 0 -11.5 4.5t-6.5 13.5q-1 6 -1 12v12v12t1 12q-2 22 -6.5 44t-14.5 39.5t-25.5 28.5t-39.5 11h-10t-11 -2h-5 q-8 0 -12.5 5.5t-4.5 12.5q0 5 3.5 10t11.5 7q13 3 27 3q38 0 66 -22t43 -60q14 29 33 56t41 50q30 32 55.5 45t46.5 13h7q18 -2 31.5 -13.5t13.5 -25.5v-4z"/>
<glyph glyph-name="s" horiz-adv-x="275" unicode="s" d="M299 275q0 -6 -5 -10t-13 -4t-15 4q-8 3 -15 4.5t-18 1.5q-24 0 -55.5 -6t-60 -15.5t-48 -21t-19.5 -22.5v-2q1 -8 11.5 -15.5t26 -14t34.5 -13.5t39 -14q19 -7 36.5 -14.5t31.5 -16.5t23 -20t10 -24v-3q0 -19 -15.5 -35.5t-37 -28.5t-44.5 -19t-37 -8h-2q-8 0 -12.5 5 t-4.5 12t4 12t13 6q6 0 22.5 5.5t33.5 13t30.5 17.5t13.5 19v1q-2 14 -32.5 27t-68.5 27q-19 7 -37.5 14.5t-34 16.5t-25.5 20t-13 24q-1 3 -1 8q0 22 21.5 40t53 31.5t68.5 21t69 7.5q29 0 50 -6.5t23 -22.5v-2z"/>
<glyph glyph-name="t" horiz-adv-x="222" unicode="t" d="M270 -9q-10 -11 -30 -21t-46 -10q-5 0 -10.5 0.5t-10.5 1.5q-48 9 -78 60t-30 160q0 8 0.5 16.5t0.5 17.5q1 25 5 56.5t9 66.5h-10q-23 0 -41.5 4.5t-26.5 15.5q-4 5 -4 11q0 8 5.5 13t13.5 5q9 0 14 -8q10 -6 34 -6h10t11 1q6 33 12.5 65t13 59.5t13 48.5t11.5 32 q2 6 6.5 8.5t9.5 2.5q7 0 12.5 -5t5.5 -13q0 -2 -2 -8q-5 -9 -10 -27.5t-11 -43.5t-12 -54t-12 -60q19 3 39 7t36.5 7.5t29.5 7t19 5.5q2 1 7 1q8 0 12.5 -5.5t4.5 -12.5q0 -13 -13 -17q-7 -2 -21.5 -6.5t-33.5 -9t-41.5 -8.5t-44.5 -7q-6 -35 -10 -68t-5 -59 q0 -9 -0.5 -17.5t-0.5 -16.5q0 -53 7 -87.5t18.5 -55t25 -29.5t27.5 -12q4 -1 7.5 -1h6.5q19 0 32 6.5t18 12.5t13 6t13.5 -5t5.5 -13q0 -5 -5 -12z"/>
<glyph glyph-name="u" horiz-adv-x="372" unicode="u" d="M438 60q4 -6 4 -10q0 -10 -10 -20q-15 -17 -33.5 -31.5t-42.5 -14.5q-27 0 -47.5 23.5t-30.5 66.5q-10 44 -11 96q-9 -14 -28.5 -41.5t-43.5 -54.5t-50 -47.5t-49 -20.5h-1q-17 0 -28 10.5t-17 25t-8.5 30.5t-2.5 29q0 27 5.5 55t14 51.5t19 39t20.5 18.5q2 0 3 0.5 t2 0.5q8 0 12.5 -6t4.5 -13q0 -5 -3 -10t-10 -7q-3 -1 -8.5 -12.5t-11.5 -30.5t-10.5 -43.5t-5.5 -51.5v-5q0 -20 6 -34t18 -14h1q14 0 30 12t32.5 30.5t33 40.5t30.5 43.5t25.5 39t17.5 27.5q4 6 9 12.5t13 6.5t13 -5t5 -13v-2q-1 -6 -1 -16.5v-24.5q0 -24 2 -53t7.5 -55 t15 -43.5t25.5 -18.5h1q15 0 28.5 12.5t22.5 22.5q10 10 20 10q7 0 12 -5z"/>
<glyph glyph-name="v" horiz-adv-x="305" unicode="v" d="M373 238q-8 -2 -30 -5.5t-46 -3.5h-12t-11 1v-7q0 -29 -8.5 -66.5t-24.5 -71t-40 -58.5t-55 -29h-6q-24 0 -44.5 23t-35.5 56.5t-23 72t-8 69.5q0 16 2.5 28.5t7.5 20.5t14 8q8 0 13.5 -5t5.5 -13q0 -6 -3 -10q-4 -7 -4 -25q0 -22 6.5 -54.5t17 -62.5t23.5 -51t27 -21h2 q22 3 40 24t30.5 49.5t19.5 59t7 51.5v21q-23 10 -23 33v4q2 21 21 21q8 0 17 -7t15 -23q13 -3 34 -3q14 0 29 1.5t33 6.5q2 0 3 0.5t2 0.5q8 0 12.5 -5.5t4.5 -12.5q0 -14 -13 -17z"/>
<glyph glyph-name="w" horiz-adv-x="504" unicode="w" d="M537 207q-12 -5 -24.5 -6.5t-24.5 -1.5h-10t-10 1q13 -17 18.5 -34.5t5.5 -34.5q0 -21 -9 -40.5t-23 -34t-33 -23.5t-40 -10h-4q-35 0 -70 26t-60 88q-5 -16 -16.5 -49t-27.5 -66.5t-36 -59t-41 -25.5h-2q-21 1 -33.5 19.5t-20 47t-10 62t-2.5 64.5v12q0 20 1.5 40 t3.5 40q1 11 6.5 15t11.5 4q7 0 12 -5t5 -16v-2q-3 -39 -3 -77q0 -27 1.5 -56.5t5 -54t9.5 -41t15 -16.5q8 0 19 16t22 40.5t22 53t19.5 54l14.5 43.5t7 22q2 8 7.5 12t10.5 4q12 0 17 -18q1 -3 7 -25.5t19.5 -48t34 -46t50.5 -20.5h8q32 3 48 22t16 44q0 28 -18.5 55 t-55.5 39q-13 4 -13 17q0 7 5 12.5t13 5.5q4 0 6 -1q22 -7 47 -13.5t50 -6.5q20 0 37 6q2 1 7 1q8 0 12.5 -5.5t4.5 -12.5q0 -5 -2.5 -9.5t-9.5 -6.5z"/>
<glyph glyph-name="x" horiz-adv-x="327" unicode="x" d="M366 254q-3 -14 -16 -14q-8 0 -13.5 5t-5.5 13v4q-9 6 -16 6h-3q-8 0 -15.5 -2.5t-12.5 -5.5q-36 -25 -64.5 -54t-51.5 -59q26 -25 52 -44.5t47 -24.5q7 -2 18.5 -3t23.5 -1q11 0 21 2.5t16 8.5q5 5 12 5q8 0 13.5 -4.5t5.5 -12.5q0 -12 -16 -22q-26 -15 -54 -15h-2 q-20 0 -40.5 6.5t-41 18t-39.5 26t-37 30.5q-21 -33 -36 -64t-25 -56.5t-15 -43t-6 -23.5q-3 -14 -17 -14q-7 0 -12.5 5t-5.5 13v4q1 7 7 26.5t16.5 47t27 61.5t40.5 70q-16 18 -29.5 35t-23 32t-15 27t-5.5 18v3q2 7 7 10t10 3q7 0 13 -4.5t6 -12.5q0 -1 -0.5 -2t-0.5 -3 q0 -4 17 -26t43 -50q24 32 53.5 61t66.5 55q10 7 23 10.5t27 3.5q21 0 37.5 -9.5t16.5 -29.5q0 -7 -1 -10z"/>
<glyph glyph-name="y" horiz-adv-x="393" unicode="y" d="M327 16q-23 -33 -45 -69.5t-44 -74.5q-5 -9 -23 -42t-37.5 -74.5t-35 -82.5t-15.5 -65q0 -12 4 -17q4 -2 7 -2q9 0 21.5 8t24.5 18.5t21.5 20l13.5 13.5q33 36 55 69.5t35 67t18 68t5 72.5q0 21 -1.5 43.5t-3.5 46.5zM491 198q-19 -4 -54 -41t-78 -96q5 -35 7.5 -67.5 t2.5 -62.5q0 -41 -6 -79.5t-20.5 -76t-38 -74.5t-59.5 -76q-8 -9 -20.5 -21t-27 -23t-30.5 -19t-31 -8q-13 0 -23 6q-21 11 -21 48q0 36 19.5 89.5t51.5 115.5t73 128.5t85 126.5q-6 39 -15.5 78t-22.5 78q-5 -13 -15 -37.5t-23 -53t-29.5 -58.5t-34.5 -54t-37 -39.5 t-38 -15.5h-3q-18 1 -30.5 12t-20 27.5t-10.5 38.5t-3 46q0 30 4.5 60.5t11.5 56t15.5 43t17.5 21.5q6 3 10 3q16 0 16 -17q0 -8 -7 -16q-8 -12 -14 -33t-10 -44.5t-5.5 -45.5t-1.5 -36q0 -31 6 -55t24 -26h1q14 0 30 18.5t33 47.5t33 63.5t29.5 66t22 55.5t11.5 32 q2 8 6.5 12t9.5 4q12 0 18 -15q17 -44 30 -87.5t21 -88.5q42 54 76.5 87.5t56.5 37.5h4q8 0 13 -5.5t5 -13.5q0 -14 -15 -17z"/>
<glyph glyph-name="z" horiz-adv-x="351" unicode="z" d="M341 -99q-35 -30 -71 -64t-65 -66.5t-47.5 -60t-18.5 -44.5v-4q1 0 1.5 -0.5t1.5 -0.5q7 0 23.5 8t37.5 21.5t44.5 31t44.5 37.5q28 26 47.5 54t19.5 52q0 22 -18 36zM463 -4q-13 -8 -38 -26.5t-56 -44.5q22 -22 25 -54v-5q0 -29 -20.5 -62t-51.5 -65 q-22 -22 -48.5 -42.5t-52.5 -36t-50 -25t-41 -9.5q-29 0 -29 34q0 2 0.5 5t0.5 6q2 22 21 52t48 63.5t64.5 68t70.5 65.5q-14 5 -32 8t-41 5q-11 1 -31 1t-42 1t-42 3t-30 7l-7.5 5t-6.5 9q-1 2 -1 5q0 7 5 14.5t12 14.5t14.5 12.5t11.5 8.5q8 6 24 19t35 30t39 36 t36.5 38.5t27 37t10.5 31.5q0 8 -2 11q-3 6 -18 6q-20 0 -53.5 -9t-66.5 -22t-57 -27.5t-24 -24.5v-4q0 -8 -5.5 -13t-13.5 -5q-6 0 -11 4t-6 12v4q0 20 24.5 41t60 38t76 27.5t73.5 10.5h2q28 0 45 -10t17 -32q0 -28 -29 -71q-14 -21 -33.5 -41.5t-41.5 -40.5t-44 -38.5 t-42 -34.5l-16 -13q19 -2 46.5 -2t56.5 -2.5t58 -7.5t53 -16q35 29 63.5 51t44.5 31q4 3 9 3q8 0 13 -6t5 -14q0 -10 -9 -15z"/>
<glyph glyph-name="braceleft" horiz-adv-x="274" unicode="{" d="M257 -212q-6 -7 -18.5 -16t-28.5 -17t-34.5 -13.5t-36.5 -5.5h-4q-22 1 -42.5 18t-36 43.5t-25 60t-9.5 67.5q0 24 7.5 53t18 58.5t23.5 59t23.5 54.5t18 44t7.5 30q0 16 -12 28t-27 21.5t-27 17.5t-12 15t15 14q4 1 9 4q5 2 10.5 5t11.5 7q18 12 25 20.5t7 17.5 q0 8 -3 16.5t-8 21.5q-10 28 -25 63.5t-28.5 72t-23.5 71.5t-10 62q0 34 9.5 67.5t25 60t36 43.5t42.5 18h4q18 0 36.5 -5.5t34.5 -13.5t28.5 -17t18.5 -16q4 -5 4 -11q0 -8 -5.5 -13t-13.5 -5t-14 7q-3 4 -12.5 10.5t-22 12.5t-27 10.5t-27.5 4.5h-2q-10 0 -23.5 -12 t-26 -32.5t-21 -48t-8.5 -60.5q0 -29 15.5 -73.5t33.5 -90.5t33.5 -86t15.5 -61q0 -6 -1 -8q-5 -19 -20 -33.5t-28 -22.5l-4 -3q21 -14 37 -33t16 -46q0 -21 -15.5 -57t-33.5 -78t-33.5 -85.5t-15.5 -78.5q0 -33 8.5 -60.5t21 -48t26 -32.5t23.5 -12h2q13 0 27.5 4.5 t27 10.5t22 12.5t12.5 10.5q6 7 14 7t13.5 -5t5.5 -13q0 -6 -4 -11z"/>
<glyph glyph-name="bar" horiz-adv-x="130" unicode="|" d="M47 -235v1000h35v-1000h-35z"/>
<glyph glyph-name="braceright" horiz-adv-x="292" unicode="}" d="M259 -75q0 -32 -5.5 -65.5t-19 -61t-35 -45t-54.5 -17.5q-18 0 -36.5 5.5t-35.5 13.5t-30 17t-19 16q-4 5 -4 11q0 8 5.5 13t12.5 5q8 0 14 -7q3 -4 12.5 -10.5t23 -12.5t28.5 -10.5t29 -4.5q36 0 57 42t21 111q0 29 -14 70t-31.5 83t-31.5 79t-14 57q0 6 1 8 q5 22 23 43.5t34 37.5q-22 21 -43.5 50t-21.5 61q0 19 15.5 50.5t33.5 68.5t33.5 75.5t15.5 72.5q0 33 -8.5 60.5t-21 48t-26 32.5t-23.5 12h-2q-14 0 -28 -4.5t-27 -10.5t-22.5 -12.5t-12.5 -10.5q-6 -7 -14 -7q-7 0 -12.5 5t-5.5 13q0 6 4 11q6 7 18 16t28.5 17t34.5 13.5 t36 5.5h4q22 -1 42.5 -18t36.5 -43.5t25.5 -60t9.5 -67.5q0 -35 -15.5 -76.5t-33.5 -79.5t-33.5 -68t-15.5 -43q0 -19 11.5 -35.5t25 -31t25 -26t11.5 -21.5q0 -7 -5 -11l-8 -8q-4 -4 -9.5 -8.5t-10.5 -10.5q-17 -19 -24.5 -29.5t-7.5 -21.5q0 -12 9 -36q10 -27 23.5 -59.5 t26.5 -65.5t22 -65.5t9 -59.5z"/>
<glyph glyph-name="asciitilde" horiz-adv-x="480" unicode="~" d="M408 316q-14 -27 -37.5 -47.5t-52.5 -20.5q-25 0 -46.5 8.5t-39.5 19.5q-17 11 -34.5 19t-35.5 8q-14 0 -34 -13t-35 -42l-22 22q14 26 37.5 46.5t57.5 20.5q22 0 40.5 -7t41.5 -22q17 -11 34 -18.5t35 -7.5q15 0 35 13t35 43z"/>
<glyph glyph-name="uni00A0" horiz-adv-x="180" unicode=""/>
<glyph glyph-name="exclamdown" horiz-adv-x="161" unicode="" d="M102 206q0 -28 -3 -84t-8.5 -125.5t-12 -145t-13.5 -142.5t-13.5 -118t-11.5 -72q-3 -14 -17 -14q-7 0 -12.5 5t-5.5 13v4q5 20 11 70.5t13 116.5t13.5 140.5t12 143.5t8.5 124.5t3 83.5q0 9 5.5 13.5t12.5 4.5t12.5 -4.5t5.5 -13.5zM111 334q5 -7 5 -15q0 -7 -5 -12 t-16 -6h-2q-11 0 -18 6.5t-7 15.5q0 8 6 16q8 11 19 11q16 0 18 -16z"/>
<glyph glyph-name="cent" horiz-adv-x="363" unicode="" d="M188 339q-22 -5 -40.5 -15t-32.5 -23t-22.5 -28t-9.5 -30q0 -4 -0.5 -7t-0.5 -7q0 -26 9.5 -45.5t23.5 -33t30.5 -20.5t30.5 -8q3 54 6 108.5t6 108.5zM320 136q-24 -17 -49.5 -30t-60.5 -18v-5q0 -5 -0.5 -16.5t-2 -24.5t-4.5 -24t-8 -15t-11 -4q-8 0 -12.5 5t-4.5 12 q0 4 2 8q2 14 3 29t2 29v4q-20 1 -42.5 10.5t-41.5 27t-31.5 43t-12.5 60.5v8t1 9q3 26 16 48t32.5 38.5t44 28t50.5 16.5l2 37l1 14q1 12 8.5 18t15.5 6q13 0 13 -14q0 -4 -1 -6q-1 -6 -1 -14q-1 -7 -1 -16.5t-1 -21.5q19 0 36.5 -3.5t31.5 -11.5q16 -9 16 -21 q0 -8 -6.5 -14t-14.5 -6q-9 0 -13 9q-8 5 -24 7.5t-28 3.5q-3 -55 -5.5 -109t-5.5 -109q26 5 46.5 15.5t40.5 25.5q5 4 11 4q8 0 12.5 -5t4.5 -13q0 -10 -8 -15z"/>
<glyph glyph-name="sterling" horiz-adv-x="556" unicode="" d="M190 22q-10 5 -24 11t-30 12q-17 6 -32 11t-25 5h-3q1 -11 20.5 -26.5t59.5 -17.5q8 0 16.5 1t17.5 4zM510 -52q-10 -9 -23.5 -13t-29.5 -4q-28 0 -57 7t-58 17.5t-57 23.5t-52 24q-18 -11 -38.5 -15.5t-40.5 -4.5q-21 0 -41.5 6t-36.5 15.5t-26 23t-10 30.5q0 6 1 10 q3 16 14 22t25 6q15 0 30 -4t25 -8q14 -5 39 -16t56 -25q7 6 12 14q5 9 10 15t9 11t7 10t6 11q5 11 10.5 30t10.5 57q-21 -1 -39.5 -1.5t-29.5 -1.5h-1q-8 0 -12 5t-4 11q0 7 4.5 12.5t13.5 6.5q10 0 21 1q10 0 23 0.5t28 0.5q2 14 3.5 27t3.5 27q-15 0 -28 0.5t-23 0.5 q-11 0 -22 1q-8 0 -12 5t-4 12t4.5 12.5t13.5 5.5h1q10 -1 22 -1q10 0 23.5 -0.5t28.5 -0.5q3 31 6 53t5.5 40t5.5 34.5t7 36.5q2 12 5.5 30.5t9.5 36.5t15 33t21 22q8 5 15 6.5t13 1.5q13 0 23.5 -6.5t18.5 -16.5t14 -23t9 -25t5 -23t2 -22q0 -20 -6.5 -40t-18.5 -46 q-6 -12 -17 -12q-7 0 -12 4t-5 12q0 2 2 8q11 23 16 39t5 33q0 8 -1 16.5t-4 18.5q-5 20 -14 33t-19 13q-15 0 -25 -28q-20 -57 -27.5 -114.5t-13.5 -115.5q11 0 25.5 -1t28.5 -2.5t25 -3.5t14 -6q4 -5 4 -11q0 -8 -6 -13t-14 -5q-6 0 -8 2q-18 4 -36.5 4.5t-36.5 0.5 q-2 -12 -3 -24.5t-3 -28.5h24.5t28.5 -1t26 -2.5t17 -4.5q11 -7 11 -14q0 -8 -9 -12q-5 -2 -11 -3.5t-10 -1.5h-2q-13 3 -34 4t-46 1q-5 -38 -11 -62.5t-14 -42t-18 -31t-24 -27.5q61 -26 109.5 -43.5t86.5 -18.5q19 0 27 6q6 6 13 6q8 0 12.5 -5t4.5 -12q0 -8 -6 -13z"/>
<glyph glyph-name="currency" horiz-adv-x="583" unicode="" d="M440 355q0 33 -12.5 60.5t-33.5 47t-47.5 30t-54.5 10.5q-33 0 -60.5 -12t-47.5 -32.5t-31 -47.5t-11 -56q0 -30 12 -57.5t32 -48t47.5 -32.5t57.5 -12q31 0 58 12t47 32.5t32 47.5t12 58zM500 173q-7 -7 -12.5 -13t-12.5 -13l-33 33t-32 33q-23 -20 -53.5 -31.5 t-65.5 -11.5q-25 0 -57 9t-61 34l-66 -66q-6 7 -12 13l-13 13q17 16 33.5 32t33.5 31q-17 22 -29.5 51.5t-12.5 66.5t11.5 67.5t30.5 50.5q-17 16 -33.5 31.5t-33.5 32.5l13 13t12 13l66 -66q31 24 62 33t56 9q28 0 61 -10t57 -32q16 17 32.5 33t33.5 33q7 -7 12.5 -13 t12.5 -13q-17 -17 -33.5 -32.5t-33.5 -31.5q22 -26 32 -56t10 -62q0 -36 -11.5 -65.5t-30.5 -52.5q17 -15 33.5 -31t33.5 -32z"/>
<glyph glyph-name="yen" horiz-adv-x="579" unicode="" d="M503 584q-26 -45 -53 -84t-53 -73.5t-49.5 -65t-41.5 -60.5v-9.5t0.5 -4.5t0.5 -4.5v-9.5q42 0 70.5 -2t45.5 -2q6 0 10.5 0.5t8.5 1.5q2 1 6 1q8 0 13 -6t5 -13q0 -13 -13 -17q-11 -3 -27 -3q-20 0 -49.5 2t-69.5 2v-28.5t0.5 -6t0.5 -3.5v-19q42 0 70 -2t45 -2 q6 0 10.5 0.5t8.5 1.5q2 1 6 1q8 0 13 -6t5 -13q0 -13 -13 -17q-11 -3 -27 -3q-20 0 -49 2t-69 2q0 -47 -1.5 -80.5t-4.5 -65.5q-1 -8 -6 -12t-11 -4q-8 0 -13.5 4.5t-5.5 13.5v2q3 31 4.5 63.5t1.5 78.5h-58.5t-43.5 1q-21 1 -36 2q-9 0 -13.5 5.5t-4.5 12.5t4.5 12t12.5 5 h1q1 0 37 -1t101 -1v18.5t-0.5 3.5t-0.5 6.5v28.5h-58.5t-42.5 1q-20 1 -36 2q-9 0 -13.5 5.5t-4.5 12.5t4.5 12t12.5 5h1q1 0 37 -1t100 -1v8l-1 -3v18q0 1 -2 3q-1 2 -14.5 22.5t-33 49.5t-42 63t-43 63.5t-35 51.5t-18.5 27t-4 11q0 8 6 13t13 5q8 0 14 -7q3 -4 14 -19.5 t26.5 -38t34 -49.5t37 -55t35 -53.5t29.5 -45.5q21 33 43.5 63t46 61t47.5 65t48 76q5 9 15 9q7 0 13 -4.5t6 -12.5q0 -6 -3 -10z"/>
<glyph glyph-name="brokenbar" horiz-adv-x="130" unicode="" d="M47 -235v413h35v-413h-35zM47 351v414h35v-414h-35z"/>
<glyph glyph-name="section" horiz-adv-x="536" unicode="" d="M330 291q-5 8 -17 17.5t-26 20.5q-11 9 -23.5 17t-23.5 17q-1 -1 -2 -1.5t-2 -1.5q-12 -7 -24 -17t-21.5 -21.5t-15.5 -24t-6 -22.5q0 -4 2 -10q4 -10 16 -18.5t31 -17.5q17 -8 36.5 -16.5t37.5 -17.5q3 3 5 4q5 2 12 9.5t13 18t10 22t4 22.5t-6 20zM382 540q9 -14 9 -27 q0 -18 -15 -21h-2q-6 0 -11 3t-6 11q-2 14 -14.5 24.5t-32.5 10.5h-4q-20 -1 -38.5 -8.5t-33 -18.5t-24 -25t-12.5 -28v-2q0 -12 21.5 -32t49.5 -41t54.5 -41t35.5 -32q13 -17 13 -40q0 -29 -16.5 -55.5t-32.5 -40.5q18 -14 30 -31.5t12 -40.5q0 -8 -1 -13q-5 -31 -17 -52 t-29.5 -33.5t-38 -18t-41.5 -5.5h-9q-21 1 -42 7t-37.5 15.5t-27 21.5t-11.5 25v2q0 8 6 13t13 5q14 0 16 -15q0 -5 8.5 -12t22 -13t31 -10.5t35.5 -4.5q29 0 54.5 16.5t32.5 61.5q0 2 0.5 4t0.5 4q0 23 -22.5 39.5t-55.5 31.5q-17 8 -35 16t-33 16t-28 19t-19 25 q-4 11 -4 23q0 17 8 34t19.5 32t25 26.5t25.5 19.5q-16 14 -32.5 33.5t-16.5 39.5q0 2 0.5 3.5t0.5 3.5q4 23 18.5 43t35 35t45 24t47.5 9q22 0 40.5 -8.5t31.5 -27.5z"/>
<glyph glyph-name="dieresis" horiz-adv-x="500" unicode="" d="M228 347q5 -7 5 -12q0 -7 -5.5 -12t-13.5 -5h-1q-4 -4 -11 -4q-10 0 -20 11q-5 7 -5 11q0 8 5 13t12 6q4 4 12 4q11 0 22 -12zM323 347q0 -11 -7 -18.5t-16 -7.5t-16 6q-11 8 -11 19q0 16 16 18q7 5 15 5q7 0 12.5 -5t6.5 -16v-1z"/>
<glyph glyph-name="copyright" horiz-adv-x="753" unicode="" d="M470 397q-12 38 -34 55t-55 17q-54 0 -83.5 -39.5t-29.5 -115.5q0 -74 30 -113t83 -39q71 0 94 80h56q-30 -126 -156 -126q-78 0 -124 52.5t-46 144.5q0 94 48 147.5t127 53.5q60 0 96 -28.5t51 -88.5h-57zM663 314q0 58 -22 110.5t-62 92.5q-83 83 -203 83 q-59 0 -109.5 -20.5t-90.5 -61.5q-42 -42 -63.5 -94.5t-21.5 -109.5t21.5 -107.5t62.5 -92.5t92.5 -63t108.5 -21q58 0 110 21.5t94 63.5q83 81 83 199zM376 639q67 0 126 -24.5t105 -70.5t70 -104.5t24 -125.5t-24 -124t-70 -103q-48 -47 -107 -72t-124 -25 q-66 0 -123.5 24.5t-104.5 71.5q-96 96 -96 228q0 66 24.5 124.5t72.5 106.5q46 46 103.5 70t123.5 24z"/>
<glyph glyph-name="ordfeminine" horiz-adv-x="300" unicode="" d="M196 349q8 -1 12.5 -6t4.5 -11q0 -7 -5 -12.5t-14 -5.5h-1q-8 0 -16 1t-16.5 1t-18.5 1q-6 1 -12.5 1h-12.5h-13t-13 -1q-3 -2 -9 -2q-8 0 -13 5.5t-5 13.5q0 9 10 15q5 2 15 3t23 1q24 0 50 -1.5t34 -2.5zM254 538q10 0 14 -4.5t4 -9.5q0 -8 -6 -14.5t-16 -6.5 q-5 0 -10.5 2t-11.5 8q-10 9 -15 23.5t-8 31.5q-22 -34 -51.5 -50.5t-57.5 -16.5q-30 0 -51.5 18t-22.5 50v1q0 25 17 51.5t43 49t56.5 37t57.5 14.5q37 0 54 -29q3 -5 3 -10q0 -8 -6 -12.5t-13 -4.5q-10 0 -15 9q-11 12 -28 12q-19 0 -42 -12.5t-43.5 -30.5t-34 -38 t-13.5 -35v-1q0 -16 11 -24.5t27 -8.5q13 0 28.5 6.5t30 20t25.5 34t17 49.5q2 8 7 11.5t10 3.5q7 0 12.5 -5t6.5 -14t2 -24t3 -31t5.5 -29.5t9.5 -19.5v-1h1z"/>
<glyph glyph-name="guillemotleft" horiz-adv-x="469" unicode="" d="M224 235q-12 -8 -34 -21t-45 -28.5t-42 -31.5t-26 -29l-1 -1q31 -29 67 -51t69 -47q7 -6 7 -14q0 -7 -5 -13t-13 -6q-6 0 -11 4q-4 3 -16.5 11t-29 19t-34.5 24t-33.5 25t-25.5 22.5t-11 17.5v4q0 20 21.5 42.5t49 43t55 36.5t39.5 24q4 3 10 3q8 0 12.5 -5.5t4.5 -13.5 q0 -10 -8 -15zM423 235q-12 -8 -34 -21t-45 -28.5t-42 -31.5t-26 -29l-1 -1q31 -29 66.5 -51t68.5 -47q7 -6 7 -14q0 -7 -5 -13t-12 -6q-6 0 -11 4q-4 3 -17 11t-29.5 19t-34.5 24t-33.5 25t-25.5 22.5t-11 17.5v4q0 20 21.5 42.5t49 43t55 36.5t39.5 24q4 3 10 3q8 0 13 -6 t5 -14q0 -9 -8 -14z"/>
<glyph glyph-name="logicalnot" horiz-adv-x="480" unicode="" d="M368 166v212h-292v35h327v-247h-35z"/>
<glyph glyph-name="uni00AD" horiz-adv-x="327" unicode="" d="M259 200q-36 0 -77.5 -7t-79.5 -7q-20 0 -38 3q-8 2 -11 7t-3 10q0 8 4.5 13.5t13.5 5.5h4q15 -3 34 -3q37 0 78.5 7t74.5 7q9 0 13.5 -5.5t4.5 -12.5t-4.5 -12.5t-13.5 -5.5z"/>
<glyph glyph-name="registered" horiz-adv-x="379" unicode="" d="M196 492h24q33 0 33 24t-35 24h-22v-48zM220 567q71 0 71 -49q0 -31 -36 -44l37 -74h-40l-32 69h-24v-69h-35v167h59zM221 614q-27 0 -51 -10t-41.5 -27.5t-27.5 -41.5t-10 -51t10.5 -51t28 -42t41 -28.5t50.5 -10.5t51 10.5t42 28.5t28.5 42t10.5 51t-10 51t-28 41.5 t-42 27.5t-52 10zM221 638q33 0 61 -12t49 -33t33 -49t12 -60q0 -62 -47 -109q-45 -45 -111 -45q-29 0 -57 11.5t-49 33.5q-45 46 -45 112q0 29 11.5 56t33.5 49q23 23 51 34.5t58 11.5z"/>
<glyph glyph-name="macron" horiz-adv-x="500" unicode="" d="M359 342q-20 -2 -44.5 -3t-49.5 -1q-36 0 -65.5 1t-36.5 1q-8 0 -12 5t-4 11t4 11t12 5q7 0 36 -1t65 -1q23 0 47 1t44 3h3q7 0 11 -5t4 -11q0 -5 -3 -10t-11 -6z"/>
<glyph glyph-name="degree" horiz-adv-x="360" unicode="" d="M279 441q-8 -2 -17 -18.5t-9 -33.5q0 -9 3 -16q10 7 17 26t7 33q0 7 -1 9zM331 371q-11 -6 -16.5 -10t-12.5 -8q-14 -8 -32 -12q-14 -19 -30.5 -36.5t-36.5 -28.5q-40 -23 -79 -23q-25 0 -45.5 11t-31.5 34q-9 19 -9 41q0 30 15.5 61t40 55.5t55.5 40.5t61 16 q26 0 45 -11q8 -4 8 -13q0 -6 -5 -11.5t-13 -5.5q-6 0 -9 2q-10 5 -25 5q-23 0 -47.5 -13t-45 -33.5t-34 -45t-13.5 -47.5q0 -14 6 -26q12 -26 49 -26q28 0 60 18q13 7 23 18l20 22q-2 2 -4 6q-4 9 -4 22q0 18 6.5 37.5t16 36.5t21 28t21.5 11q9 0 14 -8q4 -5 5 -12.5 t1 -15.5q0 -18 -4 -37.5t-8 -30.5q5 3 8.5 5t6.5 4t6 4.5t7 4.5q6 2 9 2q10 0 10 -13q0 -6 -2.5 -11.5t-7.5 -6.5z"/>
<glyph glyph-name="plusminus" horiz-adv-x="480" unicode="" d="M257 308v-203h-35v203h-166v35h166v203h35v-203h166v-35h-166zM56 0v35h367v-35h-367z"/>
<glyph glyph-name="twosuperior" horiz-adv-x="306" unicode="" d="M284 164q2 1 6 1q5 0 8 -3.5t3 -8.5q0 -4 -4 -7.5t-15 -3.5q-4 0 -7 1q-29 3 -57.5 7.5t-59.5 4.5h-6t-8 -2q-21 -14 -42.5 -24.5t-38.5 -15.5q-4 -2 -12 -2q-15 0 -15 11q0 8 10 17.5t33 18.5q24 11 54 16q13 8 16 11q39 27 68.5 60t30.5 63v2q0 24 -18.5 40t-49.5 18 h-10q-25 0 -47.5 -6t-39.5 -14.5t-27 -17.5t-10 -16v-2q0 -10 26 -10q6 0 9 -3.5t3 -7.5q0 -11 -12 -11q-16 0 -32.5 7.5t-18.5 24.5v3q0 15 14.5 28.5t36.5 23.5t48.5 16t51.5 6h9q38 -2 64.5 -23.5t26.5 -56.5v-2q0 -15 -8 -32t-21 -34t-30.5 -33.5t-36.5 -31.5 q26 -2 51.5 -5.5t51.5 -6.5h5z"/>
<glyph glyph-name="threesuperior" horiz-adv-x="251" unicode="" d="M235 148q-1 -15 -15 -28t-35 -22.5t-46.5 -15.5t-48.5 -6h-4q-17 1 -31 4t-24 11q-4 3 -4 8q0 11 12 11q3 0 8 -3q7 -5 18 -7.5t25 -2.5q19 0 40 5t39 12.5t29.5 17.5t12.5 21v1q0 14 -21.5 28t-74.5 25q-3 0 -13 2.5t-18 3.5q-2 -1 -4.5 -1h-4.5q-8 0 -11 4q-4 5 -4 9 q0 5 5 7t12 2h4q16 5 37.5 16.5t41 25.5t33.5 29.5t14 29.5v4q-3 13 -21.5 22t-60.5 11h-8q-20 0 -35.5 -5t-26 -11.5t-16.5 -12.5t-6 -8q0 -8 6.5 -11.5t11.5 -6.5q5 -4 5 -9q0 -11 -12 -11q-4 0 -6 2q-12 7 -20.5 14t-8.5 22q0 9 9 19.5t24 19t35 14t41 5.5h9 q46 -2 74.5 -16.5t30.5 -37.5v-3q0 -29 -42 -64q-2 -1 -8.5 -5.5t-16 -11t-21 -14t-23.5 -13.5q14 -3 30.5 -7t32.5 -11q21 -9 36 -23t15 -35v-4z"/>
<glyph glyph-name="acute" horiz-adv-x="500" unicode="" d="M373 388q-5 -8 -17 -17.5t-26.5 -19t-30.5 -18t-30 -14.5q-8 -4 -16 -4q-15 0 -17 13v3q0 6 4 11t11 5h2q12 4 27 12t28.5 17t24 17t13.5 12q5 8 13 8q6 0 11.5 -4.5t5.5 -11.5q0 -5 -3 -9z"/>
<glyph glyph-name="mu" horiz-adv-x="523" unicode="" d="M404 0q0 23 -0.5 46t-0.5 46q-26 -56 -63.5 -81t-88.5 -25h-4q-48 1 -79 21.5t-48 51.5h-2q-1 0 -1 1v-251h-32v691h32v-287q0 -42 8 -77.5t25 -61t43 -40t62 -14.5q34 0 62 16t47 43.5t29.5 65t10.5 80.5v275h33v-500h-33z"/>
<glyph glyph-name="paragraph" horiz-adv-x="505" unicode="" d="M259 568q-48 -10 -81 -28.5t-54 -42t-30 -49t-9 -48.5v-8q1 -21 9.5 -38.5t27.5 -30.5t49 -21t74 -10q7 103 10 175t4 98v3zM399 568q-23 4 -37 6t-28 2q-16 0 -40 -3q1 -2 1 -7q-1 -26 -4 -98t-10 -176q15 1 26 2.5t22 4.5t24 7t31 9h1q3 53 5.5 97t4 77t3 52.5 t1.5 24.5v2zM435 566q0 -6 -2 -35.5t-4 -73t-5 -98t-6 -109.5q-7 -130 -15 -292q0 -9 -6 -13.5t-13 -4.5t-12 4.5t-5 12.5v1l16 320q-18 -5 -30.5 -8.5t-23.5 -6.5t-22.5 -4.5t-27.5 -1.5q-2 -21 -3.5 -52.5t-3.5 -52.5q-5 -66 -8 -102.5t-6 -55.5t-6 -27t-8 -16 q-6 -10 -16 -10q-7 0 -12 4.5t-5 12.5q0 4 3 10q3 4 4.5 7t4 19t5.5 52t8 106q2 21 3.5 52.5t3.5 52.5q-98 4 -144 35.5t-50 94.5v8q0 41 21.5 79.5t60.5 68.5t93 48t118 18q20 0 40 -2t41 -6q13 -3 13 -15q0 -7 -3 -11q1 -2 1.5 -4t0.5 -5z"/>
<glyph glyph-name="periodcentered" horiz-adv-x="176" unicode="" d="M121 286q-2 -14 -12.5 -21.5t-21.5 -7.5q-9 0 -17 5.5t-11 16.5q0 1 -0.5 2t-0.5 2q0 5 2.5 8t4.5 5q-10 5 -10 15q0 7 4 12q9 10 22 10q14 0 27.5 -12t13.5 -29q0 -2 -0.5 -3t-0.5 -3z"/>
<glyph glyph-name="cedilla" horiz-adv-x="500" unicode="" d="M334 -131q0 -19 -10 -35.5t-25.5 -29t-35 -19.5t-38.5 -8q-11 0 -20.5 2t-19.5 7q-9 4 -9 14q0 6 4 11t11 5q2 0 8 -2q7 -4 18 -4h2q13 0 27 5t26 13t20 18t8 20t-9 19t-32 16q-17 5 -33 7t-21 2q-12 0 -16 6t-4 15q0 6 2 16q2 7 3.5 13.5t3.5 12.5q3 10 3 15v2 q0 2 -0.5 2.5t-0.5 1.5q0 8 5.5 12t11.5 4q13 0 16 -13q1 -2 1 -8q0 -11 -5 -23.5t-7 -23.5q61 -6 88.5 -26t27.5 -46v-1z"/>
<glyph glyph-name="onesuperior" horiz-adv-x="147" unicode="" d="M108 369q-5 -18 -11 -51t-11 -70t-9.5 -74t-7.5 -64q0 -5 -3.5 -8t-8.5 -3q-11 0 -11 11v1q2 24 5.5 55t7.5 63.5t9 63.5t10 55l-7 -6q-6 -5 -11.5 -10t-10.5 -9t-9 -9q-5 -3 -9 -3q-13 0 -13 11q0 3 4 7q5 5 10 9t10.5 9t12.5 10q1 2 6 6.5t11 9t13 8t12 3.5q8 0 11 -9 v-6z"/>
<glyph glyph-name="ordmasculine" horiz-adv-x="300" unicode="" d="M221 619q0 8 -6.5 18.5t-16.5 20t-22.5 16t-23.5 6.5q-2 0 -3.5 -0.5t-3.5 -0.5h-4q-14 0 -17 13q-29 -17 -44.5 -46t-15.5 -56v-5q1 -18 10 -31t26 -17q4 -1 14 -1q15 0 32.5 4.5t33 14.5t27 25.5t14.5 36.5v2zM196 349q8 -1 12.5 -6t4.5 -11q0 -7 -5 -12.5t-14 -5.5h-1 q-8 0 -16 1t-16.5 1t-18.5 1q-6 1 -12.5 1h-12.5h-13t-13 -1q-3 -2 -9 -2q-8 0 -13 5.5t-5 13.5q0 9 10 15q5 2 15 3t23 1q24 0 50 -1.5t34 -2.5zM256 613q-3 -25 -16.5 -46t-33 -36t-43 -23.5t-45.5 -8.5h-4q-31 1 -55 19t-31 58q-1 5 -1 9v9q0 23 8.5 45.5t23.5 41.5 t34.5 33.5t40.5 20.5q2 1 6 1q8 0 12.5 -6t4.5 -13v-2q18 -2 35.5 -11t32 -22.5t23 -30t8.5 -32.5v-6z"/>
<glyph glyph-name="guillemotright" horiz-adv-x="451" unicode="" d="M230 144q0 -20 -21.5 -42.5t-49 -43t-55 -37t-39.5 -23.5q-5 -3 -10 -3q-8 0 -13 6t-5 14q0 9 8 14q12 8 34 21t45 28.5t42 31.5t26 29l1 2q-31 29 -66.5 50.5t-68.5 46.5q-7 6 -7 14q0 7 5 13t12 6q6 0 11 -4q6 -5 30 -20.5t50.5 -34t48 -36.5t22.5 -28v-4zM413 144 q0 -20 -21.5 -42.5t-49 -43t-55 -37t-39.5 -23.5q-5 -3 -10 -3q-8 0 -12.5 5.5t-4.5 13.5q0 10 8 15q12 8 34 21t45 28.5t42 31.5t26 29l1 2q-31 29 -67 50.5t-69 46.5q-7 6 -7 14q0 7 5 13t13 6q6 0 11 -4q6 -5 30 -20.5t50 -34t47.5 -36.5t22.5 -28v-4z"/>
<glyph glyph-name="onequarter" horiz-adv-x="579" unicode="" d="M588 73q-11 -8 -37.5 -12.5t-58.5 -6.5q-6 -29 -11 -51t-5 -27v-1q0 -10 -11 -10t-11 14q0 4 1 7q2 13 6 30.5t8 37.5q-11 -1 -22.5 -1h-22.5q-22 0 -40 0.5t-29 0.5q-7 0 -22.5 -2.5t-28.5 -6.5q-6 -5 -10.5 -8.5t-9.5 -5.5q-5 -3 -9 -3q-11 0 -11 10q0 9 11 16 q4 2 7.5 4t8.5 4q20 15 45.5 38t48.5 46.5t39.5 44t19.5 31.5q1 8 10 8q5 0 8.5 -2.5t3.5 -7.5v-2q-3 -11 -15.5 -28.5t-30.5 -37.5t-39.5 -40.5t-42.5 -38.5q5 0 9 0.5t8 0.5q10 0 29 -0.5t42 -0.5h24t24 1q7 29 11.5 58t4.5 50v11t-2 9v2q0 5 3.5 7.5t8.5 2.5q10 0 11 -7 q2 -6 2 -12.5v-14.5q0 -25 -5.5 -53.5t-11.5 -51.5q27 2 48 5t29 8q3 3 7 3q12 0 12 -10q0 -4 -4 -8zM445 752q-33 -57 -62.5 -126.5t-56 -146.5t-50 -157.5t-45 -160t-41 -154.5t-37.5 -140q-4 -13 -18 -13q-7 0 -12.5 4t-5.5 12q0 4 1 6q19 67 38.5 142.5t41 155.5 t45.5 161.5t50.5 158.5t56.5 147.5t64 128.5q5 9 15 9q7 0 13 -4.5t6 -12.5q0 -6 -3 -10zM103 475q-5 -17 -10.5 -47.5t-11 -65t-9.5 -69.5t-6 -60q0 -5 -3.5 -7.5t-7.5 -2.5q-5 0 -8.5 3t-3.5 8v1q2 22 5.5 51t7.5 59t8.5 59t9.5 51l-7 -5q-6 -5 -11 -9.5t-9 -8.5t-9 -8 q-5 -3 -8 -3q-12 0 -12 10q0 4 3 7l10 8q9 7 21 18q4 3 17 14t24 11q7 0 10 -9v-5z"/>
<glyph glyph-name="onehalf" horiz-adv-x="573" unicode="" d="M552 17q2 1 6 1q10 0 10 -10q0 -4 -3.5 -7.5t-13.5 -3.5q-5 0 -7 1q-29 3 -56 7t-56 4h-6t-8 -1q-20 -14 -40 -23.5t-37 -14.5q-6 -2 -11 -2q-13 0 -15 10v1q0 7 9 16t32 17q11 5 24.5 9t27.5 6q12 7 15 10q38 26 66 56.5t29 58.5v2q0 23 -18 37.5t-48 16.5h-8 q-24 0 -46 -5.5t-38.5 -13.5t-26 -16.5t-9.5 -15.5v-1q2 -10 26 -10q11 0 11 -10t-11 -10q-15 0 -31 7t-18 23v3q0 14 13.5 26.5t34.5 22t46.5 15t49.5 5.5h9q37 -2 62 -22t25 -53v-2q-2 -29 -28.5 -61.5t-63.5 -60.5q25 -2 48.5 -5.5t49.5 -6.5h5zM445 752 q-33 -57 -62.5 -126.5t-56 -146.5t-50 -157.5t-45 -160t-41 -154.5t-37.5 -140q-4 -13 -18 -13q-7 0 -12.5 4t-5.5 12q0 4 1 6q19 67 38.5 142.5t41 155.5t45.5 161.5t50.5 158.5t56.5 147.5t64 128.5q5 9 15 9q7 0 13 -4.5t6 -12.5q0 -6 -3 -10zM103 475 q-5 -17 -10.5 -47.5t-11 -65t-9.5 -69.5t-6 -60q0 -5 -3.5 -7.5t-7.5 -2.5q-5 0 -8.5 3t-3.5 8v1q2 22 5.5 51t7.5 59t8.5 59t9.5 51l-7 -5q-6 -5 -11 -9.5t-9 -8.5t-9 -8q-5 -3 -8 -3q-12 0 -12 10q0 4 3 7l10 8q9 7 21 18q4 3 17 14t24 11q7 0 10 -9v-5z"/>
<glyph glyph-name="threequarters" horiz-adv-x="679" unicode="" d="M688 73q-11 -8 -37.5 -12.5t-58.5 -6.5q-6 -29 -11 -51t-5 -27v-1q0 -10 -11 -10t-11 14q0 4 1 7q2 13 6 30.5t8 37.5q-11 -1 -22.5 -1h-22.5q-22 0 -40 0.5t-29 0.5q-7 0 -22.5 -2.5t-28.5 -6.5q-6 -5 -10.5 -8.5t-9.5 -5.5q-5 -3 -9 -3q-11 0 -11 10q0 9 11 16 q4 2 7.5 4t8.5 4q20 15 45.5 38t48.5 46.5t39.5 44t19.5 31.5q1 8 10 8q5 0 8.5 -2.5t3.5 -7.5v-2q-3 -11 -15.5 -28.5t-30.5 -37.5t-39.5 -40.5t-42.5 -38.5q5 0 9 0.5t8 0.5q10 0 29 -0.5t42 -0.5h24t24 1q7 29 11.5 58t4.5 50v11t-2 9v2q0 5 3.5 7.5t8.5 2.5q10 0 11 -7 q2 -6 2 -12.5v-14.5q0 -25 -5.5 -53.5t-11.5 -51.5q27 2 48 5t29 8q3 3 7 3q12 0 12 -10q0 -4 -4 -8zM545 752q-33 -57 -62.5 -126.5t-56 -146.5t-50 -157.5t-45 -160t-41 -154.5t-37.5 -140q-4 -13 -18 -13q-7 0 -12.5 4t-5.5 12q0 4 1 6q19 67 38.5 142.5t41 155.5 t45.5 161.5t50.5 158.5t56.5 147.5t64 128.5q5 9 15 9q7 0 13 -4.5t6 -12.5q0 -6 -3 -10zM224 269q-1 -14 -14 -26t-33.5 -21t-44.5 -14.5t-46 -5.5h-3q-17 0 -30.5 3t-22.5 11q-4 3 -4 7t3 7.5t8 3.5q2 0 4 -1l4 -2q13 -10 41 -10q18 0 38 4.5t37 11.5t28.5 16.5t12.5 19.5 v1q0 14 -20.5 26.5t-71.5 23.5q-3 0 -13 2t-17 3q-2 0 -4.5 -0.5t-4.5 -0.5q-7 0 -10 4q-4 8 -4 9q0 5 5 6.5t12 1.5h3q15 4 36 14.5t39.5 24t32 28.5t13.5 28q0 1 -0.5 1.5t-0.5 1.5q-2 12 -19.5 20.5t-57.5 10.5h-8q-19 0 -34 -4.5t-25.5 -10.5t-16 -12t-5.5 -8 q0 -8 6.5 -10.5t11.5 -6.5q5 -3 5 -8q0 -10 -12 -10q-4 0 -6 1q-11 7 -19 13.5t-8 20.5q0 9 8.5 18.5t23 18t33 13.5t39.5 5h8q45 -3 72 -16t29 -35v-2q0 -28 -41 -60q-2 -3 -22.5 -16.5t-43.5 -25.5q13 -3 29.5 -6.5t31.5 -10.5q20 -8 34 -21t14 -33v-3z"/>
<glyph glyph-name="questiondown" horiz-adv-x="360" unicode="" d="M358 -341q-21 -33 -46 -61t-55 -49t-65.5 -33t-77.5 -12q-55 0 -96 15t-68.5 39.5t-41 56t-13.5 65.5v13q5 68 34 122t71.5 98.5t93 82.5t99.5 74q16 12 21 18q11 12 15 22.5t4 18.5q0 17 -11.5 25.5t-23.5 8.5q-5 0 -7 -1q-2 0 -3 -0.5t-2 -0.5q-8 0 -12.5 6t-4.5 13 q0 5 3 10t10 7q3 1 10 1q11 0 25 -4.5t26 -13.5t20 -22t8 -29q0 -29 -30 -65q-13 -14 -31.5 -26.5t-34.5 -23.5q-41 -29 -82.5 -63t-76 -73.5t-58 -86.5t-27.5 -101v-9q0 -26 10.5 -51t32.5 -45t56.5 -32.5t83.5 -12.5q37 0 68 11t57.5 29.5t48.5 44t40 54.5q1 1 1 5 q0 7 -7.5 17.5t-16 21t-16 20t-7.5 15.5q0 7 12 7q7 0 12 -1q4 -1 14 -8t20 -18.5t17.5 -25.5t7.5 -29q0 -13 -7 -24zM228 325q3 -5 3 -10q0 -6 -4 -11q-9 -10 -19 -10t-18 8t-8 22q0 2 0.5 3t0.5 3q5 23 24 23q12 0 20 -11q3 -5 3 -9q0 -2 -2 -8z"/>
<glyph glyph-name="Agrave" d="M517 932q-2 -13 -17 -13q-8 0 -16 4q-14 6 -30 14.5t-30.5 18t-26.5 19t-17 17.5q-3 4 -3 9q0 7 5.5 11.5t11.5 4.5q8 0 13 -8q3 -4 13.5 -12t24 -17t28.5 -17t27 -12h2q7 0 11 -5t4 -11v-3zM673 2q-2 -8 -7 -12t-11 -4q-7 0 -12.5 4.5t-5.5 12.5v4q2 14 3 32.5t1 41.5 q0 50 -4 114t-10 130q-90 -29 -180 -56t-181 -52q-36 -63 -73 -122.5t-72 -107t-67.5 -78t-57.5 -34.5q-8 -2 -14.5 -2h-12.5q-32 0 -65 15q-13 6 -13 14q0 7 7 11.5t18 4.5q8 0 12 -2q18 -7 39 -7q5 0 11 0.5t12 1.5q19 3 44.5 28t55 64.5t61.5 91.5t65 109l-44 -12 t-44 -11q-4 -1 -14.5 -4t-23.5 -6t-26.5 -5t-23.5 -2q-7 0 -13 2q-11 5 -11 16q0 7 5 13t13 6q3 0 5 -1q9 0 28 3.5t45.5 10t59 15t68.5 18.5q33 60 65 119.5t60 113t51 97.5t38 71q5 8 14 24t18 21q4 3 9 3q8 0 13 -6t5 -13q0 -10 -10 -16q-8 -9 -17 -25t-17.5 -33 t-16.5 -33.5t-13 -26.5q-11 -21 -26.5 -51.5t-34.5 -67.5t-41 -78.5t-46 -84.5q50 14 101 29.5t95.5 29t80 25t55.5 17.5q-7 69 -14 130t-13 102q-6 46 -21.5 78t-35.5 52.5t-41.5 29.5t-40.5 9h-7q-8 0 -13 5.5t-5 12.5q0 16 17 18h8q27 0 55 -12.5t52.5 -37t42.5 -62 t25 -87.5q6 -42 13.5 -105t14.5 -135q3 -5 3 -11q0 -5 -1 -7q7 -70 11 -138t4 -122q0 -24 -1 -44.5t-3 -35.5z" unicode=""/>
<glyph glyph-name="Aacute" d="M619 988q-5 -8 -17 -17.5t-26.5 -19t-30.5 -18t-30 -14.5q-8 -4 -16 -4q-15 0 -17 13v3q0 6 4 11t11 5h2q12 4 27 12t28.5 17t24 17t13.5 12q5 8 13 8q6 0 11.5 -4.5t5.5 -11.5q0 -5 -3 -9zM673 2q-2 -8 -7 -12t-11 -4q-7 0 -12.5 4.5t-5.5 12.5v4q2 14 3 32.5t1 41.5 q0 50 -4 114t-10 130q-90 -29 -180 -56t-181 -52q-36 -63 -73 -122.5t-72 -107t-67.5 -78t-57.5 -34.5q-8 -2 -14.5 -2h-12.5q-32 0 -65 15q-13 6 -13 14q0 7 7 11.5t18 4.5q8 0 12 -2q18 -7 39 -7q5 0 11 0.5t12 1.5q19 3 44.5 28t55 64.5t61.5 91.5t65 109l-44 -12 t-44 -11q-4 -1 -14.5 -4t-23.5 -6t-26.5 -5t-23.5 -2q-7 0 -13 2q-11 5 -11 16q0 7 5 13t13 6q3 0 5 -1q9 0 28 3.5t45.5 10t59 15t68.5 18.5q33 60 65 119.5t60 113t51 97.5t38 71q5 8 14 24t18 21q4 3 9 3q8 0 13 -6t5 -13q0 -10 -10 -16q-8 -9 -17 -25t-17.5 -33 t-16.5 -33.5t-13 -26.5q-11 -21 -26.5 -51.5t-34.5 -67.5t-41 -78.5t-46 -84.5q50 14 101 29.5t95.5 29t80 25t55.5 17.5q-7 69 -14 130t-13 102q-6 46 -21.5 78t-35.5 52.5t-41.5 29.5t-40.5 9h-7q-8 0 -13 5.5t-5 12.5q0 16 17 18h8q27 0 55 -12.5t52.5 -37t42.5 -62 t25 -87.5q6 -42 13.5 -105t14.5 -135q3 -5 3 -11q0 -5 -1 -7q7 -70 11 -138t4 -122q0 -24 -1 -44.5t-3 -35.5z" unicode=""/>
<glyph glyph-name="Acircumflex" d="M621 942q8 -4 8 -13q0 -5 -4 -10t-10 -5q-4 0 -6 1q-14 7 -27 17t-26 21t-25 22t-24 20q-7 -5 -23 -16.5t-34 -24.5t-33.5 -22.5t-20.5 -9.5q-12 0 -16.5 3.5t-4.5 8.5q0 10 7 12q16 8 27.5 15.5t22.5 15.5q14 11 28 21.5t28 20.5q7 6 13 7q2 0 2.5 0.5t2.5 0.5 q9 0 25 -13q10 -8 21 -18t23 -21q12 -10 23.5 -19t22.5 -14zM673 2q-2 -8 -7 -12t-11 -4q-7 0 -12.5 4.5t-5.5 12.5v4q2 14 3 32.5t1 41.5q0 50 -4 114t-10 130q-90 -29 -180 -56t-181 -52q-36 -63 -73 -122.5t-72 -107t-67.5 -78t-57.5 -34.5q-8 -2 -14.5 -2h-12.5 q-32 0 -65 15q-13 6 -13 14q0 7 7 11.5t18 4.5q8 0 12 -2q18 -7 39 -7q5 0 11 0.5t12 1.5q19 3 44.5 28t55 64.5t61.5 91.5t65 109l-44 -12t-44 -11q-4 -1 -14.5 -4t-23.5 -6t-26.5 -5t-23.5 -2q-7 0 -13 2q-11 5 -11 16q0 7 5 13t13 6q3 0 5 -1q9 0 28 3.5t45.5 10t59 15 t68.5 18.5q33 60 65 119.5t60 113t51 97.5t38 71q5 8 14 24t18 21q4 3 9 3q8 0 13 -6t5 -13q0 -10 -10 -16q-8 -9 -17 -25t-17.5 -33t-16.5 -33.5t-13 -26.5q-11 -21 -26.5 -51.5t-34.5 -67.5t-41 -78.5t-46 -84.5q50 14 101 29.5t95.5 29t80 25t55.5 17.5q-7 69 -14 130 t-13 102q-6 46 -21.5 78t-35.5 52.5t-41.5 29.5t-40.5 9h-7q-8 0 -13 5.5t-5 12.5q0 16 17 18h8q27 0 55 -12.5t52.5 -37t42.5 -62t25 -87.5q6 -42 13.5 -105t14.5 -135q3 -5 3 -11q0 -5 -1 -7q7 -70 11 -138t4 -122q0 -24 -1 -44.5t-3 -35.5z" unicode=""/>
<glyph glyph-name="Atilde" d="M632 999q-6 -11 -12 -24.5t-14 -26.5t-18 -22t-24 -11h-6q-15 0 -30 8t-29.5 19t-27.5 23t-24 21q-6 -6 -16.5 -21.5t-21.5 -38.5q-5 -8 -11 -8q-5 0 -9 4t-4 11q0 1 2 7q3 6 9 19t14 25.5t17.5 22t19.5 9.5q6 0 11 -4q11 -8 24 -20t27 -23t26 -18t23 -7h4q8 1 15 9.5 t13.5 20t11.5 23t8 17.5q4 7 11 7q13 0 13 -14q0 -2 -2 -8zM673 2q-2 -8 -7 -12t-11 -4q-7 0 -12.5 4.5t-5.5 12.5v4q2 14 3 32.5t1 41.5q0 50 -4 114t-10 130q-90 -29 -180 -56t-181 -52q-36 -63 -73 -122.5t-72 -107t-67.5 -78t-57.5 -34.5q-8 -2 -14.5 -2h-12.5 q-32 0 -65 15q-13 6 -13 14q0 7 7 11.5t18 4.5q8 0 12 -2q18 -7 39 -7q5 0 11 0.5t12 1.5q19 3 44.5 28t55 64.5t61.5 91.5t65 109l-44 -12t-44 -11q-4 -1 -14.5 -4t-23.5 -6t-26.5 -5t-23.5 -2q-7 0 -13 2q-11 5 -11 16q0 7 5 13t13 6q3 0 5 -1q9 0 28 3.5t45.5 10t59 15 t68.5 18.5q33 60 65 119.5t60 113t51 97.5t38 71q5 8 14 24t18 21q4 3 9 3q8 0 13 -6t5 -13q0 -10 -10 -16q-8 -9 -17 -25t-17.5 -33t-16.5 -33.5t-13 -26.5q-11 -21 -26.5 -51.5t-34.5 -67.5t-41 -78.5t-46 -84.5q50 14 101 29.5t95.5 29t80 25t55.5 17.5q-7 69 -14 130 t-13 102q-6 46 -21.5 78t-35.5 52.5t-41.5 29.5t-40.5 9h-7q-8 0 -13 5.5t-5 12.5q0 16 17 18h8q27 0 55 -12.5t52.5 -37t42.5 -62t25 -87.5q6 -42 13.5 -105t14.5 -135q3 -5 3 -11q0 -5 -1 -7q7 -70 11 -138t4 -122q0 -24 -1 -44.5t-3 -35.5z" unicode=""/>
<glyph glyph-name="Adieresis" d="M474 947q5 -7 5 -12q0 -7 -5.5 -12t-13.5 -5h-1q-4 -4 -11 -4q-10 0 -20 11q-5 7 -5 11q0 8 5 13t12 6q4 4 12 4q11 0 22 -12zM569 947q0 -11 -7 -18.5t-16 -7.5t-16 6q-11 8 -11 19q0 16 16 18q7 5 15 5q7 0 12.5 -5t6.5 -16v-1zM673 2q-2 -8 -7 -12t-11 -4 q-7 0 -12.5 4.5t-5.5 12.5v4q2 14 3 32.5t1 41.5q0 50 -4 114t-10 130q-90 -29 -180 -56t-181 -52q-36 -63 -73 -122.5t-72 -107t-67.5 -78t-57.5 -34.5q-8 -2 -14.5 -2h-12.5q-32 0 -65 15q-13 6 -13 14q0 7 7 11.5t18 4.5q8 0 12 -2q18 -7 39 -7q5 0 11 0.5t12 1.5 q19 3 44.5 28t55 64.5t61.5 91.5t65 109l-44 -12t-44 -11q-4 -1 -14.5 -4t-23.5 -6t-26.5 -5t-23.5 -2q-7 0 -13 2q-11 5 -11 16q0 7 5 13t13 6q3 0 5 -1q9 0 28 3.5t45.5 10t59 15t68.5 18.5q33 60 65 119.5t60 113t51 97.5t38 71q5 8 14 24t18 21q4 3 9 3q8 0 13 -6t5 -13 q0 -10 -10 -16q-8 -9 -17 -25t-17.5 -33t-16.5 -33.5t-13 -26.5q-11 -21 -26.5 -51.5t-34.5 -67.5t-41 -78.5t-46 -84.5q50 14 101 29.5t95.5 29t80 25t55.5 17.5q-7 69 -14 130t-13 102q-6 46 -21.5 78t-35.5 52.5t-41.5 29.5t-40.5 9h-7q-8 0 -13 5.5t-5 12.5q0 16 17 18 h8q27 0 55 -12.5t52.5 -37t42.5 -62t25 -87.5q6 -42 13.5 -105t14.5 -135q3 -5 3 -11q0 -5 -1 -7q7 -70 11 -138t4 -122q0 -24 -1 -44.5t-3 -35.5z" unicode=""/>
<glyph glyph-name="Aring" d="M591 937q0 23 -8.5 31t-19 9.5t-21 1.5t-13.5 8q-17 -4 -28.5 -17t-11.5 -33q0 -19 15 -33.5t35 -14.5q29 0 40.5 14t11.5 34zM673 2q-2 -8 -7 -12t-11 -4q-7 0 -12.5 4.5t-5.5 12.5v4q2 14 3 32.5t1 41.5q0 50 -4 114t-10 130q-90 -29 -180 -56t-181 -52 q-36 -63 -73 -122.5t-72 -107t-67.5 -78t-57.5 -34.5q-8 -2 -14.5 -2h-12.5q-32 0 -65 15q-13 6 -13 14q0 7 7 11.5t18 4.5q8 0 12 -2q17 -7 38 -7q6 0 12 0.5t12 1.5q19 3 44.5 28t55 64.5t61.5 91.5t65 109l-44 -12t-44 -11q-4 -1 -14.5 -4t-23.5 -6t-26.5 -5t-23.5 -2 q-7 0 -13 2q-11 5 -11 16q0 7 5 13t13 6q3 0 5 -1q9 0 28 3.5t45.5 10t59 15t68.5 18.5q33 60 65 119.5t60 113t51 97.5t38 71q5 8 14 24t18 21q4 3 9 3q8 0 13 -6t5 -13q0 -10 -10 -16q-8 -9 -17 -25t-17.5 -33t-16.5 -33.5t-13 -26.5q-11 -21 -26.5 -51.5t-34.5 -67.5 t-41 -78.5t-46 -84.5q50 14 101 29.5t95.5 29t80 25t55.5 17.5q-7 69 -14 130t-13 102q-6 46 -21.5 78t-35.5 52.5t-41.5 29.5t-40.5 9h-7q-8 0 -13 5.5t-5 12.5q0 16 17 18h8q27 0 55 -12.5t52.5 -37t42.5 -62t25 -87.5q6 -42 13.5 -105t14.5 -135q3 -5 3 -11q0 -5 -1 -7 q7 -70 11 -138t4 -122q0 -24 -1 -44.5t-3 -35.5zM618 937q0 -30 -19 -52.5t-60 -22.5q-30 0 -53.5 21.5t-23.5 53.5q0 30 20.5 54t58.5 24q8 0 12 -7h3q27 0 44.5 -21t17.5 -50z" unicode=""/>
<glyph glyph-name="AE" horiz-adv-x="999" unicode="" d="M568 735q-29 -29 -67.5 -76.5t-81 -106t-87.5 -124.5t-88 -132q78 23 158 39t158 27q1 101 2.5 198t5.5 175zM970 18q9 0 13 -5.5t4 -12.5t-4.5 -12.5t-13.5 -5.5h-1q-73 2 -142 4q-29 1 -60 2t-61 1.5t-57 1.5t-48 2v-8q0 -9 -5.5 -13.5t-12.5 -4.5t-12.5 4t-5.5 13v10 h-15q-9 0 -13.5 5.5t-4.5 12.5t4.5 12.5t13.5 5.5h14q-2 63 -3 139t-1 157q-86 -12 -173.5 -31t-171.5 -47q-49 -78 -89 -147t-65 -117q-6 -10 -15 -10q-8 0 -14 5.5t-6 13.5q0 5 2 8q21 42 55.5 100.5t76.5 126.5q-10 -4 -19 -7.5t-19 -7.5q-6 -2 -7 -2q-8 0 -13 6t-5 13 q0 12 11 16q20 9 41 16.5t42 15.5q50 78 104.5 158.5t105.5 150t96 122.5t75 77l1 7q1 9 6 13t12 4t12 -4.5t5 -12.5v-6q25 4 60.5 5.5t74.5 1.5q34 0 68 -1t64 -1.5t54.5 -1.5t39.5 -1q9 0 13.5 -5.5t4.5 -12.5t-4.5 -12.5t-13.5 -5.5q-13 0 -37.5 0.5t-55.5 1.5t-66 1.5 t-69 0.5q-44 0 -80 -1.5t-55 -5.5q-5 -78 -6.5 -177.5t-2.5 -205.5q98 12 184.5 17t152.5 7h1q8 0 12.5 -5t4.5 -12q0 -6 -4.5 -11.5t-13.5 -6.5q-66 -2 -153 -7t-185 -18q0 -83 1 -160.5t3 -141.5q21 -1 48 -2t57 -1.5t61 -1.5t61 -2q70 -2 144 -4z"/>
<glyph glyph-name="Ccedilla" horiz-adv-x="714" unicode="" d="M650 65q-2 -2 -4.5 -4t-6.5 -5q-47 -37 -101 -55t-111 -20h-17q-14 0 -27 1t-27 3q-1 -11 -5 -22.5t-6 -20.5q61 -6 88.5 -26t27.5 -46v-1q0 -19 -10 -35.5t-25.5 -29t-35 -19.5t-38.5 -8q-11 0 -20.5 2t-19.5 7q-9 4 -9 14q0 6 4.5 11t11.5 5q2 0 8 -2q7 -4 17 -4h2 q13 0 27 5t26 13t20 18t8 20t-9 19t-32 16q-17 5 -32.5 7t-20.5 2q-12 0 -16.5 6.5t-4.5 15.5q0 5 2 15q2 7 3.5 13.5t3.5 12.5q2 5 3 9t1 7v1l-1 2q-57 13 -108 42t-90 72t-61.5 98.5t-22.5 122.5q0 59 16.5 115t44 105.5t63.5 90.5t75.5 71t80 47t77.5 18h6q48 0 84 -21 t60.5 -53.5t38.5 -70t18 -70.5q1 -8 1.5 -14.5t0.5 -13.5q0 -40 -11.5 -74.5t-27.5 -60.5t-34 -41t-30 -15q-9 0 -13.5 5.5t-4.5 12.5t4.5 12.5t13.5 5.5l11 10q10 10 22.5 29.5t23 48.5t10.5 66v12t-1 13q-3 31 -15.5 63.5t-33.5 59t-51 43.5t-67 17h-4q-46 -2 -102 -35 t-105 -89t-82 -130t-33 -157q0 -77 33 -135.5t82.5 -98t107.5 -59.5t109 -20h9.5t9.5 1q23 2 50.5 8t54.5 16t51.5 23.5t42.5 31.5q6 6 13 6q8 0 13.5 -5.5t5.5 -13.5q0 -6 -6 -12z"/>
<glyph glyph-name="Egrave" horiz-adv-x="517" unicode="" d="M341 932q-2 -13 -17 -13q-8 0 -16 4q-14 6 -30 14.5t-30.5 18t-26.5 19t-17 17.5q-3 4 -3 9q0 7 5.5 11.5t11.5 4.5q8 0 13 -8q3 -4 13.5 -12t24 -17t28.5 -17t27 -12h2q7 0 11 -5t4 -11v-3zM533 -27q-51 -33 -115 -49t-127 -16q-41 0 -79.5 7t-69.5 20.5t-53 34.5 t-31 48q-6 19 -6 39q0 42 23.5 84.5t57 82.5t69.5 75.5t60 64.5q14 17 22.5 29t8.5 20q0 9 -10 16.5t-31 16.5q-29 12 -67 25.5t-72 33t-57.5 47t-23.5 68.5v7.5t1 8.5q5 42 33.5 74.5t70.5 55t93 34.5t101 12q55 0 102 -15q27 -9 45 -24t29 -34t16 -40.5t5 -42.5 q0 -36 -11.5 -65.5t-27.5 -38.5q-5 -3 -9 -3q-8 0 -13 5.5t-5 13.5q0 9 10 15q8 4 14 24t6 46q0 16 -3.5 32.5t-11.5 31.5t-21.5 27t-33.5 19q-45 14 -91 14q-48 0 -93.5 -12.5t-82.5 -32.5t-60.5 -47t-26.5 -55v-7q0 -29 24.5 -57t81.5 -52q25 -11 52.5 -20t50 -19.5 t37 -24t14.5 -33.5q0 -14 -9 -33t-29 -43q-21 -25 -55.5 -59t-67 -72t-56 -77.5t-23.5 -75.5q0 -15 4 -27q6 -19 25 -35t46 -27.5t61 -18t72 -6.5q55 0 111.5 14t105.5 46q4 3 10 3q8 0 13 -5.5t5 -13.5q0 -9 -8 -14z"/>
<glyph glyph-name="Eacute" horiz-adv-x="517" unicode="" d="M443 988q-5 -8 -17 -17.5t-26.5 -19t-30.5 -18t-30 -14.5q-8 -4 -16 -4q-15 0 -17 13v3q0 6 4 11t11 5h2q12 4 27 12t28.5 17t24 17t13.5 12q5 8 13 8q6 0 11.5 -4.5t5.5 -11.5q0 -5 -3 -9zM533 -27q-51 -33 -115 -49t-127 -16q-41 0 -79.5 7t-69.5 20.5t-53 34.5t-31 48 q-6 19 -6 39q0 42 23.5 84.5t57 82.5t69.5 75.5t60 64.5q14 17 22.5 29t8.5 20q0 9 -10 16.5t-31 16.5q-29 12 -67 25.5t-72 33t-57.5 47t-23.5 68.5v7.5t1 8.5q5 42 33.5 74.5t70.5 55t93 34.5t101 12q55 0 102 -15q27 -9 45 -24t29 -34t16 -40.5t5 -42.5 q0 -36 -11.5 -65.5t-27.5 -38.5q-5 -3 -9 -3q-8 0 -13 5.5t-5 13.5q0 9 10 15q8 4 14 24t6 46q0 16 -3.5 32.5t-11.5 31.5t-21.5 27t-33.5 19q-45 14 -91 14q-48 0 -93.5 -12.5t-82.5 -32.5t-60.5 -47t-26.5 -55v-7q0 -29 24.5 -57t81.5 -52q25 -11 52.5 -20t50 -19.5 t37 -24t14.5 -33.5q0 -14 -9 -33t-29 -43q-21 -25 -55.5 -59t-67 -72t-56 -77.5t-23.5 -75.5q0 -15 4 -27q6 -19 25 -35t46 -27.5t61 -18t72 -6.5q55 0 111.5 14t105.5 46q4 3 10 3q8 0 13 -5.5t5 -13.5q0 -9 -8 -14z"/>
<glyph glyph-name="Ecircumflex" horiz-adv-x="517" unicode="" d="M445 942q8 -4 8 -13q0 -5 -4 -10t-10 -5q-4 0 -6 1q-14 7 -27 17t-26 21t-25 22t-24 20q-7 -5 -23 -16.5t-34 -24.5t-33.5 -22.5t-20.5 -9.5q-12 0 -16.5 3.5t-4.5 8.5q0 10 7 12q16 8 27.5 15.5t22.5 15.5q14 11 28 21.5t28 20.5q7 6 13 7q2 0 2.5 0.5t2.5 0.5 q9 0 25 -13q10 -8 21 -18t23 -21q12 -10 23.5 -19t22.5 -14zM533 -27q-51 -33 -115 -49t-127 -16q-41 0 -79.5 7t-69.5 20.5t-53 34.5t-31 48q-6 19 -6 39q0 42 23.5 84.5t57 82.5t69.5 75.5t60 64.5q14 17 22.5 29t8.5 20q0 9 -10 16.5t-31 16.5q-29 12 -67 25.5t-72 33 t-57.5 47t-23.5 68.5v7.5t1 8.5q5 42 33.5 74.5t70.5 55t93 34.5t101 12q55 0 102 -15q27 -9 45 -24t29 -34t16 -40.5t5 -42.5q0 -36 -11.5 -65.5t-27.5 -38.5q-5 -3 -9 -3q-8 0 -13 5.5t-5 13.5q0 9 10 15q8 4 14 24t6 46q0 16 -3.5 32.5t-11.5 31.5t-21.5 27t-33.5 19 q-45 14 -91 14q-48 0 -93.5 -12.5t-82.5 -32.5t-60.5 -47t-26.5 -55v-7q0 -29 24.5 -57t81.5 -52q25 -11 52.5 -20t50 -19.5t37 -24t14.5 -33.5q0 -14 -9 -33t-29 -43q-21 -25 -55.5 -59t-67 -72t-56 -77.5t-23.5 -75.5q0 -15 4 -27q6 -19 25 -35t46 -27.5t61 -18t72 -6.5 q55 0 111.5 14t105.5 46q4 3 10 3q8 0 13 -5.5t5 -13.5q0 -9 -8 -14z"/>
<glyph glyph-name="Edieresis" horiz-adv-x="517" unicode="" d="M298 947q5 -7 5 -12q0 -7 -5.5 -12t-13.5 -5h-1q-4 -4 -11 -4q-10 0 -20 11q-5 7 -5 11q0 8 5 13t12 6q4 4 12 4q11 0 22 -12zM393 947q0 -11 -7 -18.5t-16 -7.5t-16 6q-11 8 -11 19q0 16 16 18q7 5 15 5q7 0 12.5 -5t6.5 -16v-1zM533 -27q-51 -33 -115 -49t-127 -16 q-41 0 -79.5 7t-69.5 20.5t-53 34.5t-31 48q-6 19 -6 39q0 42 23.5 84.5t57 82.5t69.5 75.5t60 64.5q14 17 22.5 29t8.5 20q0 9 -10 16.5t-31 16.5q-29 12 -67 25.5t-72 33t-57.5 47t-23.5 68.5v7.5t1 8.5q5 42 33.5 74.5t70.5 55t93 34.5t101 12q55 0 102 -15q27 -9 45 -24 t29 -34t16 -40.5t5 -42.5q0 -36 -11.5 -65.5t-27.5 -38.5q-5 -3 -9 -3q-8 0 -13 5.5t-5 13.5q0 9 10 15q8 4 14 24t6 46q0 16 -3.5 32.5t-11.5 31.5t-21.5 27t-33.5 19q-45 14 -91 14q-48 0 -93.5 -12.5t-82.5 -32.5t-60.5 -47t-26.5 -55v-7q0 -29 24.5 -57t81.5 -52 q25 -11 52.5 -20t50 -19.5t37 -24t14.5 -33.5q0 -14 -9 -33t-29 -43q-21 -25 -55.5 -59t-67 -72t-56 -77.5t-23.5 -75.5q0 -15 4 -27q6 -19 25 -35t46 -27.5t61 -18t72 -6.5q55 0 111.5 14t105.5 46q4 3 10 3q8 0 13 -5.5t5 -13.5q0 -9 -8 -14z"/>
<glyph glyph-name="Igrave" horiz-adv-x="411" unicode="" d="M278 932q-2 -13 -17 -13q-8 0 -16 4q-14 6 -30 14.5t-30.5 18t-26.5 19t-17 17.5q-3 4 -3 9q0 7 5.5 11.5t11.5 4.5q8 0 13 -8q3 -4 13.5 -12t24 -17t28.5 -17t27 -12h2q7 0 11 -5t4 -11v-3zM418 171q-32 -11 -64.5 -31t-61.5 -46q-17 -42 -35.5 -77t-36.5 -61 q-12 -18 -26 -18q-20 0 -20 31q0 14 5 27q11 32 32.5 61t48.5 55q38 87 66 177.5t42 184.5q9 67 9 117q0 51 -8.5 85.5t-23 56.5t-34.5 31.5t-43 9.5q-42 0 -90 -26.5t-89.5 -65t-71 -81.5t-35.5 -77q-1 -6 -1.5 -12t-0.5 -11q0 -33 14.5 -61t38 -48.5t51.5 -32t55 -12.5h4 q22 0 41 8t31 25q6 7 14 7q7 0 13 -5t6 -12q0 -6 -4 -11q-18 -25 -45 -36.5t-56 -11.5h-4q-34 1 -69 15t-63 39t-45.5 59.5t-17.5 75.5q0 15 3 30q5 29 21.5 61t41.5 62.5t56 58t65 48.5t69 34t68 14h5q29 0 54.5 -11.5t44.5 -37.5t30 -67t11 -101q0 -26 -2.5 -56.5 t-7.5 -65.5q-4 -27 -11.5 -62.5t-19 -76.5t-25 -84.5t-29.5 -86.5q22 14 44 25.5t44 19.5q2 1 7 1q8 0 12.5 -5.5t4.5 -12.5q0 -5 -2.5 -9.5t-9.5 -6.5z"/>
<glyph glyph-name="Iacute" horiz-adv-x="411" unicode="" d="M380 988q-5 -8 -17 -17.5t-26.5 -19t-30.5 -18t-30 -14.5q-8 -4 -16 -4q-15 0 -17 13v3q0 6 4 11t11 5h2q12 4 27 12t28.5 17t24 17t13.5 12q5 8 13 8q6 0 11.5 -4.5t5.5 -11.5q0 -5 -3 -9zM418 171q-32 -11 -64.5 -31t-61.5 -46q-17 -42 -35.5 -77t-36.5 -61 q-12 -18 -26 -18q-20 0 -20 31q0 14 5 27q11 32 32.5 61t48.5 55q38 87 66 177.5t42 184.5q9 67 9 117q0 51 -8.5 85.5t-23 56.5t-34.5 31.5t-43 9.5q-42 0 -90 -26.5t-89.5 -65t-71 -81.5t-35.5 -77q-1 -6 -1.5 -12t-0.5 -11q0 -33 14.5 -61t38 -48.5t51.5 -32t55 -12.5h4 q22 0 41 8t31 25q6 7 14 7q7 0 13 -5t6 -12q0 -6 -4 -11q-18 -25 -45 -36.5t-56 -11.5h-4q-34 1 -69 15t-63 39t-45.5 59.5t-17.5 75.5q0 15 3 30q5 29 21.5 61t41.5 62.5t56 58t65 48.5t69 34t68 14h5q29 0 54.5 -11.5t44.5 -37.5t30 -67t11 -101q0 -26 -2.5 -56.5 t-7.5 -65.5q-4 -27 -11.5 -62.5t-19 -76.5t-25 -84.5t-29.5 -86.5q22 14 44 25.5t44 19.5q2 1 7 1q8 0 12.5 -5.5t4.5 -12.5q0 -5 -2.5 -9.5t-9.5 -6.5z"/>
<glyph glyph-name="Icircumflex" horiz-adv-x="411" unicode="" d="M382 942q8 -4 8 -13q0 -5 -4 -10t-10 -5q-4 0 -6 1q-14 7 -27 17t-26 21t-25 22t-24 20q-7 -5 -23 -16.5t-34 -24.5t-33.5 -22.5t-20.5 -9.5q-12 0 -16.5 3.5t-4.5 8.5q0 10 7 12q16 8 27.5 15.5t22.5 15.5q14 11 28 21.5t28 20.5q7 6 13 7q2 0 2.5 0.5t2.5 0.5 q9 0 25 -13q10 -8 21 -18t23 -21q12 -10 23.5 -19t22.5 -14zM418 171q-32 -11 -64.5 -31t-61.5 -46q-17 -42 -35.5 -77t-36.5 -61q-12 -18 -26 -18q-20 0 -20 31q0 14 5 27q11 32 32.5 61t48.5 55q38 87 66 177.5t42 184.5q9 67 9 117q0 51 -8.5 85.5t-23 56.5t-34.5 31.5 t-43 9.5q-42 0 -90 -26.5t-89.5 -65t-71 -81.5t-35.5 -77q-1 -6 -1.5 -12t-0.5 -11q0 -33 14.5 -61t38 -48.5t51.5 -32t55 -12.5h4q22 0 41 8t31 25q6 7 14 7q7 0 13 -5t6 -12q0 -6 -4 -11q-18 -25 -45 -36.5t-56 -11.5h-4q-34 1 -69 15t-63 39t-45.5 59.5t-17.5 75.5 q0 15 3 30q5 29 21.5 61t41.5 62.5t56 58t65 48.5t69 34t68 14h5q29 0 54.5 -11.5t44.5 -37.5t30 -67t11 -101q0 -26 -2.5 -56.5t-7.5 -65.5q-4 -27 -11.5 -62.5t-19 -76.5t-25 -84.5t-29.5 -86.5q22 14 44 25.5t44 19.5q2 1 7 1q8 0 12.5 -5.5t4.5 -12.5q0 -5 -2.5 -9.5 t-9.5 -6.5z"/>
<glyph glyph-name="Idieresis" horiz-adv-x="411" unicode="" d="M235 947q5 -7 5 -12q0 -7 -5.5 -12t-13.5 -5h-1q-4 -4 -11 -4q-10 0 -20 11q-5 7 -5 11q0 8 5 13t12 6q4 4 12 4q11 0 22 -12zM330 947q0 -11 -7 -18.5t-16 -7.5t-16 6q-11 8 -11 19q0 16 16 18q7 5 15 5q7 0 12.5 -5t6.5 -16v-1zM418 171q-32 -11 -64.5 -31t-61.5 -46 q-17 -42 -35.5 -77t-36.5 -61q-12 -18 -26 -18q-20 0 -20 31q0 14 5 27q11 32 32.5 61t48.5 55q38 87 66 177.5t42 184.5q9 67 9 117q0 51 -8.5 85.5t-23 56.5t-34.5 31.5t-43 9.5q-42 0 -90 -26.5t-89.5 -65t-71 -81.5t-35.5 -77q-1 -6 -1.5 -12t-0.5 -11q0 -33 14.5 -61 t38 -48.5t51.5 -32t55 -12.5h4q22 0 41 8t31 25q6 7 14 7q7 0 13 -5t6 -12q0 -6 -4 -11q-18 -25 -45 -36.5t-56 -11.5h-4q-34 1 -69 15t-63 39t-45.5 59.5t-17.5 75.5q0 15 3 30q5 29 21.5 61t41.5 62.5t56 58t65 48.5t69 34t68 14h5q29 0 54.5 -11.5t44.5 -37.5t30 -67 t11 -101q0 -26 -2.5 -56.5t-7.5 -65.5q-4 -27 -11.5 -62.5t-19 -76.5t-25 -84.5t-29.5 -86.5q22 14 44 25.5t44 19.5q2 1 7 1q8 0 12.5 -5.5t4.5 -12.5q0 -5 -2.5 -9.5t-9.5 -6.5z"/>
<glyph glyph-name="Eth" horiz-adv-x="806" unicode="" d="M575 136q-22 -6 -57 -17t-75 -24.5t-81.5 -29.5t-77.5 -33t-63 -34.5t-37 -34.5q-4 -7 -4 -12q0 -7 6 -13q1 -1 4 -1q12 0 52.5 15t96 42t118.5 63.5t118 78.5zM874 210q-6 0 -25 -4t-48.5 -11t-67 -16t-80.5 -21q-55 -53 -124.5 -98.5t-137.5 -79.5t-124.5 -53.5 t-85.5 -19.5q-15 0 -21 6q-17 17 -17 38q0 28 31.5 55t81.5 53q43 22 95 42t104.5 37t100.5 31t84 23q39 38 62.5 78t23.5 81q0 8 -1 15.5t-3 15.5q-11 42 -43.5 80.5t-78.5 74t-103 66.5t-117 57v-99t-2 -102q39 -2 74 -5t61 -6q8 -1 12 -6t4 -12q0 -6 -4.5 -11.5 t-12.5 -5.5h-3q-26 3 -60 5.5t-72 4.5q-2 -51 -3.5 -96.5t-3.5 -81t-3.5 -57.5t-2.5 -25q-2 -7 -6.5 -9.5t-9.5 -2.5q-7 0 -12.5 4.5t-5.5 12.5q0 5 1 7q1 3 2.5 24.5t3 55t3 77.5t2.5 93q-36 2 -73 3t-71 1h-26.5t-24.5 -1h-1q-9 0 -13.5 5.5t-4.5 11.5q0 7 4.5 12.5 t13.5 5.5q16 1 32.5 1h33.5q64 0 130 -3q1 54 2 108.5t1 104.5q-91 36 -176.5 58.5t-145.5 27.5q-8 1 -12 6t-4 11q0 8 4.5 13.5t13.5 5.5h2q25 -2 59.5 -8.5t76 -17t88 -24.5t94.5 -32q-1 63 -2.5 103.5t-5.5 44.5q-6 6 -6 13t5.5 12.5t12.5 5.5t13 -6q4 -4 7 -20 t5.5 -40.5t4 -57t1.5 -69.5q71 -29 139 -65t121 -78.5t85.5 -92.5t33.5 -105q0 -35 -14.5 -73.5t-46.5 -78.5q67 17 114.5 27.5t58.5 11.5h2q8 0 13 -5.5t5 -12.5q0 -16 -17 -18z"/>
<glyph glyph-name="Ntilde" horiz-adv-x="741" unicode="" d="M544 999q-6 -11 -12 -24.5t-14 -26.5t-18 -22t-24 -11h-6q-15 0 -30 8t-29.5 19t-27.5 23t-24 21q-6 -6 -16.5 -21.5t-21.5 -38.5q-5 -8 -11 -8q-5 0 -9 4t-4 11q0 1 2 7q3 6 9 19t14 25.5t17.5 22t19.5 9.5q6 0 11 -4q11 -8 24 -20t27 -23t26 -18t23 -7h4q8 1 15 9.5 t13.5 20t11.5 23t8 17.5q4 7 11 7q13 0 13 -14q0 -2 -2 -8zM697 847q-1 -6 -2.5 -36.5t-4 -77.5t-5 -106.5t-4 -125t-3 -132.5t-1.5 -129q0 -66 2 -121t6 -91v-4q0 -4 -2 -8q8 -5 8 -16q0 -7 -4 -12t-13 -6h-4q-29 0 -63.5 19.5t-71 51.5t-74 73t-74 85t-71 87.5t-63.5 79.5 q-13 -141 -55.5 -252t-101.5 -182q-40 -48 -85.5 -75t-92.5 -27q-55 0 -103 41q-6 6 -6 13q0 8 5 13.5t13 5.5q5 0 12 -5q36 -32 80 -32q36 0 74 22t75 67q58 70 100.5 186t51.5 265q-23 26 -39.5 41.5t-26.5 16.5q-8 1 -12.5 6t-4.5 11q0 7 5 12.5t13 5.5h2q13 -1 28 -11.5 t29.5 -24t27 -28t20.5 -23.5q19 -22 47.5 -58t62.5 -78t71 -86t74 -81.5t71 -64.5t62 -35l-1 2q-7 40 -9.5 102t-2.5 136q0 61 1.5 127t4 129.5t5 121t5.5 102.5t5 74t3 36q1 8 6.5 12t11.5 4q7 0 12.5 -4.5t5.5 -12.5v-3z"/>
<glyph glyph-name="Ograve" horiz-adv-x="653" unicode="" d="M388 932q-2 -13 -17 -13q-8 0 -16 4q-14 6 -30 14.5t-30.5 18t-26.5 19t-17 17.5q-3 4 -3 9q0 7 5.5 11.5t11.5 4.5q8 0 13 -8q3 -4 13.5 -12t24 -17t28.5 -17t27 -12h2q7 0 11 -5t4 -11v-3zM545 234q-23 -3 -44 -3q-33 0 -64.5 8.5t-58.5 27.5t-49 49.5t-37 73.5 q-8 26 -8 51q0 37 14.5 74.5t41 68t62 49.5t77.5 19q15 0 30 -3q4 0 6 -1q-5 31 -14.5 59.5t-24 50.5t-34 36t-44.5 16q-3 0 -6 0.5t-6 0.5q-55 0 -103.5 -40.5t-85 -106t-59 -149t-24.5 -169.5v-29q0 -69 9 -132.5t28 -113.5t49 -82.5t73 -38.5q5 -1 11 -1.5t11 -0.5 q29 0 55.5 11t49.5 30t43.5 44t37.5 54q21 35 37 73.5t27 73.5zM564 315q2 11 3 33t1 50q0 36 -3 76t-12 72q-5 -56 -18 -101.5t-31 -67.5q-6 -7 -13 -7t-12.5 5.5t-5.5 13.5q0 6 4 11q21 25 32 73t11 103v15.5t-1 15.5q-7 5 -17 7q-6 1 -12 1.5t-11 0.5q-33 0 -62 -15.5 t-50.5 -40.5t-34 -56t-12.5 -61q0 -22 6 -41q24 -72 73 -103t107 -31q22 0 50 5q3 11 4.5 22t3.5 20zM761 356q-31 -38 -76.5 -68t-97.5 -45q-13 -49 -33.5 -97.5t-48.5 -90.5q-41 -62 -95 -102t-117 -40q-6 0 -12.5 0.5t-13.5 1.5q-49 7 -85 40.5t-60 85t-35.5 117 t-11.5 137.5v22q2 95 24 189.5t61.5 170.5t95.5 123t128 47q5 0 8.5 -0.5t8.5 -0.5q39 -3 67 -23t46 -50.5t27.5 -69t12.5 -79.5q29 -32 40 -89.5t11 -119.5q0 -37 -2.5 -71t-7.5 -61q41 14 76.5 39t61.5 57q6 7 14 7q7 0 12.5 -5t5.5 -13q0 -7 -4 -12z"/>
<glyph glyph-name="Oacute" horiz-adv-x="653" unicode="" d="M490 988q-5 -8 -17 -17.5t-26.5 -19t-30.5 -18t-30 -14.5q-8 -4 -16 -4q-15 0 -17 13v3q0 6 4 11t11 5h2q12 4 27 12t28.5 17t24 17t13.5 12q5 8 13 8q6 0 11.5 -4.5t5.5 -11.5q0 -5 -3 -9zM545 234q-23 -3 -44 -3q-33 0 -64.5 8.5t-58.5 27.5t-49 49.5t-37 73.5 q-8 26 -8 51q0 37 14.5 74.5t41 68t62 49.5t77.5 19q15 0 30 -3q4 0 6 -1q-5 31 -14.5 59.5t-24 50.5t-34 36t-44.5 16q-3 0 -6 0.5t-6 0.5q-55 0 -103.5 -40.5t-85 -106t-59 -149t-24.5 -169.5v-29q0 -69 9 -132.5t28 -113.5t49 -82.5t73 -38.5q5 -1 11 -1.5t11 -0.5 q29 0 55.5 11t49.5 30t43.5 44t37.5 54q21 35 37 73.5t27 73.5zM564 315q2 11 3 33t1 50q0 36 -3 76t-12 72q-5 -56 -18 -101.5t-31 -67.5q-6 -7 -13 -7t-12.5 5.5t-5.5 13.5q0 6 4 11q21 25 32 73t11 103v15.5t-1 15.5q-7 5 -17 7q-6 1 -12 1.5t-11 0.5q-33 0 -62 -15.5 t-50.5 -40.5t-34 -56t-12.5 -61q0 -22 6 -41q24 -72 73 -103t107 -31q22 0 50 5q3 11 4.5 22t3.5 20zM761 356q-31 -38 -76.5 -68t-97.5 -45q-13 -49 -33.5 -97.5t-48.5 -90.5q-41 -62 -95 -102t-117 -40q-6 0 -12.5 0.5t-13.5 1.5q-49 7 -85 40.5t-60 85t-35.5 117 t-11.5 137.5v22q2 95 24 189.5t61.5 170.5t95.5 123t128 47q5 0 8.5 -0.5t8.5 -0.5q39 -3 67 -23t46 -50.5t27.5 -69t12.5 -79.5q29 -32 40 -89.5t11 -119.5q0 -37 -2.5 -71t-7.5 -61q41 14 76.5 39t61.5 57q6 7 14 7q7 0 12.5 -5t5.5 -13q0 -7 -4 -12z"/>
<glyph glyph-name="Ocircumflex" horiz-adv-x="653" unicode="" d="M492 942q8 -4 8 -13q0 -5 -4 -10t-10 -5q-4 0 -6 1q-14 7 -27 17t-26 21t-25 22t-24 20q-7 -5 -23 -16.5t-34 -24.5t-33.5 -22.5t-20.5 -9.5q-12 0 -16.5 3.5t-4.5 8.5q0 10 7 12q16 8 27.5 15.5t22.5 15.5q14 11 28 21.5t28 20.5q7 6 13 7q2 0 2.5 0.5t2.5 0.5 q9 0 25 -13q10 -8 21 -18t23 -21q12 -10 23.5 -19t22.5 -14zM545 234q-23 -3 -44 -3q-33 0 -64.5 8.5t-58.5 27.5t-49 49.5t-37 73.5q-8 26 -8 51q0 37 14.5 74.5t41 68t62 49.5t77.5 19q15 0 30 -3q4 0 6 -1q-5 31 -14.5 59.5t-24 50.5t-34 36t-44.5 16q-3 0 -6 0.5t-6 0.5 q-55 0 -103.5 -40.5t-85 -106t-59 -149t-24.5 -169.5v-29q0 -69 9 -132.5t28 -113.5t49 -82.5t73 -38.5q5 -1 11 -1.5t11 -0.5q29 0 55.5 11t49.5 30t43.5 44t37.5 54q21 35 37 73.5t27 73.5zM564 315q2 11 3 33t1 50q0 36 -3 76t-12 72q-5 -56 -18 -101.5t-31 -67.5 q-6 -7 -13 -7t-12.5 5.5t-5.5 13.5q0 6 4 11q21 25 32 73t11 103v15.5t-1 15.5q-7 5 -17 7q-6 1 -12 1.5t-11 0.5q-33 0 -62 -15.5t-50.5 -40.5t-34 -56t-12.5 -61q0 -22 6 -41q24 -72 73 -103t107 -31q22 0 50 5q3 11 4.5 22t3.5 20zM761 356q-31 -38 -76.5 -68t-97.5 -45 q-13 -49 -33.5 -97.5t-48.5 -90.5q-41 -62 -95 -102t-117 -40q-6 0 -12.5 0.5t-13.5 1.5q-49 7 -85 40.5t-60 85t-35.5 117t-11.5 137.5v22q2 95 24 189.5t61.5 170.5t95.5 123t128 47q5 0 8.5 -0.5t8.5 -0.5q39 -3 67 -23t46 -50.5t27.5 -69t12.5 -79.5q29 -32 40 -89.5 t11 -119.5q0 -37 -2.5 -71t-7.5 -61q41 14 76.5 39t61.5 57q6 7 14 7q7 0 12.5 -5t5.5 -13q0 -7 -4 -12z"/>
<glyph glyph-name="Otilde" horiz-adv-x="653" unicode="" d="M503 999q-6 -11 -12 -24.5t-14 -26.5t-18 -22t-24 -11h-6q-15 0 -30 8t-29.5 19t-27.5 23t-24 21q-6 -6 -16.5 -21.5t-21.5 -38.5q-5 -8 -11 -8q-5 0 -9 4t-4 11q0 1 2 7q3 6 9 19t14 25.5t17.5 22t19.5 9.5q6 0 11 -4q11 -8 24 -20t27 -23t26 -18t23 -7h4q8 1 15 9.5 t13.5 20t11.5 23t8 17.5q4 7 11 7q13 0 13 -14q0 -2 -2 -8zM545 234q-23 -3 -44 -3q-33 0 -64.5 8.5t-58.5 27.5t-49 49.5t-37 73.5q-8 26 -8 51q0 37 14.5 74.5t41 68t62 49.5t77.5 19q15 0 30 -3q4 0 6 -1q-5 31 -14.5 59.5t-24 50.5t-34 36t-44.5 16q-3 0 -6 0.5t-6 0.5 q-55 0 -103.5 -40.5t-85 -106t-59 -149t-24.5 -169.5v-29q0 -69 9 -132.5t28 -113.5t49 -82.5t73 -38.5q5 -1 11 -1.5t11 -0.5q29 0 55.5 11t49.5 30t43.5 44t37.5 54q21 35 37 73.5t27 73.5zM564 315q2 11 3 33t1 50q0 36 -3 76t-12 72q-5 -56 -18 -101.5t-31 -67.5 q-6 -7 -13 -7t-12.5 5.5t-5.5 13.5q0 6 4 11q21 25 32 73t11 103v15.5t-1 15.5q-7 5 -17 7q-6 1 -12 1.5t-11 0.5q-33 0 -62 -15.5t-50.5 -40.5t-34 -56t-12.5 -61q0 -22 6 -41q24 -72 73 -103t107 -31q22 0 50 5q3 11 4.5 22t3.5 20zM761 356q-31 -38 -76.5 -68t-97.5 -45 q-13 -49 -33.5 -97.5t-48.5 -90.5q-41 -62 -95 -102t-117 -40q-6 0 -12.5 0.5t-13.5 1.5q-49 7 -85 40.5t-60 85t-35.5 117t-11.5 137.5v22q2 95 24 189.5t61.5 170.5t95.5 123t128 47q5 0 8.5 -0.5t8.5 -0.5q39 -3 67 -23t46 -50.5t27.5 -69t12.5 -79.5q29 -32 40 -89.5 t11 -119.5q0 -37 -2.5 -71t-7.5 -61q41 14 76.5 39t61.5 57q6 7 14 7q7 0 12.5 -5t5.5 -13q0 -7 -4 -12z"/>
<glyph glyph-name="Odieresis" horiz-adv-x="653" unicode="" d="M345 947q5 -7 5 -12q0 -7 -5.5 -12t-13.5 -5h-1q-4 -4 -11 -4q-10 0 -20 11q-5 7 -5 11q0 8 5 13t12 6q4 4 12 4q11 0 22 -12zM440 947q0 -11 -7 -18.5t-16 -7.5t-16 6q-11 8 -11 19q0 16 16 18q7 5 15 5q7 0 12.5 -5t6.5 -16v-1zM545 234q-23 -3 -44 -3q-33 0 -64.5 8.5 t-58.5 27.5t-49 49.5t-37 73.5q-8 26 -8 51q0 37 14.5 74.5t41 68t62 49.5t77.5 19q15 0 30 -3q4 0 6 -1q-5 31 -14.5 59.5t-24 50.5t-34 36t-44.5 16q-3 0 -6 0.5t-6 0.5q-55 0 -103.5 -40.5t-85 -106t-59 -149t-24.5 -169.5v-29q0 -69 9 -132.5t28 -113.5t49 -82.5 t73 -38.5q5 -1 11 -1.5t11 -0.5q29 0 55.5 11t49.5 30t43.5 44t37.5 54q21 35 37 73.5t27 73.5zM564 315q2 11 3 33t1 50q0 36 -3 76t-12 72q-5 -56 -18 -101.5t-31 -67.5q-6 -7 -13 -7t-12.5 5.5t-5.5 13.5q0 6 4 11q21 25 32 73t11 103v15.5t-1 15.5q-7 5 -17 7 q-6 1 -12 1.5t-11 0.5q-33 0 -62 -15.5t-50.5 -40.5t-34 -56t-12.5 -61q0 -22 6 -41q24 -72 73 -103t107 -31q22 0 50 5q3 11 4.5 22t3.5 20zM761 356q-31 -38 -76.5 -68t-97.5 -45q-13 -49 -33.5 -97.5t-48.5 -90.5q-41 -62 -95 -102t-117 -40q-6 0 -12.5 0.5t-13.5 1.5 q-49 7 -85 40.5t-60 85t-35.5 117t-11.5 137.5v22q2 95 24 189.5t61.5 170.5t95.5 123t128 47q5 0 8.5 -0.5t8.5 -0.5q39 -3 67 -23t46 -50.5t27.5 -69t12.5 -79.5q29 -32 40 -89.5t11 -119.5q0 -37 -2.5 -71t-7.5 -61q41 14 76.5 39t61.5 57q6 7 14 7q7 0 12.5 -5t5.5 -13 q0 -7 -4 -12z"/>
<glyph glyph-name="multiply" horiz-adv-x="480" unicode="" d="M396 111l-157 156l-156 -156l-27 27l156 155l-157 158l28 27l156 -157l157 157l28 -27l-158 -158l157 -155z"/>
<glyph glyph-name="Oslash" horiz-adv-x="680" unicode="" d="M472 765q-13 12 -25 18.5t-25.5 11t-28.5 8.5t-33 12q-2 1 -7 1q-7 0 -14.5 -2t-12.5 -2t-5 3l1 2q-50 -5 -91.5 -38.5t-66.5 -79.5q-32 -59 -48 -144.5t-16 -175.5q0 -66 9 -126t27 -106q6 -16 13 -29t15 -26q77 204 151 374t157 299zM497 737q-82 -129 -156 -300 t-152 -380q29 -34 66 -51t79 -17h13q58 4 101.5 43t72 100.5t42.5 137.5t14 154q0 93 -20 176.5t-60 136.5zM614 418q0 -5 0.5 -10.5t0.5 -11.5q0 -30 -4 -64.5t-11.5 -70.5t-19.5 -72t-28 -70q-16 -33 -36.5 -62.5t-46 -51.5t-55.5 -36t-65 -16q-5 0 -9 -0.5t-9 -0.5 q-50 0 -88.5 18t-67.5 48q-13 -35 -26 -70.5t-27 -72.5q-5 -12 -16 -12q-7 0 -12.5 5t-5.5 13q0 5 1 7q15 42 29.5 82t29.5 80q-23 31 -38 68.5t-25 77t-14.5 79t-4.5 75.5v13q0 38 3 84t10.5 94t21 95t35.5 87q30 57 78.5 92.5t120.5 36.5q23 0 43.5 -4t34.5 -10q6 -3 9 -7 q38 -10 70 -37q40 60 85 109q5 6 13 6q7 0 12.5 -5t5.5 -13q0 -7 -5 -12q-23 -25 -44 -52.5t-42 -58.5q37 -46 63.5 -130.5t33.5 -219.5z"/>
<glyph glyph-name="Ugrave" horiz-adv-x="695" unicode="" d="M470 932q-2 -13 -17 -13q-8 0 -16 4q-14 6 -30 14.5t-30.5 18t-26.5 19t-17 17.5q-3 4 -3 9q0 7 5.5 11.5t11.5 4.5q8 0 13 -8q3 -4 13.5 -12t24 -17t28.5 -17t27 -12h2q7 0 11 -5t4 -11v-3zM783 181q-11 -16 -31 -44.5t-45.5 -56.5t-54 -49t-55.5 -21q-11 0 -20 3 q-20 7 -32.5 25.5t-19.5 43t-9.5 53t-2.5 55.5t1 50.5t3 39.5q5 69 15.5 143.5t21.5 144.5q-12 -31 -34.5 -86.5t-53 -120t-67.5 -131t-78 -120.5t-85 -88.5t-88 -34.5q-18 0 -39 8q-17 7 -30 28.5t-22 50.5t-13.5 61t-4.5 59q0 68 11.5 136t30 130.5t42.5 117.5t48.5 97.5 t48.5 68.5t43 32q2 1 6 1q8 0 13 -5.5t5 -13.5q0 -12 -13 -16q-12 -4 -31.5 -27t-41.5 -61t-44.5 -89t-40.5 -111t-29.5 -126t-11.5 -134q0 -29 4.5 -57.5t11.5 -51.5t15.5 -38.5t15.5 -18.5q11 -5 26 -5q36 0 74.5 33t76 85t72.5 116t64 125t50 112t32 78q2 5 7.5 23.5 t14.5 38.5t20.5 35.5t24.5 15.5q7 0 12 -4q3 -2 5.5 -7t2.5 -9v-1q-6 -45 -15.5 -103t-18 -121t-15 -126t-6.5 -117q0 -23 1 -42.5t4 -37.5q6 -38 18 -54t28 -16q19 0 42 19t45 44.5t39.5 51t26.5 39.5q5 8 15 8q7 0 13 -5t6 -12q0 -6 -4 -11z"/>
<glyph glyph-name="Uacute" horiz-adv-x="695" unicode="" d="M572 988q-5 -8 -17 -17.5t-26.5 -19t-30.5 -18t-30 -14.5q-8 -4 -16 -4q-15 0 -17 13v3q0 6 4 11t11 5h2q12 4 27 12t28.5 17t24 17t13.5 12q5 8 13 8q6 0 11.5 -4.5t5.5 -11.5q0 -5 -3 -9zM783 181q-11 -16 -31 -44.5t-45.5 -56.5t-54 -49t-55.5 -21q-11 0 -20 3 q-20 7 -32.5 25.5t-19.5 43t-9.5 53t-2.5 55.5t1 50.5t3 39.5q5 69 15.5 143.5t21.5 144.5q-12 -31 -34.5 -86.5t-53 -120t-67.5 -131t-78 -120.5t-85 -88.5t-88 -34.5q-18 0 -39 8q-17 7 -30 28.5t-22 50.5t-13.5 61t-4.5 59q0 68 11.5 136t30 130.5t42.5 117.5t48.5 97.5 t48.5 68.5t43 32q2 1 6 1q8 0 13 -5.5t5 -13.5q0 -12 -13 -16q-12 -4 -31.5 -27t-41.5 -61t-44.5 -89t-40.5 -111t-29.5 -126t-11.5 -134q0 -29 4.5 -57.5t11.5 -51.5t15.5 -38.5t15.5 -18.5q11 -5 26 -5q36 0 74.5 33t76 85t72.5 116t64 125t50 112t32 78q2 5 7.5 23.5 t14.5 38.5t20.5 35.5t24.5 15.5q7 0 12 -4q3 -2 5.5 -7t2.5 -9v-1q-6 -45 -15.5 -103t-18 -121t-15 -126t-6.5 -117q0 -23 1 -42.5t4 -37.5q6 -38 18 -54t28 -16q19 0 42 19t45 44.5t39.5 51t26.5 39.5q5 8 15 8q7 0 13 -5t6 -12q0 -6 -4 -11z"/>
<glyph glyph-name="Ucircumflex" horiz-adv-x="695" unicode="" d="M574 942q8 -4 8 -13q0 -5 -4 -10t-10 -5q-4 0 -6 1q-14 7 -27 17t-26 21t-25 22t-24 20q-7 -5 -23 -16.5t-34 -24.5t-33.5 -22.5t-20.5 -9.5q-12 0 -16.5 3.5t-4.5 8.5q0 10 7 12q16 8 27.5 15.5t22.5 15.5q14 11 28 21.5t28 20.5q7 6 13 7q2 0 2.5 0.5t2.5 0.5 q9 0 25 -13q10 -8 21 -18t23 -21q12 -10 23.5 -19t22.5 -14zM783 181q-11 -16 -31 -44.5t-45.5 -56.5t-54 -49t-55.5 -21q-11 0 -20 3q-20 7 -32.5 25.5t-19.5 43t-9.5 53t-2.5 55.5t1 50.5t3 39.5q5 69 15.5 143.5t21.5 144.5q-12 -31 -34.5 -86.5t-53 -120t-67.5 -131 t-78 -120.5t-85 -88.5t-88 -34.5q-18 0 -39 8q-17 7 -30 28.5t-22 50.5t-13.5 61t-4.5 59q0 68 11.5 136t30 130.5t42.5 117.5t48.5 97.5t48.5 68.5t43 32q2 1 6 1q8 0 13 -5.5t5 -13.5q0 -12 -13 -16q-12 -4 -31.5 -27t-41.5 -61t-44.5 -89t-40.5 -111t-29.5 -126 t-11.5 -134q0 -29 4.5 -57.5t11.5 -51.5t15.5 -38.5t15.5 -18.5q11 -5 26 -5q36 0 74.5 33t76 85t72.5 116t64 125t50 112t32 78q2 5 7.5 23.5t14.5 38.5t20.5 35.5t24.5 15.5q7 0 12 -4q3 -2 5.5 -7t2.5 -9v-1q-6 -45 -15.5 -103t-18 -121t-15 -126t-6.5 -117 q0 -23 1 -42.5t4 -37.5q6 -38 18 -54t28 -16q19 0 42 19t45 44.5t39.5 51t26.5 39.5q5 8 15 8q7 0 13 -5t6 -12q0 -6 -4 -11z"/>
<glyph glyph-name="Udieresis" horiz-adv-x="695" unicode="" d="M427 947q5 -7 5 -12q0 -7 -5.5 -12t-13.5 -5h-1q-4 -4 -11 -4q-10 0 -20 11q-5 7 -5 11q0 8 5 13t12 6q4 4 12 4q11 0 22 -12zM522 947q0 -11 -7 -18.5t-16 -7.5t-16 6q-11 8 -11 19q0 16 16 18q7 5 15 5q7 0 12.5 -5t6.5 -16v-1zM783 181q-11 -16 -31 -44.5t-45.5 -56.5 t-54 -49t-55.5 -21q-11 0 -20 3q-20 7 -32.5 25.5t-19.5 43t-9.5 53t-2.5 55.5t1 50.5t3 39.5q5 69 15.5 143.5t21.5 144.5q-12 -31 -34.5 -86.5t-53 -120t-67.5 -131t-78 -120.5t-85 -88.5t-88 -34.5q-18 0 -39 8q-17 7 -30 28.5t-22 50.5t-13.5 61t-4.5 59q0 68 11.5 136 t30 130.5t42.5 117.5t48.5 97.5t48.5 68.5t43 32q2 1 6 1q8 0 13 -5.5t5 -13.5q0 -12 -13 -16q-12 -4 -31.5 -27t-41.5 -61t-44.5 -89t-40.5 -111t-29.5 -126t-11.5 -134q0 -29 4.5 -57.5t11.5 -51.5t15.5 -38.5t15.5 -18.5q11 -5 26 -5q36 0 74.5 33t76 85t72.5 116t64 125 t50 112t32 78q2 5 7.5 23.5t14.5 38.5t20.5 35.5t24.5 15.5q7 0 12 -4q3 -2 5.5 -7t2.5 -9v-1q-6 -45 -15.5 -103t-18 -121t-15 -126t-6.5 -117q0 -23 1 -42.5t4 -37.5q6 -38 18 -54t28 -16q19 0 42 19t45 44.5t39.5 51t26.5 39.5q5 8 15 8q7 0 13 -5t6 -12q0 -6 -4 -11z "/>
<glyph glyph-name="Yacute" horiz-adv-x="624" unicode="" d="M491 988q-5 -8 -17 -17.5t-26.5 -19t-30.5 -18t-30 -14.5q-8 -4 -16 -4q-15 0 -17 13v3q0 6 4 11t11 5h2q12 4 27 12t28.5 17t24 17t13.5 12q5 8 13 8q6 0 11.5 -4.5t5.5 -11.5q0 -5 -3 -9zM507 84q-68 -52 -125 -97t-98.5 -90.5t-65.5 -94t-26 -106.5v-13 q0 -75 26.5 -119t67.5 -44q8 0 12 1q51 8 85.5 40.5t56 81t33.5 107t18 118.5t9 116t7 100zM743 220q-44 -15 -94.5 -42.5t-103.5 -65.5q-12 -129 -21 -238.5t-31.5 -191.5t-66 -133.5t-123.5 -63.5q-5 -1 -9.5 -1h-9.5q-33 0 -57 17.5t-40 46.5t-23.5 65t-7.5 74v10 q2 66 30 121.5t75.5 107.5t111.5 102t138 104q3 29 6.5 69.5t8.5 87.5t11 96.5t13 96.5q-26 -47 -56.5 -97.5t-63.5 -99t-66 -92.5t-64.5 -77t-59 -52.5t-48.5 -19.5q-2 0 -3.5 0.5t-3.5 0.5q-24 4 -42.5 25t-32.5 53.5t-23.5 74.5t-15 89.5t-8 98t-2.5 99.5t2 95t5.5 83.5 t7.5 64.5t8 39t17 12q7 0 12.5 -4.5t5.5 -12.5q0 -5 -1 -7q-4 -12 -7.5 -37t-6.5 -59.5t-4.5 -77.5t-1.5 -89v-50.5t2 -51.5q1 -12 2.5 -39t5.5 -60.5t10.5 -69t16.5 -65.5t23.5 -51t32.5 -24h3q16 0 39.5 20t50 51t53.5 68t50 70t39 58t21 33q4 6 18 29.5t32 55t38 67 t36 67.5q9 41 19.5 67t21.5 31q7 3 12 3q8 0 11 -6.5t3 -14.5t-1 -15t-3 -12q-5 -13 -12.5 -30t-17.5 -38q-20 -82 -32 -193t-23 -233q48 32 94.5 56.5t87.5 38.5q2 1 7 1q8 0 12.5 -5.5t4.5 -12.5q0 -13 -12 -17z"/>
<glyph glyph-name="Thorn" horiz-adv-x="509" unicode="" d="M546 507q0 4 0.5 7.5t0.5 7.5q0 56 -43 105.5t-142 80.5q-38 12 -75.5 18.5t-69 9.5t-54.5 4t-31 1h-1q1 -14 1 -29v-31q0 -64 -5 -137.5t-11.5 -146t-14 -139t-13.5 -115.5q72 15 142 44.5t130 69.5q78 53 129 118.5t57 131.5zM582 538q1 -5 1 -10.5v-10.5 q0 -40 -15.5 -79t-43 -76t-64.5 -71t-80 -63q-63 -42 -136 -73.5t-149 -47.5h-3q-6 0 -8 1l-2 -16q-5 -52 -8.5 -87.5t-3.5 -51.5q0 -3 0.5 -5t0.5 -4v-4q0 -8 -5.5 -12.5t-12.5 -4.5q-6 0 -11 3t-7 11q-1 3 -1 15q0 19 3 55.5t7.5 80t9.5 90.5t10 88.5t9 72.5t5 43 q8 84 13.5 162.5t5.5 142.5q0 59 -5.5 100t-17.5 58q-4 4 -4 10q0 8 6 13.5t14 5.5t14 -7q9 -13 15 -36t9 -54h4q51 0 113.5 -7t124.5 -27q40 -12 76 -30.5t64.5 -43.5t47.5 -57.5t24 -73.5z"/>
<glyph glyph-name="germandbls" horiz-adv-x="470" unicode="" d="M472 168q0 -30 -15.5 -61.5t-43 -56.5t-67.5 -41t-90 -16h-4q-29 1 -60.5 7.5t-66.5 20.5q-11 4 -11 16q0 7 5 13t13 6q1 0 7 -2q64 -26 119 -26q41 0 73.5 12.5t55.5 32t35.5 44t13.5 47.5v4q0 32 -25.5 50.5t-79.5 18.5h-8q-40 -2 -77 -11.5t-76 -16.5h-4q-9 0 -14.5 7 t-5.5 15q0 11 7 18q72 75 116 153t64 159q3 14 7.5 37.5t4.5 48.5q0 31 -11 55t-42 24h-6q-39 -3 -76.5 -66t-67.5 -172.5t-48.5 -259t-18.5 -326.5v-50q0 -9 -5.5 -14t-13.5 -5q-6 0 -11.5 4.5t-5.5 13.5v46q0 114 8 221.5t23.5 203t37 174.5t48.5 137.5t58.5 92t67.5 36.5 h11q25 0 42 -10t27 -26.5t14 -38t4 -43.5q0 -25 -3.5 -49t-8.5 -42q-18 -75 -54.5 -148.5t-96.5 -147.5l12 3q58 13 104 13q73 0 106 -29.5t33 -73.5v-2z"/>
<glyph glyph-name="agrave" horiz-adv-x="345" unicode="" d="M205 332q-2 -13 -17 -13q-8 0 -16 4q-14 6 -30 14.5t-30.5 18t-26.5 19t-17 17.5q-3 4 -3 9q0 7 5.5 11.5t11.5 4.5q8 0 13 -8q3 -4 13.5 -12t24 -17t28.5 -17t27 -12h2q7 0 11 -5t4 -11v-3zM416 57q-1 -1 -2 -3t-2.5 -3.5l-3.5 -3.5q-28 -31 -49 -44t-38 -13 q-16 0 -28.5 10t-23 27t-20 39.5t-19.5 46.5q-10 -14 -25 -34t-33 -39t-38.5 -32t-41.5 -13q-12 0 -21 4q-25 11 -35.5 30t-10.5 44q0 30 14.5 64.5t37 64.5t50.5 51.5t56 25.5q2 0 4.5 0.5t4.5 0.5q19 0 38.5 -9.5t33.5 -21.5q6 -5 6 -13t-5 -13.5t-13 -5.5q-5 0 -12 5 q-21 20 -46 20q-26 0 -50 -19.5t-43 -46t-30 -55t-11 -46.5v-1q1 -20 10 -31t23 -11q11 0 24 8q15 10 31.5 29.5t32.5 40t28.5 35.5t20.5 16h2q15 0 25 -21t19.5 -46t19.5 -46t25 -21h1q8 0 19 8t21 17.5t17.5 17.5t8.5 10q6 7 13 7q8 0 14 -5.5t6 -13.5q0 -4 -5 -11z"/>
<glyph glyph-name="aacute" horiz-adv-x="345" unicode="" d="M307 388q-5 -8 -17 -17.5t-26.5 -19t-30.5 -18t-30 -14.5q-8 -4 -16 -4q-15 0 -17 13v3q0 6 4 11t11 5h2q12 4 27 12t28.5 17t24 17t13.5 12q5 8 13 8q6 0 11.5 -4.5t5.5 -11.5q0 -5 -3 -9zM416 57q-1 -1 -2 -3t-2.5 -3.5l-3.5 -3.5q-28 -31 -49 -44t-38 -13 q-16 0 -28.5 10t-23 27t-20 39.5t-19.5 46.5q-10 -14 -25 -34t-33 -39t-38.5 -32t-41.5 -13q-12 0 -21 4q-25 11 -35.5 30t-10.5 44q0 30 14.5 64.5t37 64.5t50.5 51.5t56 25.5q2 0 4.5 0.5t4.5 0.5q19 0 38.5 -9.5t33.5 -21.5q6 -5 6 -13t-5 -13.5t-13 -5.5q-5 0 -12 5 q-21 20 -46 20q-26 0 -50 -19.5t-43 -46t-30 -55t-11 -46.5v-1q1 -20 10 -31t23 -11q11 0 24 8q15 10 31.5 29.5t32.5 40t28.5 35.5t20.5 16h2q15 0 25 -21t19.5 -46t19.5 -46t25 -21h1q8 0 19 8t21 17.5t17.5 17.5t8.5 10q6 7 13 7q8 0 14 -5.5t6 -13.5q0 -4 -5 -11z"/>
<glyph glyph-name="acircumflex" horiz-adv-x="345" unicode="" d="M309 342q8 -4 8 -13q0 -5 -4 -10t-10 -5q-4 0 -6 1q-14 7 -27 17t-26 21t-25 22t-24 20q-7 -5 -23 -16.5t-34 -24.5t-33.5 -22.5t-20.5 -9.5q-12 0 -16.5 3.5t-4.5 8.5q0 10 7 12q16 8 27.5 15.5t22.5 15.5q14 11 28 21.5t28 20.5q7 6 13 7q2 0 2.5 0.5t2.5 0.5 q9 0 25 -13q10 -8 21 -18t23 -21q12 -10 23.5 -19t22.5 -14zM416 57q-1 -1 -2 -3t-2.5 -3.5l-3.5 -3.5q-28 -31 -49 -44t-38 -13q-16 0 -28.5 10t-23 27t-20 39.5t-19.5 46.5q-10 -14 -25 -34t-33 -39t-38.5 -32t-41.5 -13q-12 0 -21 4q-25 11 -35.5 30t-10.5 44 q0 30 14.5 64.5t37 64.5t50.5 51.5t56 25.5q2 0 4.5 0.5t4.5 0.5q19 0 38.5 -9.5t33.5 -21.5q6 -5 6 -13t-5 -13.5t-13 -5.5q-5 0 -12 5q-21 20 -46 20q-26 0 -50 -19.5t-43 -46t-30 -55t-11 -46.5v-1q1 -20 10 -31t23 -11q11 0 24 8q15 10 31.5 29.5t32.5 40t28.5 35.5 t20.5 16h2q15 0 25 -21t19.5 -46t19.5 -46t25 -21h1q8 0 19 8t21 17.5t17.5 17.5t8.5 10q6 7 13 7q8 0 14 -5.5t6 -13.5q0 -4 -5 -11z"/>
<glyph glyph-name="atilde" horiz-adv-x="345" unicode="" d="M320 399q-6 -11 -12 -24.5t-14 -26.5t-18 -22t-24 -11h-6q-15 0 -30 8t-29.5 19t-27.5 23t-24 21q-6 -6 -16.5 -21.5t-21.5 -38.5q-5 -8 -11 -8q-5 0 -9 4t-4 11q0 1 2 7q3 6 9 19t14 25.5t17.5 22t19.5 9.5q6 0 11 -4q11 -8 24 -20t27 -23t26 -18t23 -7h4q8 1 15 9.5 t13.5 20t11.5 23t8 17.5q4 7 11 7q13 0 13 -14q0 -2 -2 -8zM416 57q-1 -1 -2 -3t-2.5 -3.5l-3.5 -3.5q-28 -31 -49 -44t-38 -13q-16 0 -28.5 10t-23 27t-20 39.5t-19.5 46.5q-10 -14 -25 -34t-33 -39t-38.5 -32t-41.5 -13q-12 0 -21 4q-25 11 -35.5 30t-10.5 44 q0 30 14.5 64.5t37 64.5t50.5 51.5t56 25.5q2 0 4.5 0.5t4.5 0.5q19 0 38.5 -9.5t33.5 -21.5q6 -5 6 -13t-5 -13.5t-13 -5.5q-5 0 -12 5q-21 20 -46 20q-26 0 -50 -19.5t-43 -46t-30 -55t-11 -46.5v-1q1 -20 10 -31t23 -11q11 0 24 8q15 10 31.5 29.5t32.5 40t28.5 35.5 t20.5 16h2q15 0 25 -21t19.5 -46t19.5 -46t25 -21h1q8 0 19 8t21 17.5t17.5 17.5t8.5 10q6 7 13 7q8 0 14 -5.5t6 -13.5q0 -4 -5 -11z"/>
<glyph glyph-name="adieresis" horiz-adv-x="345" unicode="" d="M162 347q5 -7 5 -12q0 -7 -5.5 -12t-13.5 -5h-1q-4 -4 -11 -4q-10 0 -20 11q-5 7 -5 11q0 8 5 13t12 6q4 4 12 4q11 0 22 -12zM257 347q0 -11 -7 -18.5t-16 -7.5t-16 6q-11 8 -11 19q0 16 16 18q7 5 15 5q7 0 12.5 -5t6.5 -16v-1zM416 57q-1 -1 -2 -3t-2.5 -3.5 l-3.5 -3.5q-28 -31 -49 -44t-38 -13q-16 0 -28.5 10t-23 27t-20 39.5t-19.5 46.5q-10 -14 -25 -34t-33 -39t-38.5 -32t-41.5 -13q-12 0 -21 4q-25 11 -35.5 30t-10.5 44q0 30 14.5 64.5t37 64.5t50.5 51.5t56 25.5q2 0 4.5 0.5t4.5 0.5q19 0 38.5 -9.5t33.5 -21.5 q6 -5 6 -13t-5 -13.5t-13 -5.5q-5 0 -12 5q-21 20 -46 20q-26 0 -50 -19.5t-43 -46t-30 -55t-11 -46.5v-1q1 -20 10 -31t23 -11q11 0 24 8q15 10 31.5 29.5t32.5 40t28.5 35.5t20.5 16h2q15 0 25 -21t19.5 -46t19.5 -46t25 -21h1q8 0 19 8t21 17.5t17.5 17.5t8.5 10 q6 7 13 7q8 0 14 -5.5t6 -13.5q0 -4 -5 -11z"/>
<glyph glyph-name="aring" horiz-adv-x="345" unicode="" d="M266 390q0 23 -8.5 31t-19 9.5t-21 1.5t-13.5 8q-17 -4 -29 -17t-12 -33q0 -19 15.5 -33.5t35.5 -14.5q29 0 40.5 14t11.5 34zM416 57q-1 -1 -2 -3t-2.5 -3.5l-3.5 -3.5q-28 -31 -49 -44t-38 -13q-16 0 -28.5 10t-23 27t-20 39.5t-19.5 46.5q-10 -14 -25 -34t-33 -39 t-38.5 -32t-41.5 -13q-12 0 -21 4q-25 11 -35.5 30t-10.5 44q0 30 14.5 64.5t37 64.5t50.5 51.5t56 25.5q2 0 4.5 0.5t4.5 0.5q19 0 38.5 -9.5t33.5 -21.5q6 -5 6 -13t-5 -13.5t-13 -5.5q-5 0 -12 5q-21 20 -46 20q-26 0 -50 -19.5t-43 -46t-30 -55t-11 -46.5v-1 q1 -20 10 -31t23 -11q11 0 24 8q15 10 31.5 29.5t32.5 40t28.5 35.5t20.5 16h2q15 0 25 -21t19.5 -46t19.5 -46t25 -21h1q8 0 19 8t21 17.5t17.5 17.5t8.5 10q6 7 13 7q8 0 14 -5.5t6 -13.5q0 -4 -5 -11zM293 390q0 -30 -19 -52.5t-60 -22.5q-15 0 -29 6t-25 16t-17.5 23.5 t-6.5 29.5q0 30 21 54.5t59 24.5q8 0 12 -7h3q27 0 44.5 -21.5t17.5 -50.5z"/>
<glyph glyph-name="ae" horiz-adv-x="516" unicode="" d="M430 203q-8 18 -33 18q-19 0 -42 -11.5t-43 -31.5q-21 -21 -32 -42l3 -1q15 -7 43 -7q18 0 37.5 4t35.5 11t26 17.5t10 24.5q0 8 -5 18zM564 91q-33 -36 -67 -57.5t-64 -33t-53.5 -15t-35.5 -3.5q-26 0 -53 18t-42 41q-5 6 -7.5 12.5t-4.5 13.5q-22 -28 -49.5 -49 t-58.5 -23h-4q-28 0 -57 20q-16 11 -22.5 27t-6.5 35q0 30 15.5 63t40 61.5t56.5 47t65 18.5q18 0 36 -7t35 -22q6 -5 6 -13t-5 -13.5t-13 -5.5q-5 0 -12 5q-20 17 -44 19h-4q-26 0 -51 -16t-44.5 -39t-32 -50t-12.5 -48q0 -23 14 -33q19 -13 37 -13q16 0 30.5 9t29.5 25 q20 20 33.5 40t18.5 27l3 3q7 19 19 36t27 32q24 23 53 37.5t55 16.5h4q20 0 36.5 -8.5t26.5 -28.5q10 -19 10 -36q0 -21 -13.5 -38.5t-34.5 -29.5t-47.5 -18.5t-51.5 -6.5q-15 0 -29.5 2.5t-26.5 7.5v-5q0 -19 10 -35q12 -18 31.5 -30.5t33.5 -12.5q9 0 29 3t46.5 13.5 t57.5 29.5t61 52q6 6 13 6t12.5 -5.5t5.5 -13.5q0 -7 -5 -12z"/>
<glyph glyph-name="ccedilla" horiz-adv-x="299" unicode="" d="M361 112q-14 -19 -35.5 -40.5t-49.5 -41t-62.5 -34.5t-73.5 -20q-2 -9 -5 -17.5t-5 -16.5q61 -6 88.5 -26t27.5 -46v-1q0 -19 -10 -35.5t-25.5 -29t-35 -19.5t-38.5 -8q-11 0 -20.5 2t-19.5 7q-9 4 -9 14q0 6 4 11t11 5q2 0 8 -2q7 -4 18 -4h2q13 0 27 5t26 13t20 18 t8 20t-9 19t-32 16q-17 5 -33 7t-21 2q-12 0 -16 6t-4 15q0 6 2 16q2 7 3.5 13.5t3.5 12.5l1 4q-31 5 -54 27t-23 64q0 13 3 30q6 29 24.5 56t42 48t48.5 34t43 13h5q8 -1 12 -6t4 -11q0 -8 -5 -13.5t-13 -5.5h-5q-9 0 -27 -10t-37 -27t-35.5 -39t-21.5 -47 q-1 -5 -1.5 -10.5t-0.5 -10.5q0 -30 18 -44t41 -14q3 0 5.5 0.5t5.5 0.5q34 4 64 17t55 30.5t44.5 37.5t32.5 37q6 7 14 7q7 0 13 -5t6 -13q0 -6 -4 -11z"/>
<glyph glyph-name="egrave" horiz-adv-x="300" unicode="" d="M201 332q-2 -13 -17 -13q-8 0 -16 4q-14 6 -30 14.5t-30.5 18t-26.5 19t-17 17.5q-3 4 -3 9q0 7 5.5 11.5t11.5 4.5q8 0 13 -8q3 -4 13.5 -12t24 -17t28.5 -17t27 -12h2q7 0 11 -5t4 -11v-3zM230 216q0 11 -7 17.5t-22 6.5q-19 0 -37.5 -8.5t-35 -22.5t-30 -32t-21.5 -38 q10 -3 19.5 -5t19.5 -2q8 0 12 1q23 3 42 12t32 21t20.5 24.5t7.5 23.5v2zM350 94q-11 -17 -31.5 -37t-48 -37.5t-60.5 -29.5t-70 -12q-28 0 -48.5 10t-34 26t-20 37t-6.5 44q0 6 0.5 12.5t1.5 12.5q-5 5 -5 12q0 13 13 18q11 30 31 53t42.5 39.5t45.5 25t41 8.5 q35 0 49 -15.5t16 -38.5v-5q0 -31 -26 -63t-69 -47q-13 -5 -27.5 -8t-29.5 -3q-21 0 -47 8q-1 -5 -1 -9v-9q1 -32 23 -52t51 -20q30 0 57.5 9.5t51.5 24.5t42 32.5t29 33.5q5 8 14 8q8 0 13.5 -5t5.5 -13q0 -6 -3 -10z"/>
<glyph glyph-name="eacute" horiz-adv-x="300" unicode="" d="M303 388q-5 -8 -17 -17.5t-26.5 -19t-30.5 -18t-30 -14.5q-8 -4 -16 -4q-15 0 -17 13v3q0 6 4 11t11 5h2q12 4 27 12t28.5 17t24 17t13.5 12q5 8 13 8q6 0 11.5 -4.5t5.5 -11.5q0 -5 -3 -9zM230 216q0 11 -7 17.5t-22 6.5q-19 0 -37.5 -8.5t-35 -22.5t-30 -32t-21.5 -38 q10 -3 19.5 -5t19.5 -2q8 0 12 1q23 3 42 12t32 21t20.5 24.5t7.5 23.5v2zM350 94q-11 -17 -31.5 -37t-48 -37.5t-60.5 -29.5t-70 -12q-28 0 -48.5 10t-34 26t-20 37t-6.5 44q0 6 0.5 12.5t1.5 12.5q-5 5 -5 12q0 13 13 18q11 30 31 53t42.5 39.5t45.5 25t41 8.5 q35 0 49 -15.5t16 -38.5v-5q0 -31 -26 -63t-69 -47q-13 -5 -27.5 -8t-29.5 -3q-21 0 -47 8q-1 -5 -1 -9v-9q1 -32 23 -52t51 -20q30 0 57.5 9.5t51.5 24.5t42 32.5t29 33.5q5 8 14 8q8 0 13.5 -5t5.5 -13q0 -6 -3 -10z"/>
<glyph glyph-name="ecircumflex" horiz-adv-x="300" unicode="" d="M305 342q8 -4 8 -13q0 -5 -4 -10t-10 -5q-4 0 -6 1q-14 7 -27 17t-26 21t-25 22t-24 20q-7 -5 -23 -16.5t-34 -24.5t-33.5 -22.5t-20.5 -9.5q-12 0 -16.5 3.5t-4.5 8.5q0 10 7 12q16 8 27.5 15.5t22.5 15.5q14 11 28 21.5t28 20.5q7 6 13 7q2 0 2.5 0.5t2.5 0.5 q9 0 25 -13q10 -8 21 -18t23 -21q12 -10 23.5 -19t22.5 -14zM230 216q0 11 -7 17.5t-22 6.5q-19 0 -37.5 -8.5t-35 -22.5t-30 -32t-21.5 -38q10 -3 19.5 -5t19.5 -2q8 0 12 1q23 3 42 12t32 21t20.5 24.5t7.5 23.5v2zM350 94q-11 -17 -31.5 -37t-48 -37.5t-60.5 -29.5 t-70 -12q-28 0 -48.5 10t-34 26t-20 37t-6.5 44q0 6 0.5 12.5t1.5 12.5q-5 5 -5 12q0 13 13 18q11 30 31 53t42.5 39.5t45.5 25t41 8.5q35 0 49 -15.5t16 -38.5v-5q0 -31 -26 -63t-69 -47q-13 -5 -27.5 -8t-29.5 -3q-21 0 -47 8q-1 -5 -1 -9v-9q1 -32 23 -52t51 -20 q30 0 57.5 9.5t51.5 24.5t42 32.5t29 33.5q5 8 14 8q8 0 13.5 -5t5.5 -13q0 -6 -3 -10z"/>
<glyph glyph-name="edieresis" horiz-adv-x="300" unicode="" d="M158 347q5 -7 5 -12q0 -7 -5.5 -12t-13.5 -5h-1q-4 -4 -11 -4q-10 0 -20 11q-5 7 -5 11q0 8 5 13t12 6q4 4 12 4q11 0 22 -12zM253 347q0 -11 -7 -18.5t-16 -7.5t-16 6q-11 8 -11 19q0 16 16 18q7 5 15 5q7 0 12.5 -5t6.5 -16v-1zM230 216q0 11 -7 17.5t-22 6.5 q-19 0 -37.5 -8.5t-35 -22.5t-30 -32t-21.5 -38q10 -3 19.5 -5t19.5 -2q8 0 12 1q23 3 42 12t32 21t20.5 24.5t7.5 23.5v2zM350 94q-11 -17 -31.5 -37t-48 -37.5t-60.5 -29.5t-70 -12q-28 0 -48.5 10t-34 26t-20 37t-6.5 44q0 6 0.5 12.5t1.5 12.5q-5 5 -5 12q0 13 13 18 q11 30 31 53t42.5 39.5t45.5 25t41 8.5q35 0 49 -15.5t16 -38.5v-5q0 -31 -26 -63t-69 -47q-13 -5 -27.5 -8t-29.5 -3q-21 0 -47 8q-1 -5 -1 -9v-9q1 -32 23 -52t51 -20q30 0 57.5 9.5t51.5 24.5t42 32.5t29 33.5q5 8 14 8q8 0 13.5 -5t5.5 -13q0 -6 -3 -10z"/>
<glyph glyph-name="igrave" horiz-adv-x="177" unicode="" d="M110 332q-2 -13 -17 -13q-8 0 -16 4q-14 6 -30 14.5t-30.5 18t-26.5 19t-17 17.5q-3 4 -3 9q0 7 5.5 11.5t11.5 4.5q8 0 13 -8q3 -4 13.5 -12t24 -17t28.5 -17t27 -12h2q7 0 11 -5t4 -11v-3zM216 83q-11 -13 -20.5 -28.5t-20.5 -28.5t-25 -22t-33 -9h-6q-38 3 -51 33.5 t-13 70.5q0 38 6.5 75t8.5 60q1 8 9 16.5t16 8.5q10 0 11 -19v-4q0 -11 -2 -22.5t-4 -22.5t-5.5 -37t-3.5 -53t6.5 -47.5t24.5 -22.5h2q12 0 22 9t19 21t17 25t15 21q5 6 13 6t13.5 -5t5.5 -13q0 -5 -5 -12z"/>
<glyph glyph-name="iacute" horiz-adv-x="177" unicode="" d="M212 388q-5 -8 -17 -17.5t-26.5 -19t-30.5 -18t-30 -14.5q-8 -4 -16 -4q-15 0 -17 13v3q0 6 4 11t11 5h2q12 4 27 12t28.5 17t24 17t13.5 12q5 8 13 8q6 0 11.5 -4.5t5.5 -11.5q0 -5 -3 -9zM216 83q-11 -13 -20.5 -28.5t-20.5 -28.5t-25 -22t-33 -9h-6q-38 3 -51 33.5 t-13 70.5q0 38 6.5 75t8.5 60q1 8 9 16.5t16 8.5q10 0 11 -19v-4q0 -11 -2 -22.5t-4 -22.5t-5.5 -37t-3.5 -53t6.5 -47.5t24.5 -22.5h2q12 0 22 9t19 21t17 25t15 21q5 6 13 6t13.5 -5t5.5 -13q0 -5 -5 -12z"/>
<glyph glyph-name="icircumflex" horiz-adv-x="177" unicode="" d="M214 342q8 -4 8 -13q0 -5 -4 -10t-10 -5q-4 0 -6 1q-14 7 -27 17t-26 21t-25 22t-24 20q-7 -5 -23 -16.5t-34 -24.5t-33.5 -22.5t-20.5 -9.5q-12 0 -16.5 3.5t-4.5 8.5q0 10 7 12q16 8 27.5 15.5t22.5 15.5q14 11 28 21.5t28 20.5q7 6 13 7q2 0 2.5 0.5t2.5 0.5 q9 0 25 -13q10 -8 21 -18t23 -21q12 -10 23.5 -19t22.5 -14zM216 83q-11 -13 -20.5 -28.5t-20.5 -28.5t-25 -22t-33 -9h-6q-38 3 -51 33.5t-13 70.5q0 38 6.5 75t8.5 60q1 8 9 16.5t16 8.5q10 0 11 -19v-4q0 -11 -2 -22.5t-4 -22.5t-5.5 -37t-3.5 -53t6.5 -47.5t24.5 -22.5 h2q12 0 22 9t19 21t17 25t15 21q5 6 13 6t13.5 -5t5.5 -13q0 -5 -5 -12z"/>
<glyph glyph-name="idieresis" horiz-adv-x="177" unicode="" d="M67 347q5 -7 5 -12q0 -7 -5.5 -12t-13.5 -5h-1q-4 -4 -11 -4q-10 0 -20 11q-5 7 -5 11q0 8 5 13t12 6q4 4 12 4q11 0 22 -12zM162 347q0 -11 -7 -18.5t-16 -7.5t-16 6q-11 8 -11 19q0 16 16 18q7 5 15 5q7 0 12.5 -5t6.5 -16v-1zM216 83q-11 -13 -20.5 -28.5t-20.5 -28.5 t-25 -22t-33 -9h-6q-38 3 -51 33.5t-13 70.5q0 38 6.5 75t8.5 60q1 8 9 16.5t16 8.5q10 0 11 -19v-4q0 -11 -2 -22.5t-4 -22.5t-5.5 -37t-3.5 -53t6.5 -47.5t24.5 -22.5h2q12 0 22 9t19 21t17 25t15 21q5 6 13 6t13.5 -5t5.5 -13q0 -5 -5 -12z"/>
<glyph glyph-name="eth" horiz-adv-x="423" unicode="" d="M369 486q8 -1 12 -6.5t4 -11.5q0 -7 -4.5 -12.5t-12.5 -5.5h-3q-48 6 -91 6q29 -48 50 -96.5t24 -95.5q1 -5 1 -10.5v-10.5q0 -54 -17.5 -99.5t-45.5 -78.5t-62.5 -52t-67.5 -19q-38 0 -69 25.5t-45 84.5q-1 4 -1 13q0 25 18.5 50.5t47 46t62.5 33.5t66 13q19 0 32 -4 t13 -17q0 -7 -4.5 -13t-12.5 -6q-4 0 -6 1q-11 4 -26 4q-27 0 -54.5 -12t-50 -29.5t-36.5 -36t-14 -31.5q0 -1 0.5 -2t0.5 -2q11 -45 33 -63.5t48 -18.5h2q26 1 53 18t49.5 46t36.5 67.5t14 82.5q0 4 -0.5 8t-0.5 9q-3 46 -26 96.5t-55 98.5q-29 -1 -61.5 -1.5t-70.5 -2.5 h-1q-9 0 -13.5 5.5t-4.5 11.5q0 7 4.5 12.5t13.5 5.5q31 1 57.5 2t51.5 2q-28 39 -56.5 72.5t-52.5 59t-40 41t-18 16.5q-9 5 -9 15q0 8 5 14t13 6q4 0 9 -3q3 -2 22 -20t47 -47.5t61 -69t63 -83.5q30 0 58 -1t60 -5z"/>
<glyph glyph-name="ntilde" horiz-adv-x="354" unicode="" d="M324 399q-6 -11 -12 -24.5t-14 -26.5t-18 -22t-24 -11h-6q-15 0 -30 8t-29.5 19t-27.5 23t-24 21q-6 -6 -16.5 -21.5t-21.5 -38.5q-5 -8 -11 -8q-5 0 -9 4t-4 11q0 1 2 7q3 6 9 19t14 25.5t17.5 22t19.5 9.5q6 0 11 -4q11 -8 24 -20t27 -23t26 -18t23 -7h4q8 1 15 9.5 t13.5 20t11.5 23t8 17.5q4 7 11 7q13 0 13 -14q0 -2 -2 -8zM410 76q-3 -5 -7 -9q-4 -5 -8.5 -10t-9.5 -10q-16 -17 -29 -24t-24 -8h-1q-15 0 -25 12t-17 30.5t-12 41t-9 44.5t-8.5 40t-9.5 28q-19 -15 -41 -45.5t-43 -62.5t-40 -59t-32 -34q-7 -4 -14 -4q-11 0 -17.5 12 t-10 27.5t-4.5 30.5t-1 22q0 29 3.5 65t9.5 75q2 8 7 12t11 4q7 0 12.5 -4.5t5.5 -12.5v-4q-6 -38 -9.5 -72.5t-3.5 -62.5q0 -25 4 -45q10 12 31 44t45.5 66t48.5 60t41 26h2q14 -2 23 -16t15 -34t10 -44t8 -45t9 -37t13 -21q4 0 11 6.5t14.5 14.5t14 15.5t8.5 9.5q6 7 14 7 t13.5 -5t5.5 -13q0 -6 -4 -11z"/>
<glyph glyph-name="ograve" horiz-adv-x="278" unicode="" d="M199 332q-2 -13 -17 -13q-8 0 -16 4q-14 6 -30 14.5t-30.5 18t-26.5 19t-17 17.5q-3 4 -3 9q0 7 5.5 11.5t11.5 4.5q8 0 13 -8q3 -4 13.5 -12t24 -17t28.5 -17t27 -12h2q7 0 11 -5t4 -11v-3zM357 183q-29 -9 -61.5 -9.5t-62.5 -4.5q33 -36 33 -71v-1q0 -27 -14 -50.5 t-36.5 -41.5t-49.5 -28.5t-54 -10.5h-3q-34 0 -60 19.5t-34 64.5q-1 4 -1 12q0 27 13.5 59t33.5 59.5t42 46.5t39 19q9 0 13.5 -5.5t4.5 -12.5t-4.5 -12.5t-13.5 -5.5q-6 0 -21.5 -15t-31.5 -36.5t-28 -47t-12 -46.5q0 -2 0.5 -4.5t0.5 -4.5q5 -29 22.5 -42t40.5 -13 q18 0 38 7.5t36.5 20.5t28 30t13.5 36v5q0 14 -7.5 25t-16.5 20l-16.5 16.5t-7.5 14.5q0 15 22 22t50.5 10t55.5 4.5t38 4.5q2 1 6 1q8 0 12.5 -5.5t4.5 -12.5q0 -13 -13 -17z"/>
<glyph glyph-name="oacute" horiz-adv-x="278" unicode="" d="M301 388q-5 -8 -17 -17.5t-26.5 -19t-30.5 -18t-30 -14.5q-8 -4 -16 -4q-15 0 -17 13v3q0 6 4 11t11 5h2q12 4 27 12t28.5 17t24 17t13.5 12q5 8 13 8q6 0 11.5 -4.5t5.5 -11.5q0 -5 -3 -9zM357 183q-29 -9 -61.5 -9.5t-62.5 -4.5q33 -36 33 -71v-1q0 -27 -14 -50.5 t-36.5 -41.5t-49.5 -28.5t-54 -10.5h-3q-34 0 -60 19.5t-34 64.5q-1 4 -1 12q0 27 13.5 59t33.5 59.5t42 46.5t39 19q9 0 13.5 -5.5t4.5 -12.5t-4.5 -12.5t-13.5 -5.5q-6 0 -21.5 -15t-31.5 -36.5t-28 -47t-12 -46.5q0 -2 0.5 -4.5t0.5 -4.5q5 -29 22.5 -42t40.5 -13 q18 0 38 7.5t36.5 20.5t28 30t13.5 36v5q0 14 -7.5 25t-16.5 20l-16.5 16.5t-7.5 14.5q0 15 22 22t50.5 10t55.5 4.5t38 4.5q2 1 6 1q8 0 12.5 -5.5t4.5 -12.5q0 -13 -13 -17z"/>
<glyph glyph-name="ocircumflex" horiz-adv-x="278" unicode="" d="M303 342q8 -4 8 -13q0 -5 -4 -10t-10 -5q-4 0 -6 1q-14 7 -27 17t-26 21t-25 22t-24 20q-7 -5 -23 -16.5t-34 -24.5t-33.5 -22.5t-20.5 -9.5q-12 0 -16.5 3.5t-4.5 8.5q0 10 7 12q16 8 27.5 15.5t22.5 15.5q14 11 28 21.5t28 20.5q7 6 13 7q2 0 2.5 0.5t2.5 0.5 q9 0 25 -13q10 -8 21 -18t23 -21q12 -10 23.5 -19t22.5 -14zM357 183q-29 -9 -61.5 -9.5t-62.5 -4.5q33 -36 33 -71v-1q0 -27 -14 -50.5t-36.5 -41.5t-49.5 -28.5t-54 -10.5h-3q-34 0 -60 19.5t-34 64.5q-1 4 -1 12q0 27 13.5 59t33.5 59.5t42 46.5t39 19q9 0 13.5 -5.5 t4.5 -12.5t-4.5 -12.5t-13.5 -5.5q-6 0 -21.5 -15t-31.5 -36.5t-28 -47t-12 -46.5q0 -2 0.5 -4.5t0.5 -4.5q5 -29 22.5 -42t40.5 -13q18 0 38 7.5t36.5 20.5t28 30t13.5 36v5q0 14 -7.5 25t-16.5 20l-16.5 16.5t-7.5 14.5q0 15 22 22t50.5 10t55.5 4.5t38 4.5q2 1 6 1 q8 0 12.5 -5.5t4.5 -12.5q0 -13 -13 -17z"/>
<glyph glyph-name="otilde" horiz-adv-x="278" unicode="" d="M314 399q-6 -11 -12 -24.5t-14 -26.5t-18 -22t-24 -11h-6q-15 0 -30 8t-29.5 19t-27.5 23t-24 21q-6 -6 -16.5 -21.5t-21.5 -38.5q-5 -8 -11 -8q-5 0 -9 4t-4 11q0 1 2 7q3 6 9 19t14 25.5t17.5 22t19.5 9.5q6 0 11 -4q11 -8 24 -20t27 -23t26 -18t23 -7h4q8 1 15 9.5 t13.5 20t11.5 23t8 17.5q4 7 11 7q13 0 13 -14q0 -2 -2 -8zM357 183q-29 -9 -61.5 -9.5t-62.5 -4.5q33 -36 33 -71v-1q0 -27 -14 -50.5t-36.5 -41.5t-49.5 -28.5t-54 -10.5h-3q-34 0 -60 19.5t-34 64.5q-1 4 -1 12q0 27 13.5 59t33.5 59.5t42 46.5t39 19q9 0 13.5 -5.5 t4.5 -12.5t-4.5 -12.5t-13.5 -5.5q-6 0 -21.5 -15t-31.5 -36.5t-28 -47t-12 -46.5q0 -2 0.5 -4.5t0.5 -4.5q5 -29 22.5 -42t40.5 -13q18 0 38 7.5t36.5 20.5t28 30t13.5 36v5q0 14 -7.5 25t-16.5 20l-16.5 16.5t-7.5 14.5q0 15 22 22t50.5 10t55.5 4.5t38 4.5q2 1 6 1 q8 0 12.5 -5.5t4.5 -12.5q0 -13 -13 -17z"/>
<glyph glyph-name="odieresis" horiz-adv-x="278" unicode="" d="M156 347q5 -7 5 -12q0 -7 -5.5 -12t-13.5 -5h-1q-4 -4 -11 -4q-10 0 -20 11q-5 7 -5 11q0 8 5 13t12 6q4 4 12 4q11 0 22 -12zM251 347q0 -11 -7 -18.5t-16 -7.5t-16 6q-11 8 -11 19q0 16 16 18q7 5 15 5q7 0 12.5 -5t6.5 -16v-1zM357 183q-29 -9 -61.5 -9.5t-62.5 -4.5 q33 -36 33 -71v-1q0 -27 -14 -50.5t-36.5 -41.5t-49.5 -28.5t-54 -10.5h-3q-34 0 -60 19.5t-34 64.5q-1 4 -1 12q0 27 13.5 59t33.5 59.5t42 46.5t39 19q9 0 13.5 -5.5t4.5 -12.5t-4.5 -12.5t-13.5 -5.5q-6 0 -21.5 -15t-31.5 -36.5t-28 -47t-12 -46.5q0 -2 0.5 -4.5 t0.5 -4.5q5 -29 22.5 -42t40.5 -13q18 0 38 7.5t36.5 20.5t28 30t13.5 36v5q0 14 -7.5 25t-16.5 20l-16.5 16.5t-7.5 14.5q0 15 22 22t50.5 10t55.5 4.5t38 4.5q2 1 6 1q8 0 12.5 -5.5t4.5 -12.5q0 -13 -13 -17z"/>
<glyph glyph-name="divide" horiz-adv-x="480" unicode="" d="M274 127q0 -14 -9.5 -24.5t-24.5 -10.5q-14 0 -24.5 10t-10.5 25q0 14 10.5 24t24.5 10t24 -10t10 -24zM76 273v35h327v-35h-327zM274 456q0 -14 -9.5 -24.5t-24.5 -10.5q-14 0 -24.5 10.5t-10.5 24.5t10.5 24t24.5 10t24 -10t10 -24z"/>
<glyph glyph-name="oslash" horiz-adv-x="313" unicode="" d="M204 206q-6 2 -13 2q-15 0 -36.5 -7.5t-41 -21.5t-33 -35t-13.5 -49q0 -13 3 -26q2 -8 8 -18.5t15 -20.5q23 42 49 81.5t51 74.5q-1 2 -1 6q0 8 12 14zM249 81q0 21 -11 39.5t-23 33.5q-23 -33 -47.5 -70.5t-45.5 -75.5q5 -2 9.5 -3t9.5 -2h8q16 0 34 5.5t32.5 16 t24 24.5t9.5 32zM311 277q-5 -4 -24.5 -27.5t-46.5 -60.5q4 -4 7.5 -8.5t6.5 -9.5q14 -20 22.5 -43.5t8.5 -46.5q0 -30 -14.5 -51.5t-35.5 -35.5t-45 -20.5t-44 -6.5h-8q-18 1 -33 9q-11 -21 -20 -42t-15 -40q-4 -13 -16 -13q-8 0 -13.5 5t-5.5 13q0 4 1 6q7 21 16.5 44.5 t21.5 46.5q-20 19 -31 45t-11 55q0 26 9.5 51t32.5 46q25 23 58.5 36.5t60.5 13.5q20 0 31 -7q2 -1 4 -3q23 29 38.5 48t20.5 23q7 5 12 5q8 0 13 -5.5t5 -13.5t-6 -13z"/>
<glyph glyph-name="ugrave" horiz-adv-x="372" unicode="" d="M223 332q-2 -13 -17 -13q-8 0 -16 4q-14 6 -30 14.5t-30.5 18t-26.5 19t-17 17.5q-3 4 -3 9q0 7 5.5 11.5t11.5 4.5q8 0 13 -8q3 -4 13.5 -12t24 -17t28.5 -17t27 -12h2q7 0 11 -5t4 -11v-3zM438 60q4 -6 4 -10q0 -10 -10 -20q-15 -17 -33.5 -31.5t-42.5 -14.5 q-27 0 -47.5 23.5t-30.5 66.5q-10 44 -11 96q-9 -14 -28.5 -41.5t-43.5 -54.5t-50 -47.5t-49 -20.5h-1q-17 0 -28 10.5t-17 25t-8.5 30.5t-2.5 29q0 27 5.5 55t14 51.5t19 39t20.5 18.5q2 0 3 0.5t2 0.5q8 0 12.5 -6t4.5 -13q0 -5 -3 -10t-10 -7q-3 -1 -8.5 -12.5 t-11.5 -30.5t-10.5 -43.5t-5.5 -51.5v-5q0 -20 6 -34t18 -14h1q14 0 30 12t32.5 30.5t33 40.5t30.5 43.5t25.5 39t17.5 27.5q4 6 9 12.5t13 6.5t13 -5t5 -13v-2q-1 -6 -1 -16.5v-24.5q0 -24 2 -53t7.5 -55t15 -43.5t25.5 -18.5h1q15 0 28.5 12.5t22.5 22.5q10 10 20 10 q7 0 12 -5z"/>
<glyph glyph-name="uacute" horiz-adv-x="372" unicode="" d="M325 388q-5 -8 -17 -17.5t-26.5 -19t-30.5 -18t-30 -14.5q-8 -4 -16 -4q-15 0 -17 13v3q0 6 4 11t11 5h2q12 4 27 12t28.5 17t24 17t13.5 12q5 8 13 8q6 0 11.5 -4.5t5.5 -11.5q0 -5 -3 -9zM438 60q4 -6 4 -10q0 -10 -10 -20q-15 -17 -33.5 -31.5t-42.5 -14.5 q-27 0 -47.5 23.5t-30.5 66.5q-10 44 -11 96q-9 -14 -28.5 -41.5t-43.5 -54.5t-50 -47.5t-49 -20.5h-1q-17 0 -28 10.5t-17 25t-8.5 30.5t-2.5 29q0 27 5.5 55t14 51.5t19 39t20.5 18.5q2 0 3 0.5t2 0.5q8 0 12.5 -6t4.5 -13q0 -5 -3 -10t-10 -7q-3 -1 -8.5 -12.5 t-11.5 -30.5t-10.5 -43.5t-5.5 -51.5v-5q0 -20 6 -34t18 -14h1q14 0 30 12t32.5 30.5t33 40.5t30.5 43.5t25.5 39t17.5 27.5q4 6 9 12.5t13 6.5t13 -5t5 -13v-2q-1 -6 -1 -16.5v-24.5q0 -24 2 -53t7.5 -55t15 -43.5t25.5 -18.5h1q15 0 28.5 12.5t22.5 22.5q10 10 20 10 q7 0 12 -5z"/>
<glyph glyph-name="ucircumflex" horiz-adv-x="372" unicode="" d="M327 342q8 -4 8 -13q0 -5 -4 -10t-10 -5q-4 0 -6 1q-14 7 -27 17t-26 21t-25 22t-24 20q-7 -5 -23 -16.5t-34 -24.5t-33.5 -22.5t-20.5 -9.5q-12 0 -16.5 3.5t-4.5 8.5q0 10 7 12q16 8 27.5 15.5t22.5 15.5q14 11 28 21.5t28 20.5q7 6 13 7q2 0 2.5 0.5t2.5 0.5 q9 0 25 -13q10 -8 21 -18t23 -21q12 -10 23.5 -19t22.5 -14zM438 60q4 -6 4 -10q0 -10 -10 -20q-15 -17 -33.5 -31.5t-42.5 -14.5q-27 0 -47.5 23.5t-30.5 66.5q-10 44 -11 96q-9 -14 -28.5 -41.5t-43.5 -54.5t-50 -47.5t-49 -20.5h-1q-17 0 -28 10.5t-17 25t-8.5 30.5 t-2.5 29q0 27 5.5 55t14 51.5t19 39t20.5 18.5q2 0 3 0.5t2 0.5q8 0 12.5 -6t4.5 -13q0 -5 -3 -10t-10 -7q-3 -1 -8.5 -12.5t-11.5 -30.5t-10.5 -43.5t-5.5 -51.5v-5q0 -20 6 -34t18 -14h1q14 0 30 12t32.5 30.5t33 40.5t30.5 43.5t25.5 39t17.5 27.5q4 6 9 12.5t13 6.5 t13 -5t5 -13v-2q-1 -6 -1 -16.5v-24.5q0 -24 2 -53t7.5 -55t15 -43.5t25.5 -18.5h1q15 0 28.5 12.5t22.5 22.5q10 10 20 10q7 0 12 -5z"/>
<glyph glyph-name="udieresis" horiz-adv-x="372" unicode="" d="M180 347q5 -7 5 -12q0 -7 -5.5 -12t-13.5 -5h-1q-4 -4 -11 -4q-10 0 -20 11q-5 7 -5 11q0 8 5 13t12 6q4 4 12 4q11 0 22 -12zM275 347q0 -11 -7 -18.5t-16 -7.5t-16 6q-11 8 -11 19q0 16 16 18q7 5 15 5q7 0 12.5 -5t6.5 -16v-1zM438 60q4 -6 4 -10q0 -10 -10 -20 q-15 -17 -33.5 -31.5t-42.5 -14.5q-27 0 -47.5 23.5t-30.5 66.5q-10 44 -11 96q-9 -14 -28.5 -41.5t-43.5 -54.5t-50 -47.5t-49 -20.5h-1q-17 0 -28 10.5t-17 25t-8.5 30.5t-2.5 29q0 27 5.5 55t14 51.5t19 39t20.5 18.5q2 0 3 0.5t2 0.5q8 0 12.5 -6t4.5 -13q0 -5 -3 -10 t-10 -7q-3 -1 -8.5 -12.5t-11.5 -30.5t-10.5 -43.5t-5.5 -51.5v-5q0 -20 6 -34t18 -14h1q14 0 30 12t32.5 30.5t33 40.5t30.5 43.5t25.5 39t17.5 27.5q4 6 9 12.5t13 6.5t13 -5t5 -13v-2q-1 -6 -1 -16.5v-24.5q0 -24 2 -53t7.5 -55t15 -43.5t25.5 -18.5h1q15 0 28.5 12.5 t22.5 22.5q10 10 20 10q7 0 12 -5z"/>
<glyph glyph-name="yacute" horiz-adv-x="393" unicode="" d="M308 388q-5 -8 -17 -17.5t-26.5 -19t-30.5 -18t-30 -14.5q-8 -4 -16 -4q-15 0 -17 13v3q0 6 4 11t11 5h2q12 4 27 12t28.5 17t24 17t13.5 12q5 8 13 8q6 0 11.5 -4.5t5.5 -11.5q0 -5 -3 -9zM327 16q-23 -33 -45 -69.5t-44 -74.5q-5 -9 -23 -42t-37.5 -74.5t-35 -82.5 t-15.5 -65q0 -12 4 -17q4 -2 7 -2q9 0 21.5 8t24.5 18.5t21.5 20l13.5 13.5q33 36 55 69.5t35 67t18 68t5 72.5q0 21 -1.5 43.5t-3.5 46.5zM491 198q-19 -4 -54 -41t-78 -96q5 -35 7.5 -67.5t2.5 -62.5q0 -41 -6 -79.5t-20.5 -76t-38 -74.5t-59.5 -76q-8 -9 -20.5 -21 t-27 -23t-30.5 -19t-31 -8q-13 0 -23 6q-21 11 -21 48q0 36 19.5 89.5t51.5 115.5t73 128.5t85 126.5q-6 39 -15.5 78t-22.5 78q-5 -13 -15 -37.5t-23 -53t-29.5 -58.5t-34.5 -54t-37 -39.5t-38 -15.5h-3q-18 1 -30.5 12t-20 27.5t-10.5 38.5t-3 46q0 30 4.5 60.5t11.5 56 t15.5 43t17.5 21.5q6 3 10 3q16 0 16 -17q0 -8 -7 -16q-8 -12 -14 -33t-10 -44.5t-5.5 -45.5t-1.5 -36q0 -31 6 -55t24 -26h1q14 0 30 18.5t33 47.5t33 63.5t29.5 66t22 55.5t11.5 32q2 8 6.5 12t9.5 4q12 0 18 -15q17 -44 30 -87.5t21 -88.5q42 54 76.5 87.5t56.5 37.5h4 q8 0 13 -5.5t5 -13.5q0 -14 -15 -17z"/>
<glyph glyph-name="thorn" horiz-adv-x="424" unicode="" d="M398 175q-3 -40 -19.5 -67.5t-40.5 -44.5t-52 -24.5t-53 -7.5q-28 0 -46 7q-12 4 -12 17q0 7 4.5 12.5t12.5 5.5q5 0 7 -1q15 -6 36 -6q19 0 40.5 6t40 19.5t31.5 34.5t15 51v3q0 9 -5 22.5t-14.5 26t-25 21.5t-36.5 9q-37 0 -65 -34t-47.5 -87.5t-31 -120.5t-17.5 -133 q-5 -51 -7.5 -94.5t-4.5 -75.5q-2 -38 -3 -70q-1 -9 -6.5 -13.5t-11.5 -4.5q-7 0 -12.5 4.5t-5.5 14.5q0 15 1.5 41t3.5 60.5t5 75t6 84.5q4 47 6.5 96t4.5 97t3 92t1 81v52t-2 38q-1 12 -3.5 40t-6 60t-8.5 61t-11 42q-6 4 -6 12t5.5 14t12.5 6t14 -7t12 -24 q17 -58 23 -131t6 -145q0 -42 -1 -81t-3 -73q23 69 59.5 114t89.5 45q31 0 53 -12.5t36.5 -30.5t21 -37.5t6.5 -34.5v-5z"/>
<glyph glyph-name="ydieresis" horiz-adv-x="393" unicode="" d="M163 347q5 -7 5 -12q0 -7 -5.5 -12t-13.5 -5h-1q-4 -4 -11 -4q-10 0 -20 11q-5 7 -5 11q0 8 5 13t12 6q4 4 12 4q11 0 22 -12zM258 347q0 -11 -7 -18.5t-16 -7.5t-16 6q-11 8 -11 19q0 16 16 18q7 5 15 5q7 0 12.5 -5t6.5 -16v-1zM327 16q-23 -33 -45 -69.5t-44 -74.5 q-5 -9 -23 -42t-37.5 -74.5t-35 -82.5t-15.5 -65q0 -12 4 -17q4 -2 7 -2q9 0 21.5 8t24.5 18.5t21.5 20l13.5 13.5q33 36 55 69.5t35 67t18 68t5 72.5q0 21 -1.5 43.5t-3.5 46.5zM491 198q-19 -4 -54 -41t-78 -96q5 -35 7.5 -67.5t2.5 -62.5q0 -41 -6 -79.5t-20.5 -76 t-38 -74.5t-59.5 -76q-8 -9 -20.5 -21t-27 -23t-30.5 -19t-31 -8q-13 0 -23 6q-21 11 -21 48q0 36 19.5 89.5t51.5 115.5t73 128.5t85 126.5q-6 39 -15.5 78t-22.5 78q-5 -13 -15 -37.5t-23 -53t-29.5 -58.5t-34.5 -54t-37 -39.5t-38 -15.5h-3q-18 1 -30.5 12t-20 27.5 t-10.5 38.5t-3 46q0 30 4.5 60.5t11.5 56t15.5 43t17.5 21.5q6 3 10 3q16 0 16 -17q0 -8 -7 -16q-8 -12 -14 -33t-10 -44.5t-5.5 -45.5t-1.5 -36q0 -31 6 -55t24 -26h1q14 0 30 18.5t33 47.5t33 63.5t29.5 66t22 55.5t11.5 32q2 8 6.5 12t9.5 4q12 0 18 -15q17 -44 30 -87.5 t21 -88.5q42 54 76.5 87.5t56.5 37.5h4q8 0 13 -5.5t5 -13.5q0 -14 -15 -17z"/>
<glyph glyph-name="Abreve" d="M606 979q-5 -18 -16 -33t-26.5 -26t-34.5 -17.5t-38 -6.5q-23 0 -44 10t-38 33q-7 9 -12.5 18.5t-9.5 20.5q-1 2 -1 5q0 7 6 12t12 5q10 0 14 -11q0 -1 4.5 -10.5t12.5 -20.5t19.5 -20.5t27.5 -9.5h4q22 0 38.5 7t27.5 17t16.5 19.5t6.5 14.5q2 7 6 10t9 3q6 0 11.5 -4 t5.5 -12q0 -1 -0.5 -1.5t-0.5 -2.5zM673 2q-2 -8 -7 -12t-11 -4q-7 0 -12.5 4.5t-5.5 12.5v4q2 14 3 32.5t1 41.5q0 50 -4 114t-10 130q-90 -29 -180 -56t-181 -52q-36 -63 -73 -122.5t-72 -107t-67.5 -78t-57.5 -34.5q-8 -2 -14.5 -2h-12.5q-32 0 -65 15q-13 6 -13 14 q0 7 7 11.5t18 4.5q8 0 12 -2q18 -7 39 -7q5 0 11 0.5t12 1.5q19 3 44.5 28t55 64.5t61.5 91.5t65 109l-44 -12t-44 -11q-4 -1 -14.5 -4t-23.5 -6t-26.5 -5t-23.5 -2q-7 0 -13 2q-11 5 -11 16q0 7 5 13t13 6q3 0 5 -1q9 0 28 3.5t45.5 10t59 15t68.5 18.5q33 60 65 119.5 t60 113t51 97.5t38 71q5 8 14 24t18 21q4 3 9 3q8 0 13 -6t5 -13q0 -10 -10 -16q-8 -9 -17 -25t-17.5 -33t-16.5 -33.5t-13 -26.5q-11 -21 -26.5 -51.5t-34.5 -67.5t-41 -78.5t-46 -84.5q50 14 101 29.5t95.5 29t80 25t55.5 17.5q-7 69 -14 130t-13 102q-6 46 -21.5 78 t-35.5 52.5t-41.5 29.5t-40.5 9h-7q-8 0 -13 5.5t-5 12.5q0 16 17 18h8q27 0 55 -12.5t52.5 -37t42.5 -62t25 -87.5q6 -42 13.5 -105t14.5 -135q3 -5 3 -11q0 -5 -1 -7q7 -70 11 -138t4 -122q0 -24 -1 -44.5t-3 -35.5z" unicode=""/>
<glyph glyph-name="abreve" horiz-adv-x="345" unicode="" d="M300 398q-5 -18 -16 -33t-26.5 -26t-34.5 -17.5t-38 -6.5q-23 0 -44 10t-38 33q-7 9 -12.5 18.5t-9.5 20.5q-1 2 -1 5q0 7 6 12t12 5q10 0 14 -11q0 -1 4.5 -10.5t12.5 -20.5t19.5 -20.5t27.5 -9.5h4q22 0 38.5 7t27.5 17t16.5 19.5t6.5 14.5q2 7 6 10t9 3q6 0 11.5 -4 t5.5 -12q0 -1 -0.5 -1.5t-0.5 -2.5zM416 57q-1 -1 -2 -3t-2.5 -3.5l-3.5 -3.5q-28 -31 -49 -44t-38 -13q-16 0 -28.5 10t-23 27t-20 39.5t-19.5 46.5q-10 -14 -25 -34t-33 -39t-38.5 -32t-41.5 -13q-12 0 -21 4q-25 11 -35.5 30t-10.5 44q0 30 14.5 64.5t37 64.5t50.5 51.5 t56 25.5q2 0 4.5 0.5t4.5 0.5q19 0 38.5 -9.5t33.5 -21.5q6 -5 6 -13t-5 -13.5t-13 -5.5q-5 0 -12 5q-21 20 -46 20q-26 0 -50 -19.5t-43 -46t-30 -55t-11 -46.5v-1q1 -20 10 -31t23 -11q11 0 24 8q15 10 31.5 29.5t32.5 40t28.5 35.5t20.5 16h2q15 0 25 -21t19.5 -46 t19.5 -46t25 -21h1q8 0 19 8t21 17.5t17.5 17.5t8.5 10q6 7 13 7q8 0 14 -5.5t6 -13.5q0 -4 -5 -11z"/>
<glyph glyph-name="Dcroat" horiz-adv-x="795" unicode="" d="M597 155q-44 -11 -88 -22.5t-86 -24.5t-80.5 -26.5t-69.5 -27.5q-46 -21 -74 -42.5t-28 -42.5q0 -7 3 -13q6 -13 26 -13q17 0 41.5 8t52 19.5t55.5 26t51.5 27.5t40 23t22.5 13q37 22 70.5 46t63.5 49zM478 382q-20 -2 -44.5 -3t-49.5 -1h-8q-2 -44 -3 -82t-2.5 -66.5 t-3 -46t-2.5 -20.5q-4 -12 -17 -12q-7 0 -12.5 4.5t-5.5 12.5q0 5 1 7q1 3 2 20t2 44t2.5 62.5t2.5 76.5q-22 1 -37.5 1.5t-20.5 0.5q-8 0 -12 5t-4 11t4 11t12 5q5 0 21 -0.5t38 -1.5q2 65 3 133.5t1 130.5q-91 36 -176.5 58.5t-145.5 27.5q-8 1 -12 6t-4 11q0 8 4.5 13.5 t13.5 5.5h2q57 -5 141.5 -26.5t176.5 -56.5q0 63 -2 104t-6 45q-6 6 -6 13t5.5 12.5t12.5 5.5t13 -6q4 -4 7 -20t5.5 -40.5t4 -57.5t1.5 -70q65 -27 127.5 -60.5t113.5 -72.5t87 -83t49 -92q3 -10 4 -19.5t1 -19.5q0 -34 -14.5 -67.5t-39.5 -66.5q26 5 45 6.5t33 1.5 q13 0 22.5 -0.5t17.5 -0.5q10 0 14 1h3q8 0 13 -5.5t5 -13.5q0 -6 -4 -11t-12 -6q-17 -3 -35 -3.5t-39 -1.5t-46.5 -4t-57.5 -10q-38 -39 -84.5 -74t-93.5 -64.5t-91.5 -52.5t-78.5 -38q-9 -4 -23 -9.5t-30 -11t-33 -9t-33 -3.5q-20 0 -35.5 7t-23.5 26q-5 11 -5 26 q0 33 33.5 63.5t89.5 56.5q40 19 88 36t99.5 32t104 27.5t101.5 22.5q34 37 54 74t20 72q0 17 -4 30q-11 42 -43.5 80.5t-78.5 74t-103 66.5t-117 57v-27q0 -55 -0.5 -112t-2.5 -111h6q23 0 47 1t44 3h3q7 0 11 -5t4 -11q0 -5 -3 -10t-11 -6z"/>
<glyph glyph-name="dcroat" horiz-adv-x="483" unicode="" d="M419 468q-18 0 -38 -2.5t-40 -4.5q-4 -36 -8.5 -73t-10.5 -78q1 -54 5 -111t14 -104.5t28 -78t46 -30.5t62 30q16 14 27 27t14 18q5 8 15 8q7 0 12.5 -4.5t5.5 -12.5q0 -6 -4 -11q-26 -38 -60.5 -64.5t-69.5 -27.5h-2q-27 0 -51.5 19.5t-42.5 65.5q-10 26 -16 59t-11 71 q-9 -31 -24 -62t-34 -56t-42.5 -40.5t-48.5 -15.5h-4q-24 1 -43 14t-32.5 33.5t-21 46t-7.5 51.5q0 28 9.5 53t30.5 42q17 13 42 13q19 0 38.5 -6t36 -14.5t28 -17t13.5 -13.5q2 -6 2 -8q0 -8 -6 -13t-13 -5q-5 0 -9.5 2.5t-6.5 8.5q-1 2 -9.5 7t-21 10t-27 9t-26.5 4 q-13 0 -19 -5q-14 -11 -20.5 -28t-6.5 -37t5.5 -39.5t15.5 -35.5t22.5 -26t27.5 -11h2q16 0 34.5 14t35 38t30 55.5t21.5 66.5q5 26 10 54.5t10 58.5v45v50.5t1 47.5q-6 -1 -12.5 -1h-12.5q-20 0 -38 3q-8 2 -11 7t-3 10q0 8 4.5 13.5t13.5 5.5h4q15 -3 34 -3h11t12 1 q2 33 3.5 64t3.5 62q0 8 1 26t2.5 38.5t3.5 39t5 27.5q6 16 16 16q9 0 17 -10.5t10 -25.5q1 -9 1.5 -22t0.5 -30q0 -48 -2 -91t-6 -88q20 2 38.5 4.5t35.5 2.5q9 0 13.5 -5.5t4.5 -12.5t-4.5 -12.5t-13.5 -5.5z"/>
<glyph glyph-name="Itilde" horiz-adv-x="411" unicode="" d="M426 980q-6 -11 -12 -24.5t-14 -26.5t-18 -22t-24 -11h-6q-15 0 -30 8t-29.5 19t-27.5 23t-24 21q-6 -6 -16.5 -21.5t-21.5 -38.5q-5 -8 -11 -8q-5 0 -9 4t-4 11q0 1 2 7q3 6 9 19t14 25.5t17.5 22t19.5 9.5q6 0 11 -4q11 -8 24 -20t27 -23t26 -18t23 -7h4q8 1 15 9.5 t13.5 20t11.5 23t8 17.5q4 7 11 7q13 0 13 -14q0 -2 -2 -8zM418 171q-32 -11 -64.5 -31t-61.5 -46q-17 -42 -35.5 -77t-36.5 -61q-12 -18 -26 -18q-20 0 -20 31q0 14 5 27q11 32 32.5 61t48.5 55q38 87 66 177.5t42 184.5q9 67 9 117q0 51 -8.5 85.5t-23 56.5t-34.5 31.5 t-43 9.5q-42 0 -90 -26.5t-89.5 -65t-71 -81.5t-35.5 -77q-1 -6 -1.5 -12t-0.5 -11q0 -33 14.5 -61t38 -48.5t51.5 -32t55 -12.5h4q22 0 41 8t31 25q6 7 14 7q7 0 13 -5t6 -12q0 -6 -4 -11q-18 -25 -45 -36.5t-56 -11.5h-4q-34 1 -69 15t-63 39t-45.5 59.5t-17.5 75.5 q0 15 3 30q5 29 21.5 61t41.5 62.5t56 58t65 48.5t69 34t68 14h5q29 0 54.5 -11.5t44.5 -37.5t30 -67t11 -101q0 -26 -2.5 -56.5t-7.5 -65.5q-4 -27 -11.5 -62.5t-19 -76.5t-25 -84.5t-29.5 -86.5q22 14 44 25.5t44 19.5q2 1 7 1q8 0 12.5 -5.5t4.5 -12.5q0 -5 -2.5 -9.5 t-9.5 -6.5z"/>
<glyph glyph-name="itilde" horiz-adv-x="177" unicode="" d="M211 399q-6 -11 -12 -24.5t-14 -26.5t-18 -22t-24 -11h-6q-15 0 -30 8t-29.5 19t-27.5 23t-24 21q-6 -6 -16.5 -21.5t-21.5 -38.5q-5 -8 -11 -8q-5 0 -9 4t-4 11q0 1 2 7q3 6 9 19t14 25.5t17.5 22t19.5 9.5q6 0 11 -4q11 -8 24 -20t27 -23t26 -18t23 -7h4q8 1 15 9.5 t13.5 20t11.5 23t8 17.5q4 7 11 7q13 0 13 -14q0 -2 -2 -8zM216 83q-11 -13 -20.5 -28.5t-20.5 -28.5t-25 -22t-33 -9h-6q-38 3 -51 33.5t-13 70.5q0 38 6.5 75t8.5 60q1 8 9 16.5t16 8.5q10 0 11 -19v-4q0 -11 -2 -22.5t-4 -22.5t-5.5 -37t-3.5 -53t6.5 -47.5t24.5 -22.5h2 q12 0 22 9t19 21t17 25t15 21q5 6 13 6t13.5 -5t5.5 -13q0 -5 -5 -12z"/>
<glyph glyph-name="dotlessi" horiz-adv-x="177" unicode="" d="M216 83q-11 -13 -20.5 -28.5t-20.5 -28.5t-25 -22t-33 -9h-6q-38 3 -51 33.5t-13 70.5q0 38 6.5 75t8.5 60q1 8 9 16.5t16 8.5q10 0 11 -19v-4q0 -11 -2 -22.5t-4 -22.5t-5.5 -37t-3.5 -53t6.5 -47.5t24.5 -22.5h2q12 0 22 9t19 21t17 25t15 21q5 6 13 6t13.5 -5t5.5 -13 q0 -5 -5 -12z"/>
<glyph glyph-name="Lslash" horiz-adv-x="486" unicode="" d="M181 -53q-21 7 -38 12.5t-31 9.5q-1 0 -14.5 4.5t-33 10t-41 9.5t-39.5 4q-15 0 -24.5 -3.5t-10.5 -14.5v-2q0 -13 11 -25.5t29.5 -22t42 -15t48.5 -5.5q28 0 54.5 9t46.5 29zM759 -139q-14 -14 -38.5 -20t-56.5 -6q-45 0 -102 10t-117 25t-119.5 32.5t-108.5 33.5 q-23 -29 -56.5 -46.5t-80.5 -17.5h-11t-12 1q-36 4 -63 15t-45 26.5t-27 33t-9 33.5q0 22 17 37t52 15h1q19 0 45 -5t55 -12.5t60 -17t61 -18.5q21 36 33.5 79.5t20.5 90.5t12.5 94.5t9.5 90.5q-42 -24 -77.5 -43.5t-59.5 -29.5q-6 -2 -7 -2q-8 0 -13 6t-5 13q0 12 11 16 q25 11 62 31.5t80 45.5l14 8l1 8q7 48 12.5 99.5t12.5 104t17.5 102.5t28.5 95q4 9 10 21t14.5 22.5t19 18t23.5 7.5q5 0 13 -2q14 -5 19 -16t5 -24q0 -7 -1 -14t-3 -13q-2 -8 -7 -11t-10 -3q-7 0 -12.5 4.5t-5.5 12.5q0 1 0.5 2t0.5 3q1 3 2 7.5t1 9.5q0 3 -2 9 q-17 -2 -31.5 -41.5t-27 -100t-23 -134.5t-18.5 -144q32 19 64 37t61 33q3 2 9 2q8 0 12.5 -5.5t4.5 -12.5q0 -10 -10 -16q-35 -18 -72 -39.5t-74 -43.5q-7 -63 -12 -112.5t-9 -73.5q-8 -50 -21 -104t-38 -99q20 -6 37 -11.5t31 -9.5t56 -17t95.5 -26.5t110 -24t99.5 -10.5 q23 0 40 4t26 13l3 4q6 6 12 6q8 0 14 -6t6 -14q0 -6 -6 -12z"/>
<glyph glyph-name="lslash" horiz-adv-x="292" unicode="" d="M344 443q-36 -19 -75 -41t-77 -45q-15 -85 -32.5 -165t-34.5 -143t-31.5 -103.5t-22.5 -44.5q-5 -3 -9 -3q-8 0 -13 6t-5 14q0 10 9 15q4 2 14.5 36t24.5 89.5t29.5 126.5t29.5 148q-39 -23 -72.5 -41t-56.5 -28q-6 -2 -7 -2q-8 0 -13 6t-5 13q0 12 11 16q25 11 62 31.5 t80 45.5l9 5q14 85 23.5 166.5t9.5 147.5q0 51 -7 88t-23 53q-3 3 -6 3q-7 0 -15.5 -7.5t-16.5 -17t-14 -18.5t-7 -11q-18 -31 -33 -78t-15 -95q0 -41 15.5 -74.5t54.5 -49.5q6 -2 8.5 -6.5t2.5 -9.5q0 -8 -4.5 -14t-12.5 -6q-1 0 -7 2q-50 20 -71 64t-21 97q0 45 12.5 91.5 t32.5 84t44.5 61.5t47.5 24q16 0 30 -14q21 -21 30 -66.5t9 -107.5t-7.5 -134.5t-19.5 -148.5q32 19 65.5 37.5t63.5 34.5q3 2 9 2q8 0 12.5 -5.5t4.5 -12.5q0 -10 -10 -16z"/>
<glyph glyph-name="OE" horiz-adv-x="1047" unicode="" d="M586 438q-1 70 -14 135t-37 115.5t-59 80.5t-81 30q-20 0 -42 -6q-2 -1 -6 -1q-8 0 -12.5 6t-4.5 13q0 2 0.5 2.5t0.5 2.5h-2q-13 0 -34.5 -8.5t-45.5 -29t-48.5 -54.5t-44.5 -84t-32.5 -118.5t-12.5 -157.5v-13q1 -90 19.5 -157.5t50 -113t73.5 -68.5t90 -23h12 q54 3 95 37.5t69.5 89t44.5 123.5t20 141l-11 1q-8 1 -12 6t-4 11q0 8 5 13.5t13 5.5h3l7 -1v22zM611 768q-27 0 -46.5 -1t-27.5 -3h-6q24 -30 42 -70.5t29 -87.5q3 47 5 88.5t4 73.5zM1113 31q-31 -18 -73.5 -33t-86 -26t-82 -17t-62.5 -6q-27 0 -60 12.5t-64.5 41.5 t-57 76.5t-36.5 117.5q-15 -50 -37 -93.5t-50.5 -76t-65 -52t-79.5 -22.5h-16q-69 0 -120 35t-84 93.5t-49 134.5t-16 157v7q0 89 17.5 172t52 148t85 107t116.5 50q2 0 4.5 0.5t4.5 0.5q16 0 33 -6t35 -14q6 -3 9 -7q24 -5 45 -18t39 -32q0 6 3.5 11t11.5 7q11 2 32.5 3 t50.5 2v1q0 9 5.5 13t12.5 4t12.5 -4.5t5.5 -13.5h86t91 -2q48 -2 92 -3t78 -3q40 -2 75 -3q9 0 13.5 -5.5t4.5 -12.5q0 -6 -4.5 -11.5t-13.5 -5.5h-1q-35 1 -75 3q-35 2 -78.5 2.5t-91.5 2.5t-93.5 2h-84.5q-2 -32 -4 -75.5t-5 -92t-6 -97.5t-6 -92q29 -4 69 -8.5t81 -8.5 t78.5 -7t60.5 -3q26 0 27 4q6 10 15 10q7 0 12.5 -5.5t5.5 -13.5t-8 -15.5t-28 -10.5q-23 -3 -53 -3q-29 0 -63 2.5t-68.5 6t-68 7.5t-62.5 8q-2 -25 -3 -44t-1 -33v-8q0 -91 21.5 -150t51.5 -93t62.5 -47.5t53.5 -13.5t57.5 5.5t77.5 16t81 24.5t69 31q4 3 10 3q8 0 13 -6 t5 -13q0 -9 -9 -15z"/>
<glyph glyph-name="oe" horiz-adv-x="526" unicode="" d="M200 206q-6 2 -13 2q-15 0 -36 -7.5t-40.5 -21.5t-33 -35t-13.5 -49q0 -13 3 -26q9 -35 33.5 -50.5t53.5 -15.5q17 0 33 5.5t28.5 15.5t20 24.5t7.5 32.5q0 20 -11.5 44t-37.5 52q-6 6 -6 12t3.5 10.5t8.5 6.5zM440 203q-9 18 -32 18q-14 0 -31 -7t-33.5 -18.5t-30.5 -27 t-23 -32.5l2 -1q15 -7 43 -7q18 0 37.5 4t35.5 11t26.5 17.5t10.5 24.5q0 8 -5 18zM574 91q-33 -36 -67 -57.5t-64 -33t-53.5 -15t-35.5 -3.5q-23 0 -46.5 14.5t-39.5 33.5q-10 -16 -25.5 -27.5t-33 -19.5t-35 -12t-32.5 -4h-7q-23 2 -42.5 12.5t-33.5 27t-22 37.5t-9 44v7 q0 28 11.5 55.5t37.5 48.5q24 20 55 32t57 12q17 0 31 -7q9 -5 9 -15q0 -13 -12 -18q1 -1 1.5 -1t1.5 -1q12 -13 21 -25t17 -23q11 21 28.5 40t38 33.5t42.5 22.5t42 8t36 -8.5t27 -28.5q10 -19 10 -36q0 -22 -13.5 -39t-34.5 -29t-47 -18.5t-51 -6.5q-33 0 -56 10 q1 -5 1.5 -10t0.5 -10v-7q2 -3 3.5 -6.5t3.5 -6.5q12 -18 31.5 -30.5t33.5 -12.5q9 0 29 3t46.5 13.5t57 29.5t60.5 52q6 6 13 6q8 0 13.5 -5.5t5.5 -13.5q0 -5 -5 -12z"/>
<glyph glyph-name="Scaron" horiz-adv-x="551" unicode="" d="M448 990q-5 -2 -11.5 -6t-14.5 -10t-17.5 -12t-18.5 -13q-18 -13 -34.5 -23.5t-23.5 -10.5q-10 0 -27 13q-11 8 -23 18t-25 21q-13 10 -25 18.5t-23 13.5q-9 4 -9 13q0 6 4 10.5t10 4.5q5 0 7 -1q29 -14 56 -37.5t53 -42.5q7 4 24.5 16.5t36.5 25t35.5 22.5t21.5 10 q17 0 17 -13q0 -11 -13 -17zM515 120q-4 -31 -25.5 -58t-53 -50t-71 -42.5t-78 -35t-74 -26.5t-60.5 -18q-2 -1 -6 -1q-8 0 -12.5 6t-4.5 13q0 13 13 17q20 6 52 16t68.5 24t73.5 31.5t67.5 38t51 43t23.5 47.5v3q0 21 -31.5 44.5t-79 50.5t-103 59.5t-103 71.5t-80.5 86 t-34 104v4q0 32 15 58.5t39 47t55 35.5t63 25t62 15t54 5h2q33 0 64.5 -10t56 -29t40 -45.5t16.5 -60.5v-3q0 -32 -12 -62t-28 -54t-31.5 -40.5t-22.5 -21.5q-5 -4 -12 -4q-8 0 -13 5.5t-5 12.5q0 8 7 14q6 5 19.5 19.5t27 35t24 45t10.5 49.5v3q0 24 -11.5 44t-31 34.5 t-45 23t-53.5 8.5h-2q-37 0 -81 -11t-82 -30.5t-63.5 -47.5t-25.5 -62v-2q1 -53 34 -95.5t80.5 -78.5t103 -67t103 -60t79 -57.5t31.5 -59.5v-7z"/>
<glyph glyph-name="scaron" horiz-adv-x="275" unicode="" d="M307 390q-5 -2 -11.5 -6t-14.5 -10t-17.5 -12t-18.5 -13q-18 -13 -34.5 -23.5t-23.5 -10.5q-10 0 -27 13q-11 8 -23 18t-25 21q-13 10 -25 18.5t-23 13.5q-9 4 -9 13q0 6 4 10.5t10 4.5q5 0 7 -1q29 -14 56 -37.5t53 -42.5q7 4 24.5 16.5t36.5 25t35.5 22.5t21.5 10 q17 0 17 -13q0 -11 -13 -17zM299 275q0 -6 -5 -10t-13 -4t-15 4q-8 3 -15 4.5t-18 1.5q-24 0 -55.5 -6t-60 -15.5t-48 -21t-19.5 -22.5v-2q1 -8 11.5 -15.5t26 -14t34.5 -13.5t39 -14q19 -7 36.5 -14.5t31.5 -16.5t23 -20t10 -24v-3q0 -19 -15.5 -35.5t-37 -28.5t-44.5 -19 t-37 -8h-2q-8 0 -12.5 5t-4.5 12t4 12t13 6q6 0 22.5 5.5t33.5 13t30.5 17.5t13.5 19v1q-2 14 -32.5 27t-68.5 27q-19 7 -37.5 14.5t-34 16.5t-25.5 20t-13 24q-1 3 -1 8q0 22 21.5 40t53 31.5t68.5 21t69 7.5q29 0 50 -6.5t23 -22.5v-2z"/>
<glyph glyph-name="Utilde" horiz-adv-x="695" unicode="" d="M606 980q-6 -11 -12 -24.5t-14 -26.5t-18 -22t-24 -11h-6q-15 0 -30 8t-29.5 19t-27.5 23t-24 21q-6 -6 -16.5 -21.5t-21.5 -38.5q-5 -8 -11 -8q-5 0 -9 4t-4 11q0 1 2 7q3 6 9 19t14 25.5t17.5 22t19.5 9.5q6 0 11 -4q11 -8 24 -20t27 -23t26 -18t23 -7h4q8 1 15 9.5 t13.5 20t11.5 23t8 17.5q4 7 11 7q13 0 13 -14q0 -2 -2 -8zM783 181q-11 -16 -31 -44.5t-45.5 -56.5t-54 -49t-55.5 -21q-11 0 -20 3q-20 7 -32.5 25.5t-19.5 43t-9.5 53t-2.5 55.5t1 50.5t3 39.5q5 69 15.5 143.5t21.5 144.5q-12 -31 -34.5 -86.5t-53 -120t-67.5 -131 t-78 -120.5t-85 -88.5t-88 -34.5q-18 0 -39 8q-17 7 -30 28.5t-22 50.5t-13.5 61t-4.5 59q0 68 11.5 136t30 130.5t42.5 117.5t48.5 97.5t48.5 68.5t43 32q2 1 6 1q8 0 13 -5.5t5 -13.5q0 -12 -13 -16q-12 -4 -31.5 -27t-41.5 -61t-44.5 -89t-40.5 -111t-29.5 -126 t-11.5 -134q0 -29 4.5 -57.5t11.5 -51.5t15.5 -38.5t15.5 -18.5q11 -5 26 -5q36 0 74.5 33t76 85t72.5 116t64 125t50 112t32 78q2 5 7.5 23.5t14.5 38.5t20.5 35.5t24.5 15.5q7 0 12 -4q3 -2 5.5 -7t2.5 -9v-1q-6 -45 -15.5 -103t-18 -121t-15 -126t-6.5 -117 q0 -23 1 -42.5t4 -37.5q6 -38 18 -54t28 -16q19 0 42 19t45 44.5t39.5 51t26.5 39.5q5 8 15 8q7 0 13 -5t6 -12q0 -6 -4 -11z"/>
<glyph glyph-name="utilde" horiz-adv-x="372" unicode="" d="M325 399q-6 -11 -12 -24.5t-14 -26.5t-18 -22t-24 -11h-6q-15 0 -30 8t-29.5 19t-27.5 23t-24 21q-6 -6 -16.5 -21.5t-21.5 -38.5q-5 -8 -11 -8q-5 0 -9 4t-4 11q0 1 2 7q3 6 9 19t14 25.5t17.5 22t19.5 9.5q6 0 11 -4q11 -8 24 -20t27 -23t26 -18t23 -7h4q8 1 15 9.5 t13.5 20t11.5 23t8 17.5q4 7 11 7q13 0 13 -14q0 -2 -2 -8zM438 60q4 -6 4 -10q0 -10 -10 -20q-15 -17 -33.5 -31.5t-42.5 -14.5q-27 0 -47.5 23.5t-30.5 66.5q-10 44 -11 96q-9 -14 -28.5 -41.5t-43.5 -54.5t-50 -47.5t-49 -20.5h-1q-17 0 -28 10.5t-17 25t-8.5 30.5 t-2.5 29q0 27 5.5 55t14 51.5t19 39t20.5 18.5q2 0 3 0.5t2 0.5q8 0 12.5 -6t4.5 -13q0 -5 -3 -10t-10 -7q-3 -1 -8.5 -12.5t-11.5 -30.5t-10.5 -43.5t-5.5 -51.5v-5q0 -20 6 -34t18 -14h1q14 0 30 12t32.5 30.5t33 40.5t30.5 43.5t25.5 39t17.5 27.5q4 6 9 12.5t13 6.5 t13 -5t5 -13v-2q-1 -6 -1 -16.5v-24.5q0 -24 2 -53t7.5 -55t15 -43.5t25.5 -18.5h1q15 0 28.5 12.5t22.5 22.5q10 10 20 10q7 0 12 -5z"/>
<glyph glyph-name="Ydieresis" horiz-adv-x="624" unicode="" d="M346 947q5 -7 5 -12q0 -7 -5.5 -12t-13.5 -5h-1q-4 -4 -11 -4q-10 0 -20 11q-5 7 -5 11q0 8 5 13t12 6q4 4 12 4q11 0 22 -12zM441 947q0 -11 -7 -18.5t-16 -7.5t-16 6q-11 8 -11 19q0 16 16 18q7 5 15 5q7 0 12.5 -5t6.5 -16v-1zM507 84q-68 -52 -125 -97t-98.5 -90.5 t-65.5 -94t-26 -106.5v-13q0 -75 26.5 -119t67.5 -44q8 0 12 1q51 8 85.5 40.5t56 81t33.5 107t18 118.5t9 116t7 100zM743 220q-44 -15 -94.5 -42.5t-103.5 -65.5q-12 -129 -21 -238.5t-31.5 -191.5t-66 -133.5t-123.5 -63.5q-5 -1 -9.5 -1h-9.5q-33 0 -57 17.5t-40 46.5 t-23.5 65t-7.5 74v10q2 66 30 121.5t75.5 107.5t111.5 102t138 104q3 29 6.5 69.5t8.5 87.5t11 96.5t13 96.5q-26 -47 -56.5 -97.5t-63.5 -99t-66 -92.5t-64.5 -77t-59 -52.5t-48.5 -19.5q-2 0 -3.5 0.5t-3.5 0.5q-24 4 -42.5 25t-32.5 53.5t-23.5 74.5t-15 89.5t-8 98 t-2.5 99.5t2 95t5.5 83.5t7.5 64.5t8 39t17 12q7 0 12.5 -4.5t5.5 -12.5q0 -5 -1 -7q-4 -12 -7.5 -37t-6.5 -59.5t-4.5 -77.5t-1.5 -89v-50.5t2 -51.5q1 -12 2.5 -39t5.5 -60.5t10.5 -69t16.5 -65.5t23.5 -51t32.5 -24h3q16 0 39.5 20t50 51t53.5 68t50 70t39 58t21 33 q4 6 18 29.5t32 55t38 67t36 67.5q9 41 19.5 67t21.5 31q7 3 12 3q8 0 11 -6.5t3 -14.5t-1 -15t-3 -12q-5 -13 -12.5 -30t-17.5 -38q-20 -82 -32 -193t-23 -233q48 32 94.5 56.5t87.5 38.5q2 1 7 1q8 0 12.5 -5.5t4.5 -12.5q0 -13 -12 -17z"/>
<glyph glyph-name="Zcaron" horiz-adv-x="561" unicode="" d="M546 990q-5 -2 -11.5 -6t-14.5 -10t-17.5 -12t-18.5 -13q-18 -13 -34.5 -23.5t-23.5 -10.5q-10 0 -27 13q-11 8 -23 18t-25 21q-13 10 -25 18.5t-23 13.5q-9 4 -9 13q0 6 4 10.5t10 4.5q5 0 7 -1q29 -14 56 -37.5t53 -42.5q7 4 24.5 16.5t36.5 25t35.5 22.5t21.5 10 q17 0 17 -13q0 -11 -13 -17zM96 -7h-1q-8 0 -13 -8t-5 -16t6 -8q9 0 40 29zM1105 -80q-20 -21 -55.5 -38.5t-78.5 -31t-90.5 -21t-91.5 -7.5h-19q-32 1 -72 9t-85 20t-93 26.5t-96 29.5q-57 18 -125.5 40.5t-134.5 35.5q-29 -28 -50 -43t-32 -15h-1q-20 2 -29.5 14.5 t-9.5 29.5q0 21 13.5 40t39.5 19h3q13 -1 27 -2.5t29 -4.5q43 44 104 116t129 162.5t137.5 195.5t129.5 216q-118 14 -236.5 23.5t-236.5 24.5q23 -20 31 -34q2 -6 2 -8q0 -8 -6 -13.5t-13 -5.5q-10 0 -15 11q-5 10 -27.5 27.5t-48.5 33.5h-1q-8 1 -23.5 2.5t-30.5 5.5 t-26.5 11.5t-11.5 21.5q0 11 7.5 17t17.5 6q15 0 37 -8.5t45 -22.5q22 -3 46.5 -6t46.5 -5t39.5 -4t26.5 -3q48 -5 100.5 -10t104 -10t100 -10t90.5 -10q15 29 28.5 57t26.5 57q7 15 20 15q8 0 15 -7t7 -19q0 -6 -1 -9q-2 -9 -8.5 -26.5t-16.5 -36.5t-22 -36t-25 -26 q-56 -106 -122.5 -209.5t-134 -196t-131 -168.5t-114.5 -128q32 -8 65 -17t64.5 -19t60 -19t51.5 -16q49 -15 96.5 -30t91 -26.5t81 -19t67.5 -8.5h18q42 0 86.5 7.5t84 19.5t71 28t48.5 33q6 6 13 6q8 0 13.5 -5.5t5.5 -13.5q0 -6 -6 -12z"/>
<glyph glyph-name="zcaron" horiz-adv-x="351" unicode="" d="M310 390q-5 -2 -11.5 -6t-14.5 -10t-17.5 -12t-18.5 -13q-18 -13 -34.5 -23.5t-23.5 -10.5q-10 0 -27 13q-11 8 -23 18t-25 21q-13 10 -25 18.5t-23 13.5q-9 4 -9 13q0 6 4 10.5t10 4.5q5 0 7 -1q29 -14 56 -37.5t53 -42.5q7 4 24.5 16.5t36.5 25t35.5 22.5t21.5 10 q17 0 17 -13q0 -11 -13 -17zM341 -99q-35 -30 -71 -64t-65 -66.5t-47.5 -60t-18.5 -44.5v-4q1 0 1.5 -0.5t1.5 -0.5q7 0 23.5 8t37.5 21.5t44.5 31t44.5 37.5q28 26 47.5 54t19.5 52q0 22 -18 36zM463 -4q-13 -8 -38 -26.5t-56 -44.5q22 -22 25 -54v-5q0 -29 -20.5 -62 t-51.5 -65q-22 -22 -48.5 -42.5t-52.5 -36t-50 -25t-41 -9.5q-29 0 -29 34q0 2 0.5 5t0.5 6q2 22 21 52t48 63.5t64.5 68t70.5 65.5q-14 5 -32 8t-41 5q-11 1 -31 1t-42 1t-42 3t-30 7l-7.5 5t-6.5 9q-1 2 -1 5q0 7 5 14.5t12 14.5t14.5 12.5t11.5 8.5q8 6 24 19t35 30 t39 36t36.5 38.5t27 37t10.5 31.5q0 8 -2 11q-3 6 -18 6q-20 0 -53.5 -9t-66.5 -22t-57 -27.5t-24 -24.5v-4q0 -8 -5.5 -13t-13.5 -5q-6 0 -11 4t-6 12v4q0 20 24.5 41t60 38t76 27.5t73.5 10.5h2q28 0 45 -10t17 -32q0 -28 -29 -71q-14 -21 -33.5 -41.5t-41.5 -40.5 t-44 -38.5t-42 -34.5l-16 -13q19 -2 46.5 -2t56.5 -2.5t58 -7.5t53 -16q35 29 63.5 51t44.5 31q4 3 9 3q8 0 13 -6t5 -14q0 -10 -9 -15z"/>
<glyph glyph-name="florin" horiz-adv-x="343" unicode="" d="M568 726q0 -9 -5.5 -13.5t-11.5 -4.5q-7 0 -12.5 4.5t-5.5 13.5v7q0 70 -13.5 103t-36.5 33q-20 0 -45 -24.5t-52 -71.5q-26 -44 -45.5 -99t-35.5 -117.5t-29.5 -130.5t-26.5 -137q46 4 85.5 7t55.5 4h2q8 0 13 -5.5t5 -12.5q0 -16 -17 -18q-29 -3 -49.5 -4.5t-37.5 -3 t-32 -2.5t-32 -2q-20 -101 -42 -199t-53.5 -180.5t-75.5 -144t-107 -89.5q-6 -2 -8 -2q-8 0 -13 5.5t-5 12.5q0 5 2.5 9.5t8.5 6.5q50 22 86.5 68t64 109t48 140.5t37.5 163.5q5 23 9 47t9 50q-42 -4 -71.5 -7.5t-33.5 -5.5q-3 -2 -9 -2q-8 0 -12.5 5.5t-4.5 12.5 q0 10 10 16q4 2 16 4.5t29 4.5t38.5 4.5t44.5 4.5q12 65 25 133t30.5 134t39 126.5t50.5 110.5q33 57 67.5 86t63.5 29q35 0 58.5 -42t23.5 -129v-8z"/>
<glyph glyph-name="Ohorn" horiz-adv-x="653" unicode="" d="M545 234q-23 -3 -44 -3q-33 0 -64.5 8.5t-58.5 27.5t-49 49.5t-37 73.5q-8 26 -8 51q0 37 14.5 74.5t41 68t62 49.5t77.5 19q15 0 30 -3q4 0 6 -1q-5 31 -14.5 59.5t-24 50.5t-34 36t-44.5 16q-3 0 -6 0.5t-6 0.5q-55 0 -103.5 -40.5t-85 -106t-59 -149t-24.5 -169.5v-29 q0 -69 9 -132.5t28 -113.5t49 -82.5t73 -38.5q5 -1 11 -1.5t11 -0.5q29 0 55.5 11t49.5 30t43.5 44t37.5 54q21 35 37 73.5t27 73.5zM564 315q2 11 3 33t1 50q0 36 -3 76t-12 72q-5 -56 -18 -101.5t-31 -67.5q-6 -7 -13 -7t-12.5 5.5t-5.5 13.5q0 6 4 11q21 25 32 73t11 103 v15.5t-1 15.5q-7 5 -17 7q-6 1 -12 1.5t-11 0.5q-33 0 -62 -15.5t-50.5 -40.5t-34 -56t-12.5 -61q0 -22 6 -41q24 -72 73 -103t107 -31q22 0 50 5q3 11 4.5 22t3.5 20zM761 356q-31 -38 -76.5 -68t-97.5 -45q-13 -49 -33.5 -97.5t-48.5 -90.5q-41 -62 -95 -102t-117 -40 q-6 0 -12.5 0.5t-13.5 1.5q-49 7 -85 40.5t-60 85t-35.5 117t-11.5 137.5v22q2 95 24 189.5t61.5 170.5t95.5 123t128 47q5 0 8.5 -0.5t8.5 -0.5q39 -3 67 -23t46 -50.5t28 -68.5q8 -32 11 -66q-8 3 -12.5 0.5t-6.5 -7.5t0 -11t8 -10q12 -6 28 -8q16 -28 24 -68 q11 -58 11 -119q0 -37 -2.5 -71t-7.5 -61q41 14 76.5 39t61.5 57q6 7 14 7q7 0 12.5 -5t5.5 -13q0 -7 -4 -12zM625 648q-3 -8 -12.5 -11.5t-20.5 -4.5t-21.5 0.5t-17.5 5.5v0q1 -7 1 -14q9 -10 16 -22h2h12q11 0 20 1q38 7 50 31q8 14 8 34q0 13 -3 27q-2 10 -6 22t-12 19 q-6 4 -11 4q-4 0 -8 -3q-8 -7 -4 -17q-2 -3 1 -11t6 -18t4 -21.5t-4 -21.5z"/>
<glyph glyph-name="ohorn" horiz-adv-x="278" unicode="" d="M255 206q5 -1 10 -1q13 1 23 5q13 6 17 13q5 10 0.5 19t-12.5 15.5t-16 10.5t-11 6q-11 4 -11 14t13 12q6 1 12 1q7 1 14 -1q12 -4 20 -9q16 -10 22 -29q3 -10 2.5 -19t-2.5 -19q-6 -19 -23.5 -33.5t-45.5 -14.5h-24t-10 -7q33 -36 33 -71v-1q0 -27 -14 -50.5 t-36.5 -41.5t-49.5 -28.5t-54 -10.5h-3q-34 0 -60 19.5t-34 64.5q-1 4 -1 12q0 27 13.5 59t33.5 59.5t42 46.5t39 19q9 0 13.5 -5.5t4.5 -12.5t-4.5 -12.5t-13.5 -5.5q-6 0 -21.5 -15t-31.5 -36.5t-28 -47t-12 -46.5q0 -2 0.5 -4.5t0.5 -4.5q5 -29 22.5 -42t40.5 -13 q18 0 38 7.5t36.5 20.5t28 30t13.5 36v5q0 12 -6 22t-13.5 18.5t-15.5 15.5t-11 13q-2 2 -3 8t-1 12.5t1.5 11.5t3.5 7q6 4 14.5 4.5t18.5 -1l20 -3t18 -2.5z"/>
<glyph glyph-name="Uhorn" horiz-adv-x="695" unicode="" d="M783 181q-11 -16 -31 -44.5t-45.5 -56.5t-54 -49t-55.5 -21q-11 0 -20 3q-20 7 -32.5 25.5t-19.5 43t-9.5 53t-2.5 55.5t1 50.5t3 39.5q5 69 15.5 143.5t21.5 144.5q-12 -31 -34.5 -86.5t-53 -120t-67.5 -131t-78 -120.5t-85 -88.5t-88 -34.5q-18 0 -39 8q-17 7 -30 28.5 t-22 50.5t-13.5 61t-4.5 59q0 68 11.5 136t30 130.5t42.5 117.5t48.5 97.5t48.5 68.5t43 32q2 1 6 1q8 0 13 -5.5t5 -13.5q0 -12 -13 -16q-12 -4 -31.5 -27t-41.5 -61t-44.5 -89t-40.5 -111t-29.5 -126t-11.5 -134q0 -29 4.5 -57.5t11.5 -51.5t15.5 -38.5t15.5 -18.5 q11 -5 26 -5q36 0 74.5 33t76 85t72.5 116t64 125t50 112t32 78q2 5 7.5 23.5t14.5 38.5t20.5 35.5t24.5 15.5q7 0 12 -4q3 -2 5.5 -7t2.5 -9v-1q-2 -15 -4 -31q-7 2 -13 5q-8 3 -12.5 0.5t-6.5 -7.5t0 -11t8 -10q9 -5 19 -7q-3 -20 -7 -42q-10 -58 -18 -121t-14.5 -126 t-6.5 -117q0 -23 1 -42.5t4 -37.5q6 -38 18 -54t28 -16q19 0 42 19t45 44.5t39.5 51t26.5 39.5q5 8 15 8q7 0 13 -5t6 -12q0 -6 -4 -11zM659 648q-3 -8 -12.5 -11.5t-20.5 -4.5q-12 -2 -22 0q-2 0 -4 1q-2 -14 -5 -30q5 -1 11 -1h12q11 0 20 1q38 7 50 31q8 14 8 34 q0 13 -3 27q-2 10 -6 22t-12 19q-6 4 -11 4q-4 0 -8 -3q-8 -7 -4 -17q-2 -3 1 -11t6 -18t4 -21.5t-4 -21.5z"/>
<glyph glyph-name="uhorn" horiz-adv-x="372" unicode="" d="M438 60q4 -6 4 -10q0 -10 -10 -20q-15 -17 -33.5 -31.5t-42.5 -14.5q-27 0 -47.5 23.5t-30.5 66.5q-10 44 -11 96q-9 -14 -28.5 -41.5t-43.5 -54.5t-50 -47.5t-49 -20.5h-1q-17 0 -28 10.5t-17 25t-8.5 30.5t-2.5 29q0 27 5.5 55t14 51.5t19 39t20.5 18.5q2 0 3 0.5 t2 0.5q8 0 12.5 -6t4.5 -13q0 -5 -3 -10t-10 -7q-3 -1 -8.5 -12.5t-11.5 -30.5t-10.5 -43.5t-5.5 -51.5v-5q0 -20 6 -34t18 -14h1q14 0 30 12t32.5 30.5t33 40.5t30.5 43.5t25.5 39t17.5 27.5q4 6 9 12.5t13 6.5t13 -5t5 -13v-2q-1 -3 -1 -8q-6 2 -10 4q-8 3 -12.5 0.5 t-6.5 -7.5t0 -11t8 -10q10 -6 21 -7v-2q0 -24 2 -53t7.5 -55t15 -43.5t25.5 -18.5h1q15 0 28.5 12.5t22.5 22.5q10 10 20 10q7 0 12 -5zM366 237q-3 -8 -12.5 -11.5t-20.5 -4.5t-21 1q-4 1 -8 1v-9v-22q3 0 5.5 -0.5t5.5 -0.5q11 0 22 2q65 12 65 68q0 11 -2 23q-2 10 -6 22 t-12 19q-6 4 -11 4t-9 -3q-8 -7 -3 -17q-2 -3 1 -11t6 -18t4 -21.5t-4 -21.5z"/>
<glyph glyph-name="circumflex" horiz-adv-x="500" unicode="" d="M375 342q8 -4 8 -13q0 -5 -4 -10t-10 -5q-4 0 -6 1q-14 7 -27 17t-26 21t-25 22t-24 20q-7 -5 -23 -16.5t-34 -24.5t-33.5 -22.5t-20.5 -9.5q-12 0 -16.5 3.5t-4.5 8.5q0 10 7 12q16 8 27.5 15.5t22.5 15.5q14 11 28 21.5t28 20.5q7 6 13 7q2 0 2.5 0.5t2.5 0.5 q9 0 25 -13q10 -8 21 -18t23 -21q12 -10 23.5 -19t22.5 -14z"/>
<glyph glyph-name="caron" horiz-adv-x="500" unicode="" d="M384 390q-5 -2 -11.5 -6t-14.5 -10t-17.5 -12t-18.5 -13q-18 -13 -34.5 -23.5t-23.5 -10.5q-10 0 -27 13q-11 8 -23 18t-25 21q-13 10 -25 18.5t-23 13.5q-9 4 -9 13q0 6 4 10.5t10 4.5q5 0 7 -1q29 -14 56 -37.5t53 -42.5q7 4 24.5 16.5t36.5 25t35.5 22.5t21.5 10 q17 0 17 -13q0 -11 -13 -17z"/>
<glyph glyph-name="uni02C9" horiz-adv-x="500" unicode="" d="M359 342q-20 -2 -44.5 -3t-49.5 -1q-36 0 -65.5 1t-36.5 1q-8 0 -12 5t-4 11t4 11t12 5q7 0 36 -1t65 -1q23 0 47 1t44 3h3q7 0 11 -5t4 -11q0 -5 -3 -10t-11 -6z"/>
<glyph glyph-name="breve" horiz-adv-x="500" unicode="" d="M373 398q-5 -18 -16 -33t-26.5 -26t-34.5 -17.5t-38 -6.5q-23 0 -44 10t-38 33q-7 9 -12.5 18.5t-9.5 20.5q-1 2 -1 5q0 7 6 12t12 5q10 0 14 -11q0 -1 4.5 -10.5t12.5 -20.5t19.5 -20.5t27.5 -9.5h4q22 0 38.5 7t27.5 17t16.5 19.5t6.5 14.5q2 7 6 10t9 3q6 0 11.5 -4 t5.5 -12q0 -1 -0.5 -1.5t-0.5 -2.5z"/>
<glyph glyph-name="dotaccent" horiz-adv-x="500" unicode="" d="M291 362q0 -17 -10.5 -23t-20.5 -6h-2q-18 1 -25 11t-9 23q0 2 -0.5 3t-0.5 2q0 7 4.5 12t10 7.5t10.5 3.5t7 1h1q9 0 16 -4q6 -3 11.5 -9t7.5 -16v-5z"/>
<glyph glyph-name="ring" horiz-adv-x="500" unicode="" d="M311 390q0 23 -8.5 31t-19 9.5t-21 1.5t-13.5 8q-17 -4 -29 -17t-12 -33q0 -19 15.5 -33.5t35.5 -14.5q29 0 40.5 14t11.5 34zM338 390q0 -30 -19 -52.5t-60 -22.5q-15 0 -29 6t-25 16t-17.5 23.5t-6.5 29.5q0 30 21 54.5t59 24.5q8 0 12 -7h3q27 0 44.5 -21.5 t17.5 -50.5z"/>
<glyph glyph-name="ogonek" horiz-adv-x="500" unicode="" d="M276 -134q-9 -4 -23 -4q-12 0 -24 3.5t-22 9.5t-16.5 15.5t-7.5 21.5v1q0 12 7 24t17.5 23t22.5 20t21 15q4 3 9 3q7 0 11.5 -5.5t4.5 -11.5q0 -8 -8 -13q-5 -3 -13 -9t-16 -13.5t-14.5 -15t-6.5 -11.5v-1q0 -7 9.5 -16t23.5 -9q9 0 13 2q2 1 7 1q7 0 11 -5t4 -11 q0 -10 -10 -14z"/>
<glyph glyph-name="tilde" horiz-adv-x="500" unicode="" d="M386 399q-6 -11 -12 -24.5t-14 -26.5t-18 -22t-24 -11h-6q-15 0 -30 8t-29.5 19t-27.5 23t-24 21q-6 -6 -16.5 -21.5t-21.5 -38.5q-5 -8 -11 -8q-5 0 -9 4t-4 11q0 1 2 7q3 6 9 19t14 25.5t17.5 22t19.5 9.5q6 0 11 -4q11 -8 24 -20t27 -23t26 -18t23 -7h4q8 1 15 9.5 t13.5 20t11.5 23t8 17.5q4 7 11 7q13 0 13 -14q0 -2 -2 -8z"/>
<glyph glyph-name="hungarumlaut" horiz-adv-x="500" unicode="" d="M323 421q2 -6 2 -7q0 -7 -5.5 -11.5t-11.5 -4.5t-10 4q-8 -4 -20 -14.5t-24 -22.5t-22 -24t-16 -19q-6 -6 -12 -6q-7 0 -12 4.5t-5 11.5q0 6 4 10q7 8 15 17q7 8 15 17t18 19q4 4 11.5 11t16.5 13.5t18 11t18 4.5q13 0 20 -14zM454 421q2 -6 2 -7q0 -7 -5.5 -11.5 t-11.5 -4.5t-10 4q-8 -4 -20 -14.5t-24 -22.5t-22 -24t-16 -19q-6 -6 -12 -6q-7 0 -12 4.5t-5 11.5q0 6 4 10q7 8 15 17q7 8 15.5 17t18.5 19q4 4 11.5 11t16 13.5t18 11t17.5 4.5q13 0 20 -14z"/>
<glyph glyph-name="hookabovecomb" horiz-adv-x="324" unicode="" d="M133 407q-9 -9 -19 -5q-8 4 -9 12q0 3 1 6q3 11 10.5 19t17 13t20.5 6h7q7 0 14 -1q17 -3 31 -17q15 -15 14 -39q0 -17 -8 -27q-9 -12 -20.5 -20.5t-22 -15t-11.5 -12.5q-2 -8 -8 -10q-3 -1 -6 -1q-2 1 -4 1q-5 2 -8.5 6.5t-1.5 11.5q3 14 15.5 22.5t24 16t18 15.5 t-1.5 22t-19 16t-23 -3q-5 -1 -7 -5t-4 -11z"/>
<glyph glyph-name="dotbelowcomb" horiz-adv-x="500" unicode="" d="M291 -171q0 -17 -10.5 -23t-20.5 -6h-2q-18 1 -25 11t-9 23q0 2 -0.5 3t-0.5 2q0 7 4.5 12t10 7.5t10.5 3.5t7 1h1q9 0 16 -4q6 -3 11.5 -9t7.5 -16v-5z"/>
<glyph glyph-name="uni03A9" horiz-adv-x="655" unicode="" d="M410 0v32q25 21 52.5 51.5t50.5 72.5t38.5 97t15.5 126q0 64 -15.5 119.5t-45.5 96.5t-74 64t-102 23q-56 0 -101 -23t-76.5 -63.5t-49 -95.5t-17.5 -119q0 -69 14.5 -123t37.5 -96t51.5 -74t56.5 -56v-32h-192v32h146q-23 19 -48.5 50t-47.5 74t-36.5 98.5t-14.5 124.5 q0 70 20 131t56 106t87 70.5t113 25.5q63 0 113.5 -24t86 -67.5t54 -104.5t18.5 -136q0 -62 -13.5 -115.5t-35 -98t-47.5 -78.5t-51 -56h148v-32h-192z"/>
<glyph glyph-name="uni03BC" horiz-adv-x="523" unicode="" d="M404 0q0 23 -0.5 46t-0.5 46q-26 -56 -63.5 -81t-88.5 -25h-4q-48 1 -79 21.5t-48 51.5h-2q-1 0 -1 1v-251h-32v691h32v-287q0 -42 8 -77.5t25 -61t43 -40t62 -14.5q34 0 62 16t47 43.5t29.5 65t10.5 80.5v275h33v-500h-33z"/>
<glyph glyph-name="pi" horiz-adv-x="563" unicode="" d="M533 3q-8 -5 -20 -7t-23 -2q-50 0 -73 32.5t-23 79.5v361h-220v-345q0 -34 -3 -67t-8 -55h-36q7 26 9.5 59t2.5 61v347q-10 0 -23 -1.5t-26.5 -4t-26 -6t-21.5 -7.5l-6 16l-6 16q15 6 44 13t73 7h386v-33h-104v-361q0 -35 15 -56.5t50 -21.5q11 0 29 5z"/>
<glyph glyph-name="uni1EA0" d="M673 2q-2 -8 -7 -12t-11 -4q-7 0 -12.5 4.5t-5.5 12.5v4q2 14 3 32.5t1 41.5q0 50 -4 114t-10 130q-90 -29 -180 -56t-181 -52q-36 -63 -73 -122.5t-72 -107t-67.5 -78t-57.5 -34.5q-8 -2 -14.5 -2h-12.5q-32 0 -65 15q-13 6 -13 14q0 7 7 11.5t18 4.5q8 0 12 -2 q18 -7 39 -7q5 0 11 0.5t12 1.5q19 3 44.5 28t55 64.5t61.5 91.5t65 109l-44 -12t-44 -11q-4 -1 -14.5 -4t-23.5 -6t-26.5 -5t-23.5 -2q-7 0 -13 2q-11 5 -11 16q0 7 5 13t13 6q3 0 5 -1q9 0 28 3.5t45.5 10t59 15t68.5 18.5q33 60 65 119.5t60 113t51 97.5t38 71q5 8 14 24 t18 21q4 3 9 3q8 0 13 -6t5 -13q0 -10 -10 -16q-8 -9 -17 -25t-17.5 -33t-16.5 -33.5t-13 -26.5q-11 -21 -26.5 -51.5t-34.5 -67.5t-41 -78.5t-46 -84.5q50 14 101 29.5t95.5 29t80 25t55.5 17.5q-7 69 -14 130t-13 102q-6 46 -21.5 78t-35.5 52.5t-41.5 29.5t-40.5 9h-7 q-8 0 -13 5.5t-5 12.5q0 16 17 18h8q27 0 55 -12.5t52.5 -37t42.5 -62t25 -87.5q6 -42 13.5 -105t14.5 -135q3 -5 3 -11q0 -5 -1 -7q7 -70 11 -138t4 -122q0 -24 -1 -44.5t-3 -35.5zM434 -171q0 -17 -10.5 -23t-20.5 -6h-2q-18 1 -25 11t-9 23q0 2 -0.5 3t-0.5 2q0 7 4.5 12 t10 7.5t10.5 3.5t7 1h1q9 0 16 -4q6 -3 11.5 -9t7.5 -16v-5z" unicode=""/>
<glyph glyph-name="uni1EA1" horiz-adv-x="345" unicode="" d="M416 57q-1 -1 -2 -3t-2.5 -3.5l-3.5 -3.5q-28 -31 -49 -44t-38 -13q-16 0 -28.5 10t-23 27t-20 39.5t-19.5 46.5q-10 -14 -25 -34t-33 -39t-38.5 -32t-41.5 -13q-12 0 -21 4q-25 11 -35.5 30t-10.5 44q0 30 14.5 64.5t37 64.5t50.5 51.5t56 25.5q2 0 4.5 0.5t4.5 0.5 q19 0 38.5 -9.5t33.5 -21.5q6 -5 6 -13t-5 -13.5t-13 -5.5q-5 0 -12 5q-21 20 -46 20q-26 0 -50 -19.5t-43 -46t-30 -55t-11 -46.5v-1q1 -20 10 -31t23 -11q11 0 24 8q15 10 31.5 29.5t32.5 40t28.5 35.5t20.5 16h2q15 0 25 -21t19.5 -46t19.5 -46t25 -21h1q8 0 19 8 t21 17.5t17.5 17.5t8.5 10q6 7 13 7q8 0 14 -5.5t6 -13.5q0 -4 -5 -11zM187 -102q0 -17 -10.5 -23t-20.5 -6h-2q-18 1 -25 11t-9 23q0 2 -0.5 3t-0.5 2q0 7 4.5 12t10 7.5t10.5 3.5t7 1h1q9 0 16 -4q6 -3 11.5 -9t7.5 -16v-5z"/>
<glyph glyph-name="uni1EA2" d="M673 2q-2 -8 -7 -12t-11 -4q-7 0 -12.5 4.5t-5.5 12.5v4q2 14 3 32.5t1 41.5q0 50 -4 114t-10 130q-90 -29 -180 -56t-181 -52q-36 -63 -73 -122.5t-72 -107t-67.5 -78t-57.5 -34.5q-8 -2 -14.5 -2h-12.5q-32 0 -65 15q-13 6 -13 14q0 7 7 11.5t18 4.5q8 0 12 -2 q18 -7 39 -7q5 0 11 0.5t12 1.5q19 3 44.5 28t55 64.5t61.5 91.5t65 109l-44 -12t-44 -11q-4 -1 -14.5 -4t-23.5 -6t-26.5 -5t-23.5 -2q-7 0 -13 2q-11 5 -11 16q0 7 5 13t13 6q3 0 5 -1q9 0 28 3.5t45.5 10t59 15t68.5 18.5q33 60 65 119.5t60 113t51 97.5t38 71q5 8 14 24 t18 21q4 3 9 3q8 0 13 -6t5 -13q0 -10 -10 -16q-8 -9 -17 -25t-17.5 -33t-16.5 -33.5t-13 -26.5q-11 -21 -26.5 -51.5t-34.5 -67.5t-41 -78.5t-46 -84.5q50 14 101 29.5t95.5 29t80 25t55.5 17.5q-7 69 -14 130t-13 102q-6 46 -21.5 78t-35.5 52.5t-41.5 29.5t-40.5 9h-7 q-8 0 -13 5.5t-5 12.5q0 16 17 18h8q27 0 55 -12.5t52.5 -37t42.5 -62t25 -87.5q6 -42 13.5 -105t14.5 -135q3 -5 3 -11q0 -5 -1 -7q7 -70 11 -138t4 -122q0 -24 -1 -44.5t-3 -35.5zM331 988q-9 -9 -19 -5q-8 4 -9 12q0 3 1 6q3 11 10.5 19t17 13t20.5 6h7q7 0 14 -1 q17 -3 31 -17q15 -15 14 -39q0 -17 -8 -27q-9 -12 -20.5 -20.5t-22 -15t-11.5 -12.5q-2 -8 -8 -10q-3 -1 -6 -1q-2 1 -4 1q-5 2 -8.5 6.5t-1.5 11.5q3 14 15.5 22.5t24 16t18 15.5t-1.5 22t-19 16t-23 -3q-5 -1 -7 -5t-4 -11z" unicode=""/>
<glyph glyph-name="uni1EA3" horiz-adv-x="345" unicode="" d="M416 57q-1 -1 -2 -3t-2.5 -3.5l-3.5 -3.5q-28 -31 -49 -44t-38 -13q-16 0 -28.5 10t-23 27t-20 39.5t-19.5 46.5q-10 -14 -25 -34t-33 -39t-38.5 -32t-41.5 -13q-12 0 -21 4q-25 11 -35.5 30t-10.5 44q0 30 14.5 64.5t37 64.5t50.5 51.5t56 25.5q2 0 4.5 0.5t4.5 0.5 q19 0 38.5 -9.5t33.5 -21.5q6 -5 6 -13t-5 -13.5t-13 -5.5q-5 0 -12 5q-21 20 -46 20q-26 0 -50 -19.5t-43 -46t-30 -55t-11 -46.5v-1q1 -20 10 -31t23 -11q11 0 24 8q15 10 31.5 29.5t32.5 40t28.5 35.5t20.5 16h2q15 0 25 -21t19.5 -46t19.5 -46t25 -21h1q8 0 19 8 t21 17.5t17.5 17.5t8.5 10q6 7 13 7q8 0 14 -5.5t6 -13.5q0 -4 -5 -11zM143 407q-9 -9 -19 -5q-8 4 -9 12q0 3 1 6q3 11 10.5 19t17 13t20.5 6h7q7 0 14 -1q17 -3 31 -17q15 -15 14 -39q0 -17 -8 -27q-9 -12 -20.5 -20.5t-22 -15t-11.5 -12.5q-2 -8 -8 -10q-3 -1 -6 -1 q-2 1 -4 1q-5 2 -8.5 6.5t-1.5 11.5q3 14 15.5 22.5t24 16t18 15.5t-1.5 22t-19 16t-23 -3q-5 -1 -7 -5t-4 -11z"/>
<glyph glyph-name="uni1EA4" d="M621 942q8 -4 8 -13q0 -5 -4 -10t-10 -5q-4 0 -6 1q-14 7 -27 17t-26 21t-25 22t-24 20q-7 -5 -23 -16.5t-34 -24.5t-33.5 -22.5t-20.5 -9.5q-12 0 -16.5 3.5t-4.5 8.5q0 10 7 12q16 8 27.5 15.5t22.5 15.5q14 11 28 21.5t28 20.5q7 6 13 7q2 0 2.5 0.5t2.5 0.5 q9 0 25 -13q10 -8 21 -18t23 -21q12 -10 23.5 -19t22.5 -14zM673 2q-2 -8 -7 -12t-11 -4q-7 0 -12.5 4.5t-5.5 12.5v4q2 14 3 32.5t1 41.5q0 50 -4 114t-10 130q-90 -29 -180 -56t-181 -52q-36 -63 -73 -122.5t-72 -107t-67.5 -78t-57.5 -34.5q-8 -2 -14.5 -2h-12.5 q-32 0 -65 15q-13 6 -13 14q0 7 7 11.5t18 4.5q8 0 12 -2q18 -7 39 -7q5 0 11 0.5t12 1.5q19 3 44.5 28t55 64.5t61.5 91.5t65 109l-44 -12t-44 -11q-4 -1 -14.5 -4t-23.5 -6t-26.5 -5t-23.5 -2q-7 0 -13 2q-11 5 -11 16q0 7 5 13t13 6q3 0 5 -1q9 0 28 3.5t45.5 10t59 15 t68.5 18.5q33 60 65 119.5t60 113t51 97.5t38 71q5 8 14 24t18 21q4 3 9 3q8 0 13 -6t5 -13q0 -10 -10 -16q-8 -9 -17 -25t-17.5 -33t-16.5 -33.5t-13 -26.5q-11 -21 -26.5 -51.5t-34.5 -67.5t-41 -78.5t-46 -84.5q50 14 101 29.5t95.5 29t80 25t55.5 17.5q-7 69 -14 130 t-13 102q-6 46 -21.5 78t-35.5 52.5t-41.5 29.5t-40.5 9h-7q-8 0 -13 5.5t-5 12.5q0 16 17 18h8q27 0 55 -12.5t52.5 -37t42.5 -62t25 -87.5q6 -42 13.5 -105t14.5 -135q3 -5 3 -11q0 -5 -1 -7q7 -70 11 -138t4 -122q0 -24 -1 -44.5t-3 -35.5zM736 1066q-5 -8 -17 -17.5 t-26.5 -19t-30.5 -18t-30 -14.5q-8 -4 -16 -4q-15 0 -17 13v3q0 6 4 11t11 5h2q12 4 27 12t28.5 17t24 17t13.5 12q5 8 13 8q6 0 11.5 -4.5t5.5 -11.5q0 -5 -3 -9z" unicode=""/>
<glyph glyph-name="uni1EA5" horiz-adv-x="345" unicode="" d="M309 342q8 -4 8 -13q0 -5 -4 -10t-10 -5q-4 0 -6 1q-14 7 -27 17t-26 21t-25 22t-24 20q-7 -5 -23 -16.5t-34 -24.5t-33.5 -22.5t-20.5 -9.5q-12 0 -16.5 3.5t-4.5 8.5q0 10 7 12q16 8 27.5 15.5t22.5 15.5q14 11 28 21.5t28 20.5q7 6 13 7q2 0 2.5 0.5t2.5 0.5 q9 0 25 -13q10 -8 21 -18t23 -21q12 -10 23.5 -19t22.5 -14zM416 57q-1 -1 -2 -3t-2.5 -3.5l-3.5 -3.5q-28 -31 -49 -44t-38 -13q-16 0 -28.5 10t-23 27t-20 39.5t-19.5 46.5q-10 -14 -25 -34t-33 -39t-38.5 -32t-41.5 -13q-12 0 -21 4q-25 11 -35.5 30t-10.5 44 q0 30 14.5 64.5t37 64.5t50.5 51.5t56 25.5q2 0 4.5 0.5t4.5 0.5q19 0 38.5 -9.5t33.5 -21.5q6 -5 6 -13t-5 -13.5t-13 -5.5q-5 0 -12 5q-21 20 -46 20q-26 0 -50 -19.5t-43 -46t-30 -55t-11 -46.5v-1q1 -20 10 -31t23 -11q11 0 24 8q15 10 31.5 29.5t32.5 40t28.5 35.5 t20.5 16h2q15 0 25 -21t19.5 -46t19.5 -46t25 -21h1q8 0 19 8t21 17.5t17.5 17.5t8.5 10q6 7 13 7q8 0 14 -5.5t6 -13.5q0 -4 -5 -11zM409 464q-5 -8 -17 -17.5t-26.5 -19t-30.5 -18t-30 -14.5q-8 -4 -16 -4q-15 0 -17 13v3q0 6 4 11t11 5h2q12 4 27 12t28.5 17t24 17 t13.5 12q5 8 13 8q6 0 11.5 -4.5t5.5 -11.5q0 -5 -3 -9z"/>
<glyph glyph-name="uni1EA6" d="M621 942q8 -4 8 -13q0 -5 -4 -10t-10 -5q-4 0 -6 1q-14 7 -27 17t-26 21t-25 22t-24 20q-7 -5 -23 -16.5t-34 -24.5t-33.5 -22.5t-20.5 -9.5q-12 0 -16.5 3.5t-4.5 8.5q0 10 7 12q16 8 27.5 15.5t22.5 15.5q14 11 28 21.5t28 20.5q7 6 13 7q2 0 2.5 0.5t2.5 0.5 q9 0 25 -13q10 -8 21 -18t23 -21q12 -10 23.5 -19t22.5 -14zM673 2q-2 -8 -7 -12t-11 -4q-7 0 -12.5 4.5t-5.5 12.5v4q2 14 3 32.5t1 41.5q0 50 -4 114t-10 130q-90 -29 -180 -56t-181 -52q-36 -63 -73 -122.5t-72 -107t-67.5 -78t-57.5 -34.5q-8 -2 -14.5 -2h-12.5 q-32 0 -65 15q-13 6 -13 14q0 7 7 11.5t18 4.5q8 0 12 -2q18 -7 39 -7q5 0 11 0.5t12 1.5q19 3 44.5 28t55 64.5t61.5 91.5t65 109l-44 -12t-44 -11q-4 -1 -14.5 -4t-23.5 -6t-26.5 -5t-23.5 -2q-7 0 -13 2q-11 5 -11 16q0 7 5 13t13 6q3 0 5 -1q9 0 28 3.5t45.5 10t59 15 t68.5 18.5q33 60 65 119.5t60 113t51 97.5t38 71q5 8 14 24t18 21q4 3 9 3q8 0 13 -6t5 -13q0 -10 -10 -16q-8 -9 -17 -25t-17.5 -33t-16.5 -33.5t-13 -26.5q-11 -21 -26.5 -51.5t-34.5 -67.5t-41 -78.5t-46 -84.5q50 14 101 29.5t95.5 29t80 25t55.5 17.5q-7 69 -14 130 t-13 102q-6 46 -21.5 78t-35.5 52.5t-41.5 29.5t-40.5 9h-7q-8 0 -13 5.5t-5 12.5q0 16 17 18h8q27 0 55 -12.5t52.5 -37t42.5 -62t25 -87.5q6 -42 13.5 -105t14.5 -135q3 -5 3 -11q0 -5 -1 -7q7 -70 11 -138t4 -122q0 -24 -1 -44.5t-3 -35.5zM611 1034q-2 -13 -17 -13 q-8 0 -16 4q-14 6 -30 14.5t-30.5 18t-26.5 19t-17 17.5q-3 4 -3 9q0 7 5.5 11.5t11.5 4.5q8 0 13 -8q3 -4 13.5 -12t24 -17t28.5 -17t27 -12h2q7 0 11 -5t4 -11v-3z" unicode=""/>
<glyph glyph-name="uni1EA7" horiz-adv-x="345" unicode="" d="M309 342q8 -4 8 -13q0 -5 -4 -10t-10 -5q-4 0 -6 1q-14 7 -27 17t-26 21t-25 22t-24 20q-7 -5 -23 -16.5t-34 -24.5t-33.5 -22.5t-20.5 -9.5q-12 0 -16.5 3.5t-4.5 8.5q0 10 7 12q16 8 27.5 15.5t22.5 15.5q14 11 28 21.5t28 20.5q7 6 13 7q2 0 2.5 0.5t2.5 0.5 q9 0 25 -13q10 -8 21 -18t23 -21q12 -10 23.5 -19t22.5 -14zM416 57q-1 -1 -2 -3t-2.5 -3.5l-3.5 -3.5q-28 -31 -49 -44t-38 -13q-16 0 -28.5 10t-23 27t-20 39.5t-19.5 46.5q-10 -14 -25 -34t-33 -39t-38.5 -32t-41.5 -13q-12 0 -21 4q-25 11 -35.5 30t-10.5 44 q0 30 14.5 64.5t37 64.5t50.5 51.5t56 25.5q2 0 4.5 0.5t4.5 0.5q19 0 38.5 -9.5t33.5 -21.5q6 -5 6 -13t-5 -13.5t-13 -5.5q-5 0 -12 5q-21 20 -46 20q-26 0 -50 -19.5t-43 -46t-30 -55t-11 -46.5v-1q1 -20 10 -31t23 -11q11 0 24 8q15 10 31.5 29.5t32.5 40t28.5 35.5 t20.5 16h2q15 0 25 -21t19.5 -46t19.5 -46t25 -21h1q8 0 19 8t21 17.5t17.5 17.5t8.5 10q6 7 13 7q8 0 14 -5.5t6 -13.5q0 -4 -5 -11zM315 431q-2 -13 -17 -13q-8 0 -16 4q-14 6 -30 14.5t-30.5 18t-26.5 19t-17 17.5q-3 4 -3 9q0 7 5.5 11.5t11.5 4.5q8 0 13 -8 q3 -4 13.5 -12t24 -17t28.5 -17t27 -12h2q7 0 11 -5t4 -11v-3z"/>
<glyph glyph-name="uni1EA8" d="M621 942q8 -4 8 -13q0 -5 -4 -10t-10 -5q-4 0 -6 1q-14 7 -27 17t-26 21t-25 22t-24 20q-7 -5 -23 -16.5t-34 -24.5t-33.5 -22.5t-20.5 -9.5q-12 0 -16.5 3.5t-4.5 8.5q0 10 7 12q16 8 27.5 15.5t22.5 15.5q14 11 28 21.5t28 20.5q7 6 13 7q2 0 2.5 0.5t2.5 0.5 q9 0 25 -13q10 -8 21 -18t23 -21q12 -10 23.5 -19t22.5 -14zM673 2q-2 -8 -7 -12t-11 -4q-7 0 -12.5 4.5t-5.5 12.5v4q2 14 3 32.5t1 41.5q0 50 -4 114t-10 130q-90 -29 -180 -56t-181 -52q-36 -63 -73 -122.5t-72 -107t-67.5 -78t-57.5 -34.5q-8 -2 -14.5 -2h-12.5 q-32 0 -65 15q-13 6 -13 14q0 7 7 11.5t18 4.5q8 0 12 -2q18 -7 39 -7q5 0 11 0.5t12 1.5q19 3 44.5 28t55 64.5t61.5 91.5t65 109l-44 -12t-44 -11q-4 -1 -14.5 -4t-23.5 -6t-26.5 -5t-23.5 -2q-7 0 -13 2q-11 5 -11 16q0 7 5 13t13 6q3 0 5 -1q9 0 28 3.5t45.5 10t59 15 t68.5 18.5q33 60 65 119.5t60 113t51 97.5t38 71q5 8 14 24t18 21q4 3 9 3q8 0 13 -6t5 -13q0 -10 -10 -16q-8 -9 -17 -25t-17.5 -33t-16.5 -33.5t-13 -26.5q-11 -21 -26.5 -51.5t-34.5 -67.5t-41 -78.5t-46 -84.5q50 14 101 29.5t95.5 29t80 25t55.5 17.5q-7 69 -14 130 t-13 102q-6 46 -21.5 78t-35.5 52.5t-41.5 29.5t-40.5 9h-7q-8 0 -13 5.5t-5 12.5q0 16 17 18h8q27 0 55 -12.5t52.5 -37t42.5 -62t25 -87.5q6 -42 13.5 -105t14.5 -135q3 -5 3 -11q0 -5 -1 -7q7 -70 11 -138t4 -122q0 -24 -1 -44.5t-3 -35.5zM581 1111q-9 -9 -19 -5 q-8 4 -9 12q0 3 1 6q3 11 10.5 19t17 13t20.5 6h7q7 0 14 -1q17 -3 31 -17q15 -15 14 -39q0 -17 -8 -27q-9 -12 -20.5 -20.5t-22 -15t-11.5 -12.5q-2 -8 -8 -10q-3 -1 -6 -1q-2 1 -4 1q-5 2 -8.5 6.5t-1.5 11.5q3 14 15.5 22.5t24 16t18 15.5t-1.5 22t-19 16t-23 -3 q-5 -1 -7 -5t-4 -11z" unicode=""/>
<glyph glyph-name="uni1EA9" horiz-adv-x="345" unicode="" d="M309 342q8 -4 8 -13q0 -5 -4 -10t-10 -5q-4 0 -6 1q-14 7 -27 17t-26 21t-25 22t-24 20q-7 -5 -23 -16.5t-34 -24.5t-33.5 -22.5t-20.5 -9.5q-12 0 -16.5 3.5t-4.5 8.5q0 10 7 12q16 8 27.5 15.5t22.5 15.5q14 11 28 21.5t28 20.5q7 6 13 7q2 0 2.5 0.5t2.5 0.5 q9 0 25 -13q10 -8 21 -18t23 -21q12 -10 23.5 -19t22.5 -14zM416 57q-1 -1 -2 -3t-2.5 -3.5l-3.5 -3.5q-28 -31 -49 -44t-38 -13q-16 0 -28.5 10t-23 27t-20 39.5t-19.5 46.5q-10 -14 -25 -34t-33 -39t-38.5 -32t-41.5 -13q-12 0 -21 4q-25 11 -35.5 30t-10.5 44 q0 30 14.5 64.5t37 64.5t50.5 51.5t56 25.5q2 0 4.5 0.5t4.5 0.5q19 0 38.5 -9.5t33.5 -21.5q6 -5 6 -13t-5 -13.5t-13 -5.5q-5 0 -12 5q-21 20 -46 20q-26 0 -50 -19.5t-43 -46t-30 -55t-11 -46.5v-1q1 -20 10 -31t23 -11q11 0 24 8q15 10 31.5 29.5t32.5 40t28.5 35.5 t20.5 16h2q15 0 25 -21t19.5 -46t19.5 -46t25 -21h1q8 0 19 8t21 17.5t17.5 17.5t8.5 10q6 7 13 7q8 0 14 -5.5t6 -13.5q0 -4 -5 -11zM265 493q-9 -9 -19 -5q-8 4 -9 12q0 3 1 6q3 11 10.5 19t17 13t20.5 6h7q7 0 14 -1q17 -3 31 -17q15 -15 14 -39q0 -17 -8 -27 q-9 -12 -20.5 -20.5t-22 -15t-11.5 -12.5q-2 -8 -8 -10q-3 -1 -6 -1q-2 1 -4 1q-5 2 -8.5 6.5t-1.5 11.5q3 14 15.5 22.5t24 16t18 15.5t-1.5 22t-19 16t-23 -3q-5 -1 -7 -5t-4 -11z"/>
<glyph glyph-name="uni1EAA" d="M621 942q8 -4 8 -13q0 -5 -4 -10t-10 -5q-4 0 -6 1q-14 7 -27 17t-26 21t-25 22t-24 20q-7 -5 -23 -16.5t-34 -24.5t-33.5 -22.5t-20.5 -9.5q-12 0 -16.5 3.5t-4.5 8.5q0 10 7 12q16 8 27.5 15.5t22.5 15.5q14 11 28 21.5t28 20.5q7 6 13 7q2 0 2.5 0.5t2.5 0.5 q9 0 25 -13q10 -8 21 -18t23 -21q12 -10 23.5 -19t22.5 -14zM673 2q-2 -8 -7 -12t-11 -4q-7 0 -12.5 4.5t-5.5 12.5v4q2 14 3 32.5t1 41.5q0 50 -4 114t-10 130q-90 -29 -180 -56t-181 -52q-36 -63 -73 -122.5t-72 -107t-67.5 -78t-57.5 -34.5q-8 -2 -14.5 -2h-12.5 q-32 0 -65 15q-13 6 -13 14q0 7 7 11.5t18 4.5q8 0 12 -2q18 -7 39 -7q5 0 11 0.5t12 1.5q19 3 44.5 28t55 64.5t61.5 91.5t65 109l-44 -12t-44 -11q-4 -1 -14.5 -4t-23.5 -6t-26.5 -5t-23.5 -2q-7 0 -13 2q-11 5 -11 16q0 7 5 13t13 6q3 0 5 -1q9 0 28 3.5t45.5 10t59 15 t68.5 18.5q33 60 65 119.5t60 113t51 97.5t38 71q5 8 14 24t18 21q4 3 9 3q8 0 13 -6t5 -13q0 -10 -10 -16q-8 -9 -17 -25t-17.5 -33t-16.5 -33.5t-13 -26.5q-11 -21 -26.5 -51.5t-34.5 -67.5t-41 -78.5t-46 -84.5q50 14 101 29.5t95.5 29t80 25t55.5 17.5q-7 69 -14 130 t-13 102q-6 46 -21.5 78t-35.5 52.5t-41.5 29.5t-40.5 9h-7q-8 0 -13 5.5t-5 12.5q0 16 17 18h8q27 0 55 -12.5t52.5 -37t42.5 -62t25 -87.5q6 -42 13.5 -105t14.5 -135q3 -5 3 -11q0 -5 -1 -7q7 -70 11 -138t4 -122q0 -24 -1 -44.5t-3 -35.5zM628 1134q-6 -11 -12 -24.5 t-14 -26.5t-18 -22t-24 -11h-6q-15 0 -30 8t-29.5 19t-27.5 23t-24 21q-6 -6 -16.5 -21.5t-21.5 -38.5q-5 -8 -11 -8q-5 0 -9 4t-4 11q0 1 2 7q3 6 9 19t14 25.5t17.5 22t19.5 9.5q6 0 11 -4q11 -8 24 -20t27 -23t26 -18t23 -7h4q8 1 15 9.5t13.5 20t11.5 23t8 17.5 q4 7 11 7q13 0 13 -14q0 -2 -2 -8z" unicode=""/>
<glyph glyph-name="uni1EAB" horiz-adv-x="345" unicode="" d="M309 342q8 -4 8 -13q0 -5 -4 -10t-10 -5q-4 0 -6 1q-14 7 -27 17t-26 21t-25 22t-24 20q-7 -5 -23 -16.5t-34 -24.5t-33.5 -22.5t-20.5 -9.5q-12 0 -16.5 3.5t-4.5 8.5q0 10 7 12q16 8 27.5 15.5t22.5 15.5q14 11 28 21.5t28 20.5q7 6 13 7q2 0 2.5 0.5t2.5 0.5 q9 0 25 -13q10 -8 21 -18t23 -21q12 -10 23.5 -19t22.5 -14zM416 57q-1 -1 -2 -3t-2.5 -3.5l-3.5 -3.5q-28 -31 -49 -44t-38 -13q-16 0 -28.5 10t-23 27t-20 39.5t-19.5 46.5q-10 -14 -25 -34t-33 -39t-38.5 -32t-41.5 -13q-12 0 -21 4q-25 11 -35.5 30t-10.5 44 q0 30 14.5 64.5t37 64.5t50.5 51.5t56 25.5q2 0 4.5 0.5t4.5 0.5q19 0 38.5 -9.5t33.5 -21.5q6 -5 6 -13t-5 -13.5t-13 -5.5q-5 0 -12 5q-21 20 -46 20q-26 0 -50 -19.5t-43 -46t-30 -55t-11 -46.5v-1q1 -20 10 -31t23 -11q11 0 24 8q15 10 31.5 29.5t32.5 40t28.5 35.5 t20.5 16h2q15 0 25 -21t19.5 -46t19.5 -46t25 -21h1q8 0 19 8t21 17.5t17.5 17.5t8.5 10q6 7 13 7q8 0 14 -5.5t6 -13.5q0 -4 -5 -11zM320 539q-6 -11 -12 -24.5t-14 -26.5t-18 -22t-24 -11h-6q-15 0 -30 8t-29.5 19t-27.5 23t-24 21q-6 -6 -16.5 -21.5t-21.5 -38.5 q-5 -8 -11 -8q-5 0 -9 4t-4 11q0 1 2 7q3 6 9 19t14 25.5t17.5 22t19.5 9.5q6 0 11 -4q11 -8 24 -20t27 -23t26 -18t23 -7h4q8 1 15 9.5t13.5 20t11.5 23t8 17.5q4 7 11 7q13 0 13 -14q0 -2 -2 -8z"/>
<glyph glyph-name="uni1EAC" d="M434 -171q0 -17 -10.5 -23t-20.5 -6h-2q-18 1 -25 11t-9 23q0 2 -0.5 3t-0.5 2q0 7 4.5 12t10 7.5t10.5 3.5t7 1h1q9 0 16 -4q6 -3 11.5 -9t7.5 -16v-5zM621 942q8 -4 8 -13q0 -5 -4 -10t-10 -5q-4 0 -6 1q-14 7 -27 17t-26 21t-25 22t-24 20q-7 -5 -23 -16.5t-34 -24.5 t-33.5 -22.5t-20.5 -9.5q-12 0 -16.5 3.5t-4.5 8.5q0 10 7 12q16 8 27.5 15.5t22.5 15.5q14 11 28 21.5t28 20.5q7 6 13 7q2 0 2.5 0.5t2.5 0.5q9 0 25 -13q10 -8 21 -18t23 -21q12 -10 23.5 -19t22.5 -14zM673 2q-2 -8 -7 -12t-11 -4q-7 0 -12.5 4.5t-5.5 12.5v4 q2 14 3 32.5t1 41.5q0 50 -4 114t-10 130q-90 -29 -180 -56t-181 -52q-36 -63 -73 -122.5t-72 -107t-67.5 -78t-57.5 -34.5q-8 -2 -14.5 -2h-12.5q-32 0 -65 15q-13 6 -13 14q0 7 7 11.5t18 4.5q8 0 12 -2q18 -7 39 -7q5 0 11 0.5t12 1.5q19 3 44.5 28t55 64.5t61.5 91.5 t65 109l-44 -12t-44 -11q-4 -1 -14.5 -4t-23.5 -6t-26.5 -5t-23.5 -2q-7 0 -13 2q-11 5 -11 16q0 7 5 13t13 6q3 0 5 -1q9 0 28 3.5t45.5 10t59 15t68.5 18.5q33 60 65 119.5t60 113t51 97.5t38 71q5 8 14 24t18 21q4 3 9 3q8 0 13 -6t5 -13q0 -10 -10 -16q-8 -9 -17 -25 t-17.5 -33t-16.5 -33.5t-13 -26.5q-11 -21 -26.5 -51.5t-34.5 -67.5t-41 -78.5t-46 -84.5q50 14 101 29.5t95.5 29t80 25t55.5 17.5q-7 69 -14 130t-13 102q-6 46 -21.5 78t-35.5 52.5t-41.5 29.5t-40.5 9h-7q-8 0 -13 5.5t-5 12.5q0 16 17 18h8q27 0 55 -12.5t52.5 -37 t42.5 -62t25 -87.5q6 -42 13.5 -105t14.5 -135q3 -5 3 -11q0 -5 -1 -7q7 -70 11 -138t4 -122q0 -24 -1 -44.5t-3 -35.5z" unicode=""/>
<glyph glyph-name="uni1EAD" horiz-adv-x="345" unicode="" d="M187 -102q0 -17 -10.5 -23t-20.5 -6h-2q-18 1 -25 11t-9 23q0 2 -0.5 3t-0.5 2q0 7 4.5 12t10 7.5t10.5 3.5t7 1h1q9 0 16 -4q6 -3 11.5 -9t7.5 -16v-5zM309 342q8 -4 8 -13q0 -5 -4 -10t-10 -5q-4 0 -6 1q-14 7 -27 17t-26 21t-25 22t-24 20q-7 -5 -23 -16.5t-34 -24.5 t-33.5 -22.5t-20.5 -9.5q-12 0 -16.5 3.5t-4.5 8.5q0 10 7 12q16 8 27.5 15.5t22.5 15.5q14 11 28 21.5t28 20.5q7 6 13 7q2 0 2.5 0.5t2.5 0.5q9 0 25 -13q10 -8 21 -18t23 -21q12 -10 23.5 -19t22.5 -14zM416 57q-1 -1 -2 -3t-2.5 -3.5l-3.5 -3.5q-28 -31 -49 -44t-38 -13 q-16 0 -28.5 10t-23 27t-20 39.5t-19.5 46.5q-10 -14 -25 -34t-33 -39t-38.5 -32t-41.5 -13q-12 0 -21 4q-25 11 -35.5 30t-10.5 44q0 30 14.5 64.5t37 64.5t50.5 51.5t56 25.5q2 0 4.5 0.5t4.5 0.5q19 0 38.5 -9.5t33.5 -21.5q6 -5 6 -13t-5 -13.5t-13 -5.5q-5 0 -12 5 q-21 20 -46 20q-26 0 -50 -19.5t-43 -46t-30 -55t-11 -46.5v-1q1 -20 10 -31t23 -11q11 0 24 8q15 10 31.5 29.5t32.5 40t28.5 35.5t20.5 16h2q15 0 25 -21t19.5 -46t19.5 -46t25 -21h1q8 0 19 8t21 17.5t17.5 17.5t8.5 10q6 7 13 7q8 0 14 -5.5t6 -13.5q0 -4 -5 -11z"/>
<glyph glyph-name="uni1EAE" d="M606 979q-5 -18 -16 -33t-26.5 -26t-34.5 -17.5t-38 -6.5q-23 0 -44 10t-38 33q-7 9 -12.5 18.5t-9.5 20.5q-1 2 -1 5q0 7 6 12t12 5q10 0 14 -11q0 -1 4.5 -10.5t12.5 -20.5t19.5 -20.5t27.5 -9.5h4q22 0 38.5 7t27.5 17t16.5 19.5t6.5 14.5q2 7 6 10t9 3q6 0 11.5 -4 t5.5 -12q0 -1 -0.5 -1.5t-0.5 -2.5zM673 2q-2 -8 -7 -12t-11 -4q-7 0 -12.5 4.5t-5.5 12.5v4q2 14 3 32.5t1 41.5q0 50 -4 114t-10 130q-90 -29 -180 -56t-181 -52q-36 -63 -73 -122.5t-72 -107t-67.5 -78t-57.5 -34.5q-8 -2 -14.5 -2h-12.5q-32 0 -65 15q-13 6 -13 14 q0 7 7 11.5t18 4.5q8 0 12 -2q18 -7 39 -7q5 0 11 0.5t12 1.5q19 3 44.5 28t55 64.5t61.5 91.5t65 109l-44 -12t-44 -11q-4 -1 -14.5 -4t-23.5 -6t-26.5 -5t-23.5 -2q-7 0 -13 2q-11 5 -11 16q0 7 5 13t13 6q3 0 5 -1q9 0 28 3.5t45.5 10t59 15t68.5 18.5q33 60 65 119.5 t60 113t51 97.5t38 71q5 8 14 24t18 21q4 3 9 3q8 0 13 -6t5 -13q0 -10 -10 -16q-8 -9 -17 -25t-17.5 -33t-16.5 -33.5t-13 -26.5q-11 -21 -26.5 -51.5t-34.5 -67.5t-41 -78.5t-46 -84.5q50 14 101 29.5t95.5 29t80 25t55.5 17.5q-7 69 -14 130t-13 102q-6 46 -21.5 78 t-35.5 52.5t-41.5 29.5t-40.5 9h-7q-8 0 -13 5.5t-5 12.5q0 16 17 18h8q27 0 55 -12.5t52.5 -37t42.5 -62t25 -87.5q6 -42 13.5 -105t14.5 -135q3 -5 3 -11q0 -5 -1 -7q7 -70 11 -138t4 -122q0 -24 -1 -44.5t-3 -35.5zM611 1082q-5 -8 -17 -17.5t-26.5 -19t-30.5 -18 t-30 -14.5q-8 -4 -16 -4q-15 0 -17 13v3q0 6 4 11t11 5h2q12 4 27 12t28.5 17t24 17t13.5 12q5 8 13 8q6 0 11.5 -4.5t5.5 -11.5q0 -5 -3 -9z" unicode=""/>
<glyph glyph-name="uni1EAF" horiz-adv-x="345" unicode="" d="M300 398q-5 -18 -16 -33t-26.5 -26t-34.5 -17.5t-38 -6.5q-23 0 -44 10t-38 33q-7 9 -12.5 18.5t-9.5 20.5q-1 2 -1 5q0 7 6 12t12 5q10 0 14 -11q0 -1 4.5 -10.5t12.5 -20.5t19.5 -20.5t27.5 -9.5h4q22 0 38.5 7t27.5 17t16.5 19.5t6.5 14.5q2 7 6 10t9 3q6 0 11.5 -4 t5.5 -12q0 -1 -0.5 -1.5t-0.5 -2.5zM416 57q-1 -1 -2 -3t-2.5 -3.5l-3.5 -3.5q-28 -31 -49 -44t-38 -13q-16 0 -28.5 10t-23 27t-20 39.5t-19.5 46.5q-10 -14 -25 -34t-33 -39t-38.5 -32t-41.5 -13q-12 0 -21 4q-25 11 -35.5 30t-10.5 44q0 30 14.5 64.5t37 64.5t50.5 51.5 t56 25.5q2 0 4.5 0.5t4.5 0.5q19 0 38.5 -9.5t33.5 -21.5q6 -5 6 -13t-5 -13.5t-13 -5.5q-5 0 -12 5q-21 20 -46 20q-26 0 -50 -19.5t-43 -46t-30 -55t-11 -46.5v-1q1 -20 10 -31t23 -11q11 0 24 8q15 10 31.5 29.5t32.5 40t28.5 35.5t20.5 16h2q15 0 25 -21t19.5 -46 t19.5 -46t25 -21h1q8 0 19 8t21 17.5t17.5 17.5t8.5 10q6 7 13 7q8 0 14 -5.5t6 -13.5q0 -4 -5 -11zM303 504q-5 -8 -17 -17.5t-26.5 -19t-30.5 -18t-30 -14.5q-8 -4 -16 -4q-15 0 -17 13v3q0 6 4 11t11 5h2q12 4 27 12t28.5 17t24 17t13.5 12q5 8 13 8q6 0 11.5 -4.5 t5.5 -11.5q0 -5 -3 -9z"/>
<glyph glyph-name="uni1EB0" d="M606 979q-5 -18 -16 -33t-26.5 -26t-34.5 -17.5t-38 -6.5q-23 0 -44 10t-38 33q-7 9 -12.5 18.5t-9.5 20.5q-1 2 -1 5q0 7 6 12t12 5q10 0 14 -11q0 -1 4.5 -10.5t12.5 -20.5t19.5 -20.5t27.5 -9.5h4q22 0 38.5 7t27.5 17t16.5 19.5t6.5 14.5q2 7 6 10t9 3q6 0 11.5 -4 t5.5 -12q0 -1 -0.5 -1.5t-0.5 -2.5zM673 2q-2 -8 -7 -12t-11 -4q-7 0 -12.5 4.5t-5.5 12.5v4q2 14 3 32.5t1 41.5q0 50 -4 114t-10 130q-90 -29 -180 -56t-181 -52q-36 -63 -73 -122.5t-72 -107t-67.5 -78t-57.5 -34.5q-8 -2 -14.5 -2h-12.5q-32 0 -65 15q-13 6 -13 14 q0 7 7 11.5t18 4.5q8 0 12 -2q18 -7 39 -7q5 0 11 0.5t12 1.5q19 3 44.5 28t55 64.5t61.5 91.5t65 109l-44 -12t-44 -11q-4 -1 -14.5 -4t-23.5 -6t-26.5 -5t-23.5 -2q-7 0 -13 2q-11 5 -11 16q0 7 5 13t13 6q3 0 5 -1q9 0 28 3.5t45.5 10t59 15t68.5 18.5q33 60 65 119.5 t60 113t51 97.5t38 71q5 8 14 24t18 21q4 3 9 3q8 0 13 -6t5 -13q0 -10 -10 -16q-8 -9 -17 -25t-17.5 -33t-16.5 -33.5t-13 -26.5q-11 -21 -26.5 -51.5t-34.5 -67.5t-41 -78.5t-46 -84.5q50 14 101 29.5t95.5 29t80 25t55.5 17.5q-7 69 -14 130t-13 102q-6 46 -21.5 78 t-35.5 52.5t-41.5 29.5t-40.5 9h-7q-8 0 -13 5.5t-5 12.5q0 16 17 18h8q27 0 55 -12.5t52.5 -37t42.5 -62t25 -87.5q6 -42 13.5 -105t14.5 -135q3 -5 3 -11q0 -5 -1 -7q7 -70 11 -138t4 -122q0 -24 -1 -44.5t-3 -35.5zM535 1019q-2 -13 -17 -13q-8 0 -16 4q-14 6 -30 14.5 t-30.5 18t-26.5 19t-17 17.5q-3 4 -3 9q0 7 5.5 11.5t11.5 4.5q8 0 13 -8q3 -4 13.5 -12t24 -17t28.5 -17t27 -12h2q7 0 11 -5t4 -11v-3z" unicode=""/>
<glyph glyph-name="uni1EB1" horiz-adv-x="345" unicode="" d="M300 398q-5 -18 -16 -33t-26.5 -26t-34.5 -17.5t-38 -6.5q-23 0 -44 10t-38 33q-7 9 -12.5 18.5t-9.5 20.5q-1 2 -1 5q0 7 6 12t12 5q10 0 14 -11q0 -1 4.5 -10.5t12.5 -20.5t19.5 -20.5t27.5 -9.5h4q22 0 38.5 7t27.5 17t16.5 19.5t6.5 14.5q2 7 6 10t9 3q6 0 11.5 -4 t5.5 -12q0 -1 -0.5 -1.5t-0.5 -2.5zM416 57q-1 -1 -2 -3t-2.5 -3.5l-3.5 -3.5q-28 -31 -49 -44t-38 -13q-16 0 -28.5 10t-23 27t-20 39.5t-19.5 46.5q-10 -14 -25 -34t-33 -39t-38.5 -32t-41.5 -13q-12 0 -21 4q-25 11 -35.5 30t-10.5 44q0 30 14.5 64.5t37 64.5t50.5 51.5 t56 25.5q2 0 4.5 0.5t4.5 0.5q19 0 38.5 -9.5t33.5 -21.5q6 -5 6 -13t-5 -13.5t-13 -5.5q-5 0 -12 5q-21 20 -46 20q-26 0 -50 -19.5t-43 -46t-30 -55t-11 -46.5v-1q1 -20 10 -31t23 -11q11 0 24 8q15 10 31.5 29.5t32.5 40t28.5 35.5t20.5 16h2q15 0 25 -21t19.5 -46 t19.5 -46t25 -21h1q8 0 19 8t21 17.5t17.5 17.5t8.5 10q6 7 13 7q8 0 14 -5.5t6 -13.5q0 -4 -5 -11zM241 438q-2 -13 -17 -13q-8 0 -16 4q-14 6 -30 14.5t-30.5 18t-26.5 19t-17 17.5q-3 4 -3 9q0 7 5.5 11.5t11.5 4.5q8 0 13 -8q3 -4 13.5 -12t24 -17t28.5 -17t27 -12h2 q7 0 11 -5t4 -11v-3z"/>
<glyph glyph-name="uni1EB2" d="M606 979q-5 -18 -16 -33t-26.5 -26t-34.5 -17.5t-38 -6.5q-23 0 -44 10t-38 33q-7 9 -12.5 18.5t-9.5 20.5q-1 2 -1 5q0 7 6 12t12 5q10 0 14 -11q0 -1 4.5 -10.5t12.5 -20.5t19.5 -20.5t27.5 -9.5h4q22 0 38.5 7t27.5 17t16.5 19.5t6.5 14.5q2 7 6 10t9 3q6 0 11.5 -4 t5.5 -12q0 -1 -0.5 -1.5t-0.5 -2.5zM673 2q-2 -8 -7 -12t-11 -4q-7 0 -12.5 4.5t-5.5 12.5v4q2 14 3 32.5t1 41.5q0 50 -4 114t-10 130q-90 -29 -180 -56t-181 -52q-36 -63 -73 -122.5t-72 -107t-67.5 -78t-57.5 -34.5q-8 -2 -14.5 -2h-12.5q-32 0 -65 15q-13 6 -13 14 q0 7 7 11.5t18 4.5q8 0 12 -2q18 -7 39 -7q5 0 11 0.5t12 1.5q19 3 44.5 28t55 64.5t61.5 91.5t65 109l-44 -12t-44 -11q-4 -1 -14.5 -4t-23.5 -6t-26.5 -5t-23.5 -2q-7 0 -13 2q-11 5 -11 16q0 7 5 13t13 6q3 0 5 -1q9 0 28 3.5t45.5 10t59 15t68.5 18.5q33 60 65 119.5 t60 113t51 97.5t38 71q5 8 14 24t18 21q4 3 9 3q8 0 13 -6t5 -13q0 -10 -10 -16q-8 -9 -17 -25t-17.5 -33t-16.5 -33.5t-13 -26.5q-11 -21 -26.5 -51.5t-34.5 -67.5t-41 -78.5t-46 -84.5q50 14 101 29.5t95.5 29t80 25t55.5 17.5q-7 69 -14 130t-13 102q-6 46 -21.5 78 t-35.5 52.5t-41.5 29.5t-40.5 9h-7q-8 0 -13 5.5t-5 12.5q0 16 17 18h8q27 0 55 -12.5t52.5 -37t42.5 -62t25 -87.5q6 -42 13.5 -105t14.5 -135q3 -5 3 -11q0 -5 -1 -7q7 -70 11 -138t4 -122q0 -24 -1 -44.5t-3 -35.5zM501 1106q-9 -9 -19 -5q-8 4 -9 12q0 3 1 6 q3 11 10.5 19t17 13t20.5 6h7q7 0 14 -1q17 -3 31 -17q15 -15 14 -39q0 -17 -8 -27q-9 -12 -20.5 -20.5t-22 -15t-11.5 -12.5q-2 -8 -8 -10q-3 -1 -6 -1q-2 1 -4 1q-5 2 -8.5 6.5t-1.5 11.5q3 14 15.5 22.5t24 16t18 15.5t-1.5 22t-19 16t-23 -3q-5 -1 -7 -5t-4 -11z" unicode=""/>
<glyph glyph-name="uni1EB3" horiz-adv-x="345" unicode="" d="M300 398q-5 -18 -16 -33t-26.5 -26t-34.5 -17.5t-38 -6.5q-23 0 -44 10t-38 33q-7 9 -12.5 18.5t-9.5 20.5q-1 2 -1 5q0 7 6 12t12 5q10 0 14 -11q0 -1 4.5 -10.5t12.5 -20.5t19.5 -20.5t27.5 -9.5h4q22 0 38.5 7t27.5 17t16.5 19.5t6.5 14.5q2 7 6 10t9 3q6 0 11.5 -4 t5.5 -12q0 -1 -0.5 -1.5t-0.5 -2.5zM416 57q-1 -1 -2 -3t-2.5 -3.5l-3.5 -3.5q-28 -31 -49 -44t-38 -13q-16 0 -28.5 10t-23 27t-20 39.5t-19.5 46.5q-10 -14 -25 -34t-33 -39t-38.5 -32t-41.5 -13q-12 0 -21 4q-25 11 -35.5 30t-10.5 44q0 30 14.5 64.5t37 64.5t50.5 51.5 t56 25.5q2 0 4.5 0.5t4.5 0.5q19 0 38.5 -9.5t33.5 -21.5q6 -5 6 -13t-5 -13.5t-13 -5.5q-5 0 -12 5q-21 20 -46 20q-26 0 -50 -19.5t-43 -46t-30 -55t-11 -46.5v-1q1 -20 10 -31t23 -11q11 0 24 8q15 10 31.5 29.5t32.5 40t28.5 35.5t20.5 16h2q15 0 25 -21t19.5 -46 t19.5 -46t25 -21h1q8 0 19 8t21 17.5t17.5 17.5t8.5 10q6 7 13 7q8 0 14 -5.5t6 -13.5q0 -4 -5 -11zM181 517q-9 -9 -19 -5q-8 4 -9 12q0 3 1 6q3 11 10.5 19t17 13t20.5 6h7q7 0 14 -1q17 -3 31 -17q15 -15 14 -39q0 -17 -8 -27q-9 -12 -20.5 -20.5t-22 -15t-11.5 -12.5 q-2 -8 -8 -10q-3 -1 -6 -1q-2 1 -4 1q-5 2 -8.5 6.5t-1.5 11.5q3 14 15.5 22.5t24 16t18 15.5t-1.5 22t-19 16t-23 -3q-5 -1 -7 -5t-4 -11z"/>
<glyph glyph-name="uni1EB4" d="M606 979q-5 -18 -16 -33t-26.5 -26t-34.5 -17.5t-38 -6.5q-23 0 -44 10t-38 33q-7 9 -12.5 18.5t-9.5 20.5q-1 2 -1 5q0 7 6 12t12 5q10 0 14 -11q0 -1 4.5 -10.5t12.5 -20.5t19.5 -20.5t27.5 -9.5h4q22 0 38.5 7t27.5 17t16.5 19.5t6.5 14.5q2 7 6 10t9 3q6 0 11.5 -4 t5.5 -12q0 -1 -0.5 -1.5t-0.5 -2.5zM673 2q-2 -8 -7 -12t-11 -4q-7 0 -12.5 4.5t-5.5 12.5v4q2 14 3 32.5t1 41.5q0 50 -4 114t-10 130q-90 -29 -180 -56t-181 -52q-36 -63 -73 -122.5t-72 -107t-67.5 -78t-57.5 -34.5q-8 -2 -14.5 -2h-12.5q-32 0 -65 15q-13 6 -13 14 q0 7 7 11.5t18 4.5q8 0 12 -2q18 -7 39 -7q5 0 11 0.5t12 1.5q19 3 44.5 28t55 64.5t61.5 91.5t65 109l-44 -12t-44 -11q-4 -1 -14.5 -4t-23.5 -6t-26.5 -5t-23.5 -2q-7 0 -13 2q-11 5 -11 16q0 7 5 13t13 6q3 0 5 -1q9 0 28 3.5t45.5 10t59 15t68.5 18.5q33 60 65 119.5 t60 113t51 97.5t38 71q5 8 14 24t18 21q4 3 9 3q8 0 13 -6t5 -13q0 -10 -10 -16q-8 -9 -17 -25t-17.5 -33t-16.5 -33.5t-13 -26.5q-11 -21 -26.5 -51.5t-34.5 -67.5t-41 -78.5t-46 -84.5q50 14 101 29.5t95.5 29t80 25t55.5 17.5q-7 69 -14 130t-13 102q-6 46 -21.5 78 t-35.5 52.5t-41.5 29.5t-40.5 9h-7q-8 0 -13 5.5t-5 12.5q0 16 17 18h8q27 0 55 -12.5t52.5 -37t42.5 -62t25 -87.5q6 -42 13.5 -105t14.5 -135q3 -5 3 -11q0 -5 -1 -7q7 -70 11 -138t4 -122q0 -24 -1 -44.5t-3 -35.5zM633 1127q-6 -11 -12 -24.5t-14 -26.5t-18 -22t-24 -11 h-6q-15 0 -30 8t-29.5 19t-27.5 23t-24 21q-6 -6 -16.5 -21.5t-21.5 -38.5q-5 -8 -11 -8q-5 0 -9 4t-4 11q0 1 2 7q3 6 9 19t14 25.5t17.5 22t19.5 9.5q6 0 11 -4q11 -8 24 -20t27 -23t26 -18t23 -7h4q8 1 15 9.5t13.5 20t11.5 23t8 17.5q4 7 11 7q13 0 13 -14q0 -2 -2 -8z " unicode=""/>
</font>
</defs>
</svg>
